{"glyphs":{"0":{"ha":833,"x_min":64,"x_max":769,"o":"m 417 -11 q 154 118 244 -11 q 64 494 64 247 q 154 871 64 742 q 417 1000 244 1000 q 679 872 589 1000 q 769 496 769 743 q 679 118 769 247 q 417 -11 589 -11 m 417 104 q 574 199 524 104 q 625 496 625 294 q 575 790 625 697 q 417 883 525 883 q 259 790 310 883 q 208 496 208 696 q 259 199 208 294 q 417 104 310 104 z "},"1":{"ha":833,"x_min":168,"x_max":746,"o":"m 746 118 l 746 0 l 168 0 l 168 118 l 385 118 l 385 818 l 183 693 l 183 825 l 446 989 l 529 989 l 529 118 l 746 118 z "},"2":{"ha":833,"x_min":79,"x_max":757,"o":"m 757 118 l 757 0 l 108 0 l 108 107 l 449 481 q 544 612 514 553 q 574 729 574 671 q 531 844 574 804 q 406 883 488 883 q 131 775 268 883 l 79 881 q 228 967 138 935 q 410 1000 318 1000 q 634 929 551 1000 q 717 738 717 858 q 679 574 717 651 q 554 403 642 497 l 290 118 l 757 118 z "},"3":{"ha":833,"x_min":65,"x_max":740,"o":"m 563 508 q 694 422 649 483 q 740 268 740 361 q 649 65 740 139 q 403 -10 558 -10 q 215 22 304 -10 q 65 110 125 53 l 117 215 q 399 107 250 107 q 601 278 601 107 q 549 402 601 361 q 389 443 496 443 l 268 443 l 268 560 l 367 560 q 524 603 469 560 q 578 728 578 646 q 533 843 578 803 q 406 883 488 883 q 131 775 267 883 l 79 881 q 227 968 138 936 q 413 1000 317 1000 q 634 931 551 1000 q 717 746 717 863 q 676 599 717 661 q 563 508 636 536 z "},"4":{"ha":833,"x_min":63,"x_max":793,"o":"m 793 206 l 647 206 l 647 0 l 506 0 l 506 206 l 63 206 l 63 313 l 532 989 l 647 989 l 647 321 l 793 321 l 793 206 m 506 321 l 506 757 l 203 321 l 506 321 z "},"5":{"ha":833,"x_min":97,"x_max":774,"o":"m 464 626 q 627 587 557 626 q 735 476 697 547 q 774 311 774 404 q 731 143 774 215 q 610 31 689 71 q 425 -10 531 -10 q 244 22 333 -10 q 97 110 156 54 l 147 215 q 426 107 285 107 q 580 160 525 107 q 635 308 635 214 q 580 454 635 399 q 433 510 525 510 q 219 408 300 510 l 126 408 l 126 989 l 732 989 l 732 874 l 268 874 l 268 560 q 464 626 347 626 z "},"6":{"ha":833,"x_min":67,"x_max":772,"o":"m 468 626 q 626 587 557 626 q 733 476 694 547 q 772 311 772 404 q 731 145 772 218 q 615 31 689 72 q 449 -11 542 -11 q 166 114 265 -11 q 67 472 67 239 q 113 756 67 638 q 248 938 160 875 q 458 1000 336 1000 q 628 969 546 1000 q 772 881 711 939 l 721 775 q 463 883 590 883 q 276 777 342 883 q 211 475 211 671 l 211 474 q 312 586 243 546 q 468 626 381 626 m 442 106 q 581 161 528 106 q 633 308 633 217 q 581 454 633 399 q 440 510 528 510 q 297 453 353 510 q 240 308 240 397 q 296 162 240 218 q 442 106 351 106 z "},"7":{"ha":833,"x_min":82,"x_max":751,"o":"m 751 989 l 751 882 l 294 0 l 140 0 l 596 871 l 82 871 l 82 989 l 751 989 z "},"8":{"ha":833,"x_min":56,"x_max":778,"o":"m 575 508 q 724 418 671 482 q 778 264 778 354 q 680 63 778 136 q 417 -10 582 -10 q 153 63 251 -10 q 56 264 56 136 q 110 419 56 356 q 261 508 164 483 q 127 596 175 536 q 79 736 79 656 q 122 875 79 815 q 242 967 165 935 q 417 1000 318 1000 q 592 967 515 1000 q 711 875 668 935 q 754 736 754 815 q 707 595 754 656 q 575 508 660 535 m 217 724 q 271 606 217 651 q 417 549 325 561 q 563 606 508 561 q 617 724 617 651 q 563 842 617 800 q 417 885 510 885 q 270 842 324 885 q 217 724 217 800 m 417 106 q 582 149 524 106 q 640 274 640 192 q 580 395 640 350 q 417 453 519 440 q 253 395 314 440 q 193 274 193 350 q 251 149 193 192 q 417 106 310 106 z "},"9":{"ha":833,"x_min":61,"x_max":767,"o":"m 386 1000 q 668 875 569 1000 q 767 517 767 750 q 720 233 767 351 q 585 51 674 114 q 375 -11 497 -11 q 206 20 288 -11 q 63 108 124 51 l 113 214 q 245 131 182 157 q 371 106 308 106 q 558 212 492 106 q 624 514 624 318 l 624 518 q 524 404 593 446 q 367 363 456 363 q 208 402 278 363 q 100 513 139 442 q 61 678 61 585 q 103 844 61 771 q 219 958 144 917 q 386 1000 293 1000 m 393 479 q 538 535 482 479 q 593 681 593 592 q 538 827 593 771 q 393 883 482 883 q 253 828 306 883 q 200 681 200 772 q 253 535 200 590 q 393 479 307 479 z "},"\u0000":{"ha":0,"x_min":0,"x_max":0,"o":""},"\r":{"ha":371,"x_min":0,"x_max":0,"o":""}," ":{"ha":371,"x_min":0,"x_max":0,"o":""},"A":{"ha":1029,"x_min":14,"x_max":1017,"o":"m 765 244 l 265 244 l 160 0 l 14 0 l 454 989 l 575 989 l 1017 0 l 871 0 l 765 244 m 717 358 l 515 829 l 314 358 l 717 358 z "},"Á":{"ha":1029,"x_min":14,"x_max":1017,"o":"m 765 244 l 265 244 l 160 0 l 14 0 l 454 989 l 575 989 l 1017 0 l 871 0 l 765 244 m 717 358 l 515 829 l 314 358 l 717 358 m 468 1074 l 610 1288 l 754 1288 l 561 1074 l 468 1074 z "},"Ă":{"ha":1029,"x_min":14,"x_max":1017,"o":"m 765 244 l 265 244 l 160 0 l 14 0 l 454 989 l 575 989 l 1017 0 l 871 0 l 765 244 m 717 358 l 515 829 l 314 358 l 717 358 m 515 1089 q 372 1126 433 1089 q 281 1239 310 1163 l 358 1272 q 426 1202 388 1222 q 515 1182 464 1182 q 603 1202 565 1182 q 671 1272 642 1222 l 749 1239 q 658 1126 718 1163 q 515 1089 597 1089 z "},"Ắ":{"ha":1029,"x_min":14,"x_max":1017,"o":"m 765 244 l 265 244 l 160 0 l 14 0 l 454 989 l 575 989 l 1017 0 l 871 0 l 765 244 m 717 358 l 515 829 l 314 358 l 717 358 m 471 1219 l 610 1417 l 747 1417 l 558 1219 l 471 1219 m 515 1067 q 372 1103 433 1067 q 281 1217 310 1140 l 349 1246 q 515 1151 403 1151 q 681 1246 626 1151 l 749 1217 q 658 1103 718 1140 q 515 1067 597 1067 z "},"Ặ":{"ha":1029,"x_min":14,"x_max":1017,"o":"m 765 244 l 265 244 l 160 0 l 14 0 l 454 989 l 575 989 l 1017 0 l 871 0 l 765 244 m 717 358 l 515 829 l 314 358 l 717 358 m 589 -121 l 589 -262 l 440 -262 l 440 -121 l 589 -121 m 515 1089 q 372 1126 433 1089 q 281 1239 310 1163 l 358 1272 q 426 1202 388 1222 q 515 1182 464 1182 q 603 1202 565 1182 q 671 1272 642 1222 l 749 1239 q 658 1126 718 1163 q 515 1089 597 1089 z "},"Ằ":{"ha":1029,"x_min":14,"x_max":1017,"o":"m 765 244 l 265 244 l 160 0 l 14 0 l 454 989 l 575 989 l 1017 0 l 871 0 l 765 244 m 717 358 l 515 829 l 314 358 l 717 358 m 282 1417 l 419 1417 l 558 1219 l 471 1219 l 282 1417 m 515 1067 q 372 1103 433 1067 q 281 1217 311 1140 l 349 1246 q 515 1151 403 1151 q 681 1246 626 1151 l 749 1217 q 658 1103 719 1140 q 515 1067 597 1067 z "},"Ẳ":{"ha":1029,"x_min":14,"x_max":1017,"o":"m 765 244 l 265 244 l 160 0 l 14 0 l 454 989 l 575 989 l 1017 0 l 871 0 l 765 244 m 717 358 l 515 829 l 314 358 l 717 358 m 557 1219 l 474 1219 l 474 1244 q 490 1283 474 1269 q 533 1306 506 1296 q 547 1312 536 1307 q 562 1321 557 1317 q 567 1331 567 1325 q 553 1348 567 1342 q 513 1354 539 1354 q 429 1339 475 1354 l 407 1400 q 526 1425 464 1425 q 629 1401 592 1425 q 667 1338 667 1376 q 650 1298 667 1311 q 603 1272 633 1285 q 569 1254 581 1263 q 557 1232 557 1246 l 557 1219 m 515 1067 q 372 1103 433 1067 q 281 1217 311 1140 l 349 1246 q 515 1151 403 1151 q 681 1246 626 1151 l 749 1217 q 658 1103 719 1140 q 515 1067 597 1067 z "},"Ẵ":{"ha":1029,"x_min":14,"x_max":1017,"o":"m 765 244 l 265 244 l 160 0 l 14 0 l 454 989 l 575 989 l 1017 0 l 871 0 l 765 244 m 717 358 l 515 829 l 314 358 l 717 358 m 283 1282 q 321 1386 283 1346 q 417 1426 358 1426 q 469 1417 444 1426 q 532 1390 494 1408 q 611 1363 585 1363 q 657 1379 640 1363 q 675 1422 674 1396 l 746 1422 q 708 1318 746 1358 q 613 1278 671 1278 q 558 1288 585 1278 q 497 1315 532 1297 q 455 1335 476 1326 q 418 1343 433 1343 q 372 1326 389 1343 q 354 1282 356 1308 l 283 1282 m 515 1067 q 372 1103 433 1067 q 281 1217 311 1140 l 349 1246 q 515 1151 403 1151 q 681 1246 626 1151 l 749 1217 q 658 1103 719 1140 q 515 1067 597 1067 z "},"Â":{"ha":1029,"x_min":14,"x_max":1017,"o":"m 765 244 l 265 244 l 160 0 l 14 0 l 454 989 l 575 989 l 1017 0 l 871 0 l 765 244 m 717 358 l 515 829 l 314 358 l 717 358 m 299 1074 l 471 1288 l 558 1288 l 731 1074 l 613 1074 l 515 1211 l 417 1074 l 299 1074 z "},"Ấ":{"ha":1029,"x_min":14,"x_max":1017,"o":"m 765 244 l 265 244 l 160 0 l 14 0 l 454 989 l 575 989 l 1017 0 l 871 0 l 765 244 m 717 358 l 515 829 l 314 358 l 717 358 m 636 1219 l 757 1417 l 892 1417 l 715 1219 l 636 1219 m 299 1074 l 471 1276 l 558 1276 l 731 1074 l 614 1074 l 515 1201 l 415 1074 l 299 1074 z "},"Ậ":{"ha":1029,"x_min":14,"x_max":1017,"o":"m 765 244 l 265 244 l 160 0 l 14 0 l 454 989 l 575 989 l 1017 0 l 871 0 l 765 244 m 717 358 l 515 829 l 314 358 l 717 358 m 589 -121 l 589 -262 l 440 -262 l 440 -121 l 589 -121 m 299 1074 l 471 1288 l 558 1288 l 731 1074 l 613 1074 l 515 1211 l 417 1074 l 299 1074 z "},"Ầ":{"ha":1029,"x_min":14,"x_max":1017,"o":"m 765 244 l 265 244 l 160 0 l 14 0 l 454 989 l 575 989 l 1017 0 l 871 0 l 765 244 m 717 358 l 515 829 l 314 358 l 717 358 m 536 1417 l 669 1417 l 775 1219 l 697 1219 l 536 1417 m 299 1074 l 471 1276 l 558 1276 l 731 1074 l 614 1074 l 515 1201 l 415 1074 l 299 1074 z "},"Ẩ":{"ha":1029,"x_min":14,"x_max":1017,"o":"m 765 244 l 265 244 l 160 0 l 14 0 l 454 989 l 575 989 l 1017 0 l 871 0 l 765 244 m 717 358 l 515 829 l 314 358 l 717 358 m 719 1219 l 635 1219 l 635 1244 q 651 1283 635 1269 q 696 1306 668 1296 q 709 1312 699 1307 q 724 1321 719 1317 q 729 1331 729 1325 q 715 1348 729 1342 q 675 1354 701 1354 q 592 1339 636 1354 l 569 1400 q 689 1425 626 1425 q 792 1401 754 1425 q 831 1338 831 1376 q 814 1298 831 1311 q 767 1272 797 1285 q 731 1254 743 1263 q 719 1232 719 1246 l 719 1219 m 299 1074 l 471 1276 l 558 1276 l 731 1074 l 614 1074 l 515 1201 l 415 1074 l 299 1074 z "},"Ẫ":{"ha":1029,"x_min":14,"x_max":1017,"o":"m 765 244 l 265 244 l 160 0 l 14 0 l 454 989 l 575 989 l 1017 0 l 871 0 l 765 244 m 717 358 l 515 829 l 314 358 l 717 358 m 283 1297 q 321 1398 283 1358 q 417 1438 358 1438 q 471 1429 444 1438 q 532 1406 497 1421 q 574 1389 553 1396 q 611 1382 596 1382 q 657 1399 640 1382 q 675 1439 674 1415 l 746 1439 q 708 1338 746 1378 q 613 1299 671 1299 q 558 1307 585 1299 q 497 1331 532 1315 q 418 1356 444 1356 q 372 1339 389 1356 q 354 1297 356 1322 l 283 1297 m 299 1074 l 471 1276 l 558 1276 l 731 1074 l 614 1074 l 515 1201 l 415 1074 l 299 1074 z "},"Ȁ":{"ha":1029,"x_min":14,"x_max":1017,"o":"m 765 244 l 265 244 l 160 0 l 14 0 l 454 989 l 575 989 l 1017 0 l 871 0 l 765 244 m 717 358 l 515 829 l 314 358 l 717 358 m 253 1288 l 363 1288 l 464 1074 l 390 1074 l 253 1288 m 428 1288 l 539 1288 l 639 1074 l 565 1074 l 428 1288 z "},"Ä":{"ha":1029,"x_min":14,"x_max":1017,"o":"m 765 244 l 265 244 l 160 0 l 14 0 l 454 989 l 575 989 l 1017 0 l 871 0 l 765 244 m 717 358 l 515 829 l 314 358 l 717 358 m 463 1250 l 463 1113 l 318 1113 l 318 1250 l 463 1250 m 711 1250 l 711 1113 l 567 1113 l 567 1250 l 711 1250 z "},"Ạ":{"ha":1029,"x_min":14,"x_max":1017,"o":"m 765 244 l 265 244 l 160 0 l 14 0 l 454 989 l 575 989 l 1017 0 l 871 0 l 765 244 m 717 358 l 515 829 l 314 358 l 717 358 m 589 -121 l 589 -262 l 440 -262 l 440 -121 l 589 -121 z "},"À":{"ha":1029,"x_min":14,"x_max":1017,"o":"m 765 244 l 265 244 l 160 0 l 14 0 l 454 989 l 575 989 l 1017 0 l 871 0 l 765 244 m 717 358 l 515 829 l 314 358 l 717 358 m 275 1288 l 419 1288 l 561 1074 l 468 1074 l 275 1288 z "},"Ả":{"ha":1029,"x_min":14,"x_max":1017,"o":"m 765 244 l 265 244 l 160 0 l 14 0 l 454 989 l 575 989 l 1017 0 l 871 0 l 765 244 m 717 358 l 515 829 l 314 358 l 717 358 m 557 1074 l 474 1074 l 474 1100 q 490 1138 474 1124 q 532 1165 506 1153 q 546 1172 535 1167 q 562 1183 557 1178 q 567 1196 567 1189 q 513 1222 567 1222 q 429 1206 474 1222 l 407 1269 q 526 1293 467 1293 q 628 1268 590 1293 q 667 1204 667 1243 q 650 1161 667 1176 q 603 1132 633 1146 q 567 1111 578 1119 q 557 1089 557 1103 l 557 1074 z "},"Ȃ":{"ha":1029,"x_min":14,"x_max":1017,"o":"m 765 244 l 265 244 l 160 0 l 14 0 l 454 989 l 575 989 l 1017 0 l 871 0 l 765 244 m 717 358 l 515 829 l 314 358 l 717 358 m 515 1274 q 658 1237 597 1274 q 749 1124 719 1200 l 671 1090 q 603 1160 642 1140 q 515 1181 565 1181 q 426 1160 464 1181 q 358 1090 388 1140 l 281 1124 q 372 1237 311 1200 q 515 1274 433 1274 z "},"Ā":{"ha":1029,"x_min":14,"x_max":1017,"o":"m 765 244 l 265 244 l 160 0 l 14 0 l 454 989 l 575 989 l 1017 0 l 871 0 l 765 244 m 717 358 l 515 829 l 314 358 l 717 358 m 301 1231 l 728 1231 l 728 1132 l 301 1132 l 301 1231 z "},"Ą":{"ha":1029,"x_min":14,"x_max":1051,"o":"m 1051 -242 q 926 -272 993 -272 q 805 -231 853 -272 q 757 -124 757 -189 q 783 -33 757 -74 q 857 32 808 7 l 765 244 l 265 244 l 160 0 l 14 0 l 454 989 l 575 989 l 1017 0 l 976 0 q 889 -29 919 0 q 858 -104 858 -58 q 883 -166 858 -144 q 949 -187 907 -187 q 1028 -167 986 -187 l 1051 -242 m 717 358 l 515 829 l 314 358 l 717 358 z "},"Å":{"ha":1029,"x_min":14,"x_max":1017,"o":"m 765 244 l 265 244 l 160 0 l 14 0 l 443 963 q 390 1014 410 982 q 371 1086 371 1046 q 413 1188 371 1146 q 515 1229 456 1229 q 618 1188 575 1229 q 661 1086 661 1146 q 641 1013 661 1046 q 586 963 621 981 l 1017 0 l 871 0 l 765 244 m 515 1154 q 467 1135 486 1154 q 449 1086 449 1115 q 467 1037 449 1057 q 515 1017 486 1017 q 562 1037 543 1017 q 581 1086 581 1057 q 562 1134 581 1114 q 515 1154 543 1154 m 717 358 l 515 829 l 314 358 l 717 358 z "},"Ǻ":{"ha":1029,"x_min":14,"x_max":1017,"o":"m 765 244 l 265 244 l 160 0 l 14 0 l 443 963 q 390 1014 410 982 q 371 1086 371 1046 q 413 1188 371 1146 q 515 1229 456 1229 q 588 1211 551 1229 l 692 1321 l 839 1321 l 643 1156 q 661 1086 661 1122 q 641 1013 661 1046 q 586 963 621 981 l 1017 0 l 871 0 l 765 244 m 515 1154 q 467 1135 486 1154 q 449 1086 449 1115 q 467 1037 449 1057 q 515 1017 486 1017 q 562 1037 543 1017 q 581 1086 581 1057 q 562 1134 581 1114 q 515 1154 543 1154 m 717 358 l 515 829 l 314 358 l 717 358 z "},"Ã":{"ha":1029,"x_min":14,"x_max":1017,"o":"m 765 244 l 265 244 l 160 0 l 14 0 l 454 989 l 575 989 l 1017 0 l 871 0 l 765 244 m 717 358 l 515 829 l 314 358 l 717 358 m 283 1097 q 320 1225 283 1181 q 417 1269 357 1269 q 470 1258 444 1269 q 532 1225 496 1247 q 580 1199 564 1207 q 611 1192 596 1192 q 657 1213 640 1192 q 675 1265 674 1233 l 746 1265 q 709 1138 746 1183 q 613 1093 672 1093 q 559 1104 585 1093 q 497 1138 533 1115 q 449 1163 465 1156 q 418 1171 433 1171 q 372 1150 389 1171 q 354 1097 356 1129 l 283 1097 z "},"Æ":{"ha":1394,"x_min":-14,"x_max":1331,"o":"m 829 872 l 857 561 l 1301 561 l 1301 444 l 867 444 l 894 117 l 1331 117 l 1331 0 l 772 0 l 751 244 l 286 244 l 142 0 l -14 0 l 593 989 l 1331 989 l 1331 872 l 829 872 m 700 872 l 660 872 l 354 358 l 743 358 l 700 872 z "},"Ǽ":{"ha":1394,"x_min":-14,"x_max":1331,"o":"m 829 872 l 857 561 l 1301 561 l 1301 444 l 867 444 l 894 117 l 1331 117 l 1331 0 l 772 0 l 751 244 l 286 244 l 142 0 l -14 0 l 593 989 l 1331 989 l 1331 872 l 829 872 m 700 872 l 660 872 l 354 358 l 743 358 l 700 872 m 654 1074 l 796 1288 l 940 1288 l 747 1074 l 654 1074 z "},"B":{"ha":951,"x_min":115,"x_max":878,"o":"m 697 510 q 831 424 783 486 q 878 269 878 361 q 790 71 878 142 q 543 0 701 0 l 115 0 l 115 989 l 529 989 q 767 921 682 989 q 853 731 853 853 q 812 594 853 651 q 697 510 771 536 m 257 560 l 507 560 q 714 719 714 560 q 507 874 714 874 l 257 874 l 257 560 m 529 115 q 688 155 638 115 q 738 278 738 194 q 687 403 738 363 q 529 444 636 444 l 257 444 l 257 115 l 529 115 z "},"C":{"ha":950,"x_min":81,"x_max":885,"o":"m 550 -11 q 301 51 407 -11 q 138 226 194 113 q 81 496 81 340 q 138 764 81 650 q 301 939 194 878 q 550 1000 407 1000 q 738 969 651 1000 q 885 878 825 938 l 835 772 q 698 855 765 829 q 551 881 631 881 q 313 781 397 881 q 229 496 229 681 q 313 209 229 310 q 551 108 397 108 q 698 134 631 108 q 835 217 765 160 l 885 111 q 738 20 825 51 q 550 -11 651 -11 z "},"Ć":{"ha":950,"x_min":81,"x_max":885,"o":"m 550 -11 q 301 51 407 -11 q 138 226 194 113 q 81 496 81 340 q 138 764 81 650 q 301 939 194 878 q 550 1000 407 1000 q 738 969 651 1000 q 885 878 825 938 l 835 772 q 698 855 765 829 q 551 881 631 881 q 313 781 397 881 q 229 496 229 681 q 313 209 229 310 q 551 108 397 108 q 698 134 631 108 q 835 217 765 160 l 885 111 q 738 20 825 51 q 550 -11 651 -11 m 497 1074 l 639 1288 l 783 1288 l 590 1074 l 497 1074 z "},"Č":{"ha":950,"x_min":81,"x_max":885,"o":"m 550 -11 q 301 51 407 -11 q 138 226 194 113 q 81 496 81 340 q 138 764 81 650 q 301 939 194 878 q 550 1000 407 1000 q 738 969 651 1000 q 885 878 825 938 l 835 772 q 698 855 765 829 q 551 881 631 881 q 313 781 397 881 q 229 496 229 681 q 313 209 229 310 q 551 108 397 108 q 698 134 631 108 q 835 217 765 160 l 885 111 q 738 20 825 51 q 550 -11 651 -11 m 760 1288 l 588 1074 l 500 1074 l 328 1288 l 446 1288 l 544 1150 l 642 1288 l 760 1288 z "},"Ç":{"ha":950,"x_min":81,"x_max":885,"o":"m 885 111 q 749 24 829 56 q 575 -11 669 -7 l 568 -60 q 597 -57 578 -57 q 676 -82 644 -57 q 707 -154 707 -107 q 662 -239 707 -206 q 538 -272 617 -272 q 472 -265 507 -272 q 411 -246 438 -258 l 429 -179 q 536 -199 481 -199 q 590 -187 571 -199 q 610 -154 610 -176 q 561 -119 610 -119 q 501 -131 535 -119 l 475 -107 l 486 -8 q 269 70 361 6 q 129 244 178 135 q 81 496 81 353 q 138 764 81 650 q 301 939 194 878 q 550 1000 407 1000 q 738 969 651 1000 q 885 878 825 938 l 835 772 q 698 855 765 829 q 551 881 631 881 q 313 781 397 881 q 229 496 229 681 q 313 209 229 310 q 551 108 397 108 q 698 134 631 108 q 835 217 765 160 l 885 111 z "},"Ḉ":{"ha":950,"x_min":81,"x_max":885,"o":"m 590 1074 l 497 1074 l 639 1288 l 783 1288 l 590 1074 m 885 111 q 749 24 829 56 q 575 -11 669 -7 l 568 -60 q 597 -57 578 -57 q 676 -82 644 -57 q 707 -154 707 -107 q 662 -239 707 -206 q 538 -272 617 -272 q 472 -265 507 -272 q 411 -246 438 -258 l 429 -179 q 536 -199 481 -199 q 590 -187 571 -199 q 610 -154 610 -176 q 561 -119 610 -119 q 501 -131 535 -119 l 475 -107 l 486 -8 q 269 70 361 6 q 129 244 178 135 q 81 496 81 353 q 138 764 81 650 q 301 939 194 878 q 550 1000 407 1000 q 738 969 651 1000 q 885 878 825 938 l 835 772 q 698 855 765 829 q 551 881 631 881 q 313 781 397 881 q 229 496 229 681 q 313 209 229 310 q 551 108 397 108 q 698 134 631 108 q 835 217 765 160 l 885 111 z "},"Ĉ":{"ha":950,"x_min":81,"x_max":885,"o":"m 550 -11 q 301 51 407 -11 q 138 226 194 113 q 81 496 81 340 q 138 764 81 650 q 301 939 194 878 q 550 1000 407 1000 q 738 969 651 1000 q 885 878 825 938 l 835 772 q 698 855 765 829 q 551 881 631 881 q 313 781 397 881 q 229 496 229 681 q 313 209 229 310 q 551 108 397 108 q 698 134 631 108 q 835 217 765 160 l 885 111 q 738 20 825 51 q 550 -11 651 -11 m 328 1074 l 500 1288 l 588 1288 l 760 1074 l 642 1074 l 544 1211 l 446 1074 l 328 1074 z "},"Ċ":{"ha":950,"x_min":81,"x_max":885,"o":"m 550 -11 q 301 51 407 -11 q 138 226 194 113 q 81 496 81 340 q 138 764 81 650 q 301 939 194 878 q 550 1000 407 1000 q 738 969 651 1000 q 885 878 825 938 l 835 772 q 698 855 765 829 q 551 881 631 881 q 313 781 397 881 q 229 496 229 681 q 313 209 229 310 q 551 108 397 108 q 698 134 631 108 q 835 217 765 160 l 885 111 q 738 20 825 51 q 550 -11 651 -11 m 625 1256 l 625 1107 l 463 1107 l 463 1256 l 625 1256 z "},"D":{"ha":1046,"x_min":115,"x_max":965,"o":"m 115 989 l 461 989 q 833 860 701 989 q 965 496 965 731 q 833 130 965 260 q 461 0 701 0 l 115 0 l 115 989 m 453 119 q 818 496 818 119 q 453 869 818 869 l 258 869 l 258 119 l 453 119 z "},"Ǆ":{"ha":1860,"x_min":115,"x_max":1810,"o":"m 115 989 l 461 989 q 833 860 701 989 q 965 496 965 731 q 833 130 965 260 q 461 0 701 0 l 115 0 l 115 989 m 453 119 q 818 496 818 119 q 453 869 818 869 l 258 869 l 258 119 l 453 119 m 1810 118 l 1810 0 l 1090 0 l 1090 106 l 1631 871 l 1090 871 l 1090 989 l 1794 989 l 1794 885 l 1253 118 l 1810 118 m 1658 1288 l 1486 1074 l 1399 1074 l 1226 1288 l 1344 1288 l 1443 1150 l 1540 1288 l 1658 1288 z "},"Ð":{"ha":1071,"x_min":14,"x_max":990,"o":"m 488 989 q 858 860 726 989 q 990 496 990 731 q 858 130 990 260 q 488 0 726 0 l 140 0 l 140 444 l 14 444 l 14 557 l 140 557 l 140 989 l 488 989 m 479 119 q 843 496 843 119 q 479 869 843 869 l 285 869 l 285 557 l 551 557 l 551 444 l 285 444 l 285 119 l 479 119 z "},"Ď":{"ha":1046,"x_min":115,"x_max":965,"o":"m 115 989 l 461 989 q 833 860 701 989 q 965 496 965 731 q 833 130 965 260 q 461 0 701 0 l 115 0 l 115 989 m 453 119 q 818 496 818 119 q 453 869 818 869 l 258 869 l 258 119 l 453 119 m 738 1288 l 565 1074 l 478 1074 l 306 1288 l 424 1288 l 522 1150 l 619 1288 l 738 1288 z "},"Đ":{"ha":1071,"x_min":14,"x_max":990,"o":"m 488 989 q 858 860 726 989 q 990 496 990 731 q 858 130 990 260 q 488 0 726 0 l 140 0 l 140 444 l 14 444 l 14 557 l 140 557 l 140 989 l 488 989 m 479 119 q 843 496 843 119 q 479 869 843 869 l 285 869 l 285 557 l 551 557 l 551 444 l 285 444 l 285 119 l 479 119 z "},"Ḍ":{"ha":1046,"x_min":115,"x_max":965,"o":"m 115 989 l 461 989 q 833 860 701 989 q 965 496 965 731 q 833 130 965 260 q 461 0 701 0 l 115 0 l 115 989 m 453 119 q 818 496 818 119 q 453 869 818 869 l 258 869 l 258 119 l 453 119 m 597 -121 l 597 -262 l 449 -262 l 449 -121 l 597 -121 z "},"Ḏ":{"ha":1046,"x_min":115,"x_max":965,"o":"m 115 989 l 461 989 q 833 860 701 989 q 965 496 965 731 q 833 130 965 260 q 461 0 701 0 l 115 0 l 115 989 m 453 119 q 818 496 818 119 q 453 869 818 869 l 258 869 l 258 119 l 453 119 m 310 -144 l 736 -144 l 736 -239 l 310 -239 l 310 -144 z "},"ǅ":{"ha":1771,"x_min":115,"x_max":1714,"o":"m 115 989 l 461 989 q 833 860 701 989 q 965 496 965 731 q 833 130 965 260 q 461 0 701 0 l 115 0 l 115 989 m 453 119 q 818 496 818 119 q 453 869 818 869 l 258 869 l 258 119 l 453 119 m 1714 108 l 1714 0 l 1115 0 l 1115 97 l 1529 592 l 1126 592 l 1126 700 l 1699 700 l 1699 601 l 1285 108 l 1714 108 m 1631 1075 l 1461 790 l 1368 790 l 1199 1075 l 1319 1075 l 1415 883 l 1510 1075 l 1631 1075 z "},"E":{"ha":821,"x_min":115,"x_max":757,"o":"m 115 989 l 757 989 l 757 872 l 257 872 l 257 561 l 729 561 l 729 444 l 257 444 l 257 117 l 757 117 l 757 0 l 115 0 l 115 989 z "},"É":{"ha":821,"x_min":115,"x_max":757,"o":"m 115 989 l 757 989 l 757 872 l 257 872 l 257 561 l 729 561 l 729 444 l 257 444 l 257 117 l 757 117 l 757 0 l 115 0 l 115 989 m 410 1074 l 551 1288 l 696 1288 l 503 1074 l 410 1074 z "},"Ĕ":{"ha":821,"x_min":115,"x_max":757,"o":"m 115 989 l 757 989 l 757 872 l 257 872 l 257 561 l 729 561 l 729 444 l 257 444 l 257 117 l 757 117 l 757 0 l 115 0 l 115 989 m 457 1089 q 313 1126 375 1089 q 222 1239 251 1163 l 300 1272 q 367 1202 329 1222 q 457 1182 406 1182 q 545 1202 507 1182 q 613 1272 583 1222 l 690 1239 q 599 1126 660 1163 q 457 1089 539 1089 z "},"Ě":{"ha":821,"x_min":115,"x_max":757,"o":"m 115 989 l 757 989 l 757 872 l 257 872 l 257 561 l 729 561 l 729 444 l 257 444 l 257 117 l 757 117 l 757 0 l 115 0 l 115 989 m 672 1288 l 500 1074 l 413 1074 l 240 1288 l 358 1288 l 457 1150 l 554 1288 l 672 1288 z "},"Ȩ":{"ha":821,"x_min":115,"x_max":757,"o":"m 257 872 l 257 561 l 729 561 l 729 444 l 257 444 l 257 117 l 757 117 l 757 0 l 489 0 l 481 -60 q 510 -57 490 -57 q 588 -82 557 -57 q 619 -154 619 -107 q 574 -239 619 -206 q 450 -272 529 -272 q 385 -265 419 -272 q 324 -246 350 -258 l 342 -179 q 449 -199 393 -199 q 503 -187 483 -199 q 522 -154 522 -176 q 474 -119 522 -119 q 414 -131 447 -119 l 388 -107 l 400 0 l 115 0 l 115 989 l 757 989 l 757 872 l 257 872 z "},"Ḝ":{"ha":821,"x_min":115,"x_max":757,"o":"m 457 1089 q 313 1126 375 1089 q 222 1239 251 1163 l 300 1272 q 367 1202 329 1222 q 457 1182 406 1182 q 545 1202 507 1182 q 613 1272 583 1222 l 690 1239 q 599 1126 660 1163 q 457 1089 539 1089 m 257 872 l 257 561 l 729 561 l 729 444 l 257 444 l 257 117 l 757 117 l 757 0 l 489 0 l 481 -60 q 510 -57 490 -57 q 588 -82 557 -57 q 619 -154 619 -107 q 574 -239 619 -206 q 450 -272 529 -272 q 385 -265 419 -272 q 324 -246 350 -258 l 342 -179 q 449 -199 393 -199 q 503 -187 483 -199 q 522 -154 522 -176 q 474 -119 522 -119 q 414 -131 447 -119 l 388 -107 l 400 0 l 115 0 l 115 989 l 757 989 l 757 872 l 257 872 z "},"Ê":{"ha":821,"x_min":115,"x_max":757,"o":"m 115 989 l 757 989 l 757 872 l 257 872 l 257 561 l 729 561 l 729 444 l 257 444 l 257 117 l 757 117 l 757 0 l 115 0 l 115 989 m 240 1074 l 413 1288 l 500 1288 l 672 1074 l 554 1074 l 457 1211 l 358 1074 l 240 1074 z "},"Ế":{"ha":821,"x_min":115,"x_max":833,"o":"m 115 989 l 757 989 l 757 872 l 257 872 l 257 561 l 729 561 l 729 444 l 257 444 l 257 117 l 757 117 l 757 0 l 115 0 l 115 989 m 578 1219 l 699 1417 l 833 1417 l 657 1219 l 578 1219 m 240 1074 l 413 1276 l 500 1276 l 672 1074 l 556 1074 l 457 1201 l 357 1074 l 240 1074 z "},"Ệ":{"ha":821,"x_min":115,"x_max":757,"o":"m 115 989 l 757 989 l 757 872 l 257 872 l 257 561 l 729 561 l 729 444 l 257 444 l 257 117 l 757 117 l 757 0 l 115 0 l 115 989 m 531 -121 l 531 -262 l 382 -262 l 382 -121 l 531 -121 m 240 1074 l 413 1288 l 500 1288 l 672 1074 l 554 1074 l 457 1211 l 358 1074 l 240 1074 z "},"Ề":{"ha":821,"x_min":115,"x_max":757,"o":"m 115 989 l 757 989 l 757 872 l 257 872 l 257 561 l 729 561 l 729 444 l 257 444 l 257 117 l 757 117 l 757 0 l 115 0 l 115 989 m 478 1417 l 611 1417 l 717 1219 l 639 1219 l 478 1417 m 240 1074 l 413 1276 l 500 1276 l 672 1074 l 556 1074 l 457 1201 l 357 1074 l 240 1074 z "},"Ể":{"ha":821,"x_min":115,"x_max":772,"o":"m 115 989 l 757 989 l 757 872 l 257 872 l 257 561 l 729 561 l 729 444 l 257 444 l 257 117 l 757 117 l 757 0 l 115 0 l 115 989 m 661 1219 l 576 1219 l 576 1244 q 593 1283 576 1269 q 638 1306 610 1296 q 651 1312 640 1307 q 666 1321 661 1317 q 671 1331 671 1325 q 657 1348 671 1342 q 617 1354 643 1354 q 533 1339 578 1354 l 511 1400 q 631 1425 568 1425 q 734 1401 696 1425 q 772 1338 772 1376 q 756 1298 772 1311 q 708 1272 739 1285 q 673 1254 685 1263 q 661 1232 661 1246 l 661 1219 m 240 1074 l 413 1276 l 500 1276 l 672 1074 l 556 1074 l 457 1201 l 357 1074 l 240 1074 z "},"Ễ":{"ha":821,"x_min":115,"x_max":757,"o":"m 115 989 l 757 989 l 757 872 l 257 872 l 257 561 l 729 561 l 729 444 l 257 444 l 257 117 l 757 117 l 757 0 l 115 0 l 115 989 m 225 1297 q 263 1398 225 1358 q 358 1438 300 1438 q 413 1429 386 1438 q 474 1406 439 1421 q 516 1389 494 1396 q 553 1382 538 1382 q 599 1399 582 1382 q 617 1439 615 1415 l 688 1439 q 650 1338 688 1378 q 554 1299 613 1299 q 500 1307 526 1299 q 439 1331 474 1315 q 360 1356 386 1356 q 314 1339 331 1356 q 296 1297 297 1322 l 225 1297 m 240 1074 l 413 1276 l 500 1276 l 672 1074 l 556 1074 l 457 1201 l 357 1074 l 240 1074 z "},"Ȅ":{"ha":821,"x_min":115,"x_max":757,"o":"m 115 989 l 757 989 l 757 872 l 257 872 l 257 561 l 729 561 l 729 444 l 257 444 l 257 117 l 757 117 l 757 0 l 115 0 l 115 989 m 194 1288 l 304 1288 l 406 1074 l 332 1074 l 194 1288 m 369 1288 l 481 1288 l 581 1074 l 507 1074 l 369 1288 z "},"Ë":{"ha":821,"x_min":115,"x_max":757,"o":"m 115 989 l 757 989 l 757 872 l 257 872 l 257 561 l 729 561 l 729 444 l 257 444 l 257 117 l 757 117 l 757 0 l 115 0 l 115 989 m 404 1250 l 404 1113 l 260 1113 l 260 1250 l 404 1250 m 653 1250 l 653 1113 l 508 1113 l 508 1250 l 653 1250 z "},"Ė":{"ha":821,"x_min":115,"x_max":757,"o":"m 115 989 l 757 989 l 757 872 l 257 872 l 257 561 l 729 561 l 729 444 l 257 444 l 257 117 l 757 117 l 757 0 l 115 0 l 115 989 m 538 1256 l 538 1107 l 375 1107 l 375 1256 l 538 1256 z "},"Ẹ":{"ha":821,"x_min":115,"x_max":757,"o":"m 115 989 l 757 989 l 757 872 l 257 872 l 257 561 l 729 561 l 729 444 l 257 444 l 257 117 l 757 117 l 757 0 l 115 0 l 115 989 m 531 -121 l 531 -262 l 382 -262 l 382 -121 l 531 -121 z "},"È":{"ha":821,"x_min":115,"x_max":757,"o":"m 115 989 l 757 989 l 757 872 l 257 872 l 257 561 l 729 561 l 729 444 l 257 444 l 257 117 l 757 117 l 757 0 l 115 0 l 115 989 m 217 1288 l 361 1288 l 503 1074 l 410 1074 l 217 1288 z "},"Ẻ":{"ha":821,"x_min":115,"x_max":757,"o":"m 115 989 l 757 989 l 757 872 l 257 872 l 257 561 l 729 561 l 729 444 l 257 444 l 257 117 l 757 117 l 757 0 l 115 0 l 115 989 m 499 1074 l 415 1074 l 415 1100 q 431 1138 415 1124 q 474 1165 447 1153 q 488 1172 476 1167 q 503 1183 499 1178 q 508 1196 508 1189 q 454 1222 508 1222 q 371 1206 415 1222 l 349 1269 q 468 1293 408 1293 q 570 1268 532 1293 q 608 1204 608 1243 q 592 1161 608 1176 q 544 1132 575 1146 q 509 1111 519 1119 q 499 1089 499 1103 l 499 1074 z "},"Ȇ":{"ha":821,"x_min":115,"x_max":757,"o":"m 115 989 l 757 989 l 757 872 l 257 872 l 257 561 l 729 561 l 729 444 l 257 444 l 257 117 l 757 117 l 757 0 l 115 0 l 115 989 m 457 1274 q 600 1237 539 1274 q 690 1124 661 1200 l 613 1090 q 545 1160 583 1140 q 457 1181 507 1181 q 367 1160 406 1181 q 300 1090 329 1140 l 222 1124 q 314 1237 253 1200 q 457 1274 375 1274 z "},"Ē":{"ha":821,"x_min":115,"x_max":757,"o":"m 115 989 l 757 989 l 757 872 l 257 872 l 257 561 l 729 561 l 729 444 l 257 444 l 257 117 l 757 117 l 757 0 l 115 0 l 115 989 m 243 1231 l 669 1231 l 669 1132 l 243 1132 l 243 1231 z "},"Ḗ":{"ha":821,"x_min":115,"x_max":757,"o":"m 115 989 l 757 989 l 757 872 l 257 872 l 257 561 l 729 561 l 729 444 l 257 444 l 257 117 l 757 117 l 757 0 l 115 0 l 115 989 m 243 1231 l 669 1231 l 669 1132 l 243 1132 l 243 1231 m 410 1299 l 551 1513 l 696 1513 l 503 1299 l 410 1299 z "},"Ḕ":{"ha":821,"x_min":115,"x_max":757,"o":"m 115 989 l 757 989 l 757 872 l 257 872 l 257 561 l 729 561 l 729 444 l 257 444 l 257 117 l 757 117 l 757 0 l 115 0 l 115 989 m 243 1231 l 669 1231 l 669 1132 l 243 1132 l 243 1231 m 217 1513 l 361 1513 l 503 1299 l 410 1299 l 217 1513 z "},"Ę":{"ha":821,"x_min":115,"x_max":807,"o":"m 807 -242 q 681 -272 749 -272 q 559 -231 606 -272 q 513 -124 513 -189 q 568 0 513 -47 l 115 0 l 115 989 l 757 989 l 757 872 l 257 872 l 257 561 l 729 561 l 729 444 l 257 444 l 257 117 l 757 117 l 757 0 l 732 0 q 645 -28 676 0 q 614 -104 614 -57 q 638 -166 614 -144 q 704 -187 663 -187 q 783 -167 742 -187 l 807 -242 z "},"Ẽ":{"ha":821,"x_min":115,"x_max":757,"o":"m 115 989 l 757 989 l 757 872 l 257 872 l 257 561 l 729 561 l 729 444 l 257 444 l 257 117 l 757 117 l 757 0 l 115 0 l 115 989 m 225 1097 q 262 1225 225 1181 q 358 1269 299 1269 q 412 1258 386 1269 q 474 1225 438 1247 q 522 1199 506 1207 q 553 1192 538 1192 q 599 1213 582 1192 q 617 1265 615 1233 l 688 1265 q 651 1138 688 1183 q 554 1093 614 1093 q 501 1104 526 1093 q 439 1138 475 1115 q 391 1163 407 1156 q 360 1171 375 1171 q 314 1150 331 1171 q 296 1097 297 1129 l 225 1097 z "},"F":{"ha":788,"x_min":115,"x_max":743,"o":"m 115 989 l 743 989 l 743 871 l 257 871 l 257 561 l 715 561 l 715 443 l 257 443 l 257 0 l 115 0 l 115 989 z "},"G":{"ha":1021,"x_min":81,"x_max":917,"o":"m 917 525 l 917 58 q 759 8 854 26 q 565 -11 664 -11 q 306 49 415 -11 q 138 224 196 110 q 81 496 81 338 q 138 765 81 651 q 303 940 196 879 q 557 1000 411 1000 q 749 969 661 1000 q 900 879 838 938 l 849 772 q 710 856 778 831 q 558 881 642 881 q 313 782 397 881 q 229 496 229 683 q 315 203 229 303 q 569 104 401 104 q 786 138 682 104 l 786 415 l 556 415 l 556 525 l 917 525 z "},"Ğ":{"ha":1021,"x_min":81,"x_max":917,"o":"m 917 525 l 917 58 q 759 8 854 26 q 565 -11 664 -11 q 306 49 415 -11 q 138 224 196 110 q 81 496 81 338 q 138 765 81 651 q 303 940 196 879 q 557 1000 411 1000 q 749 969 661 1000 q 900 879 838 938 l 849 772 q 710 856 778 831 q 558 881 642 881 q 313 782 397 881 q 229 496 229 683 q 315 203 229 303 q 569 104 401 104 q 786 138 682 104 l 786 415 l 556 415 l 556 525 l 917 525 m 556 1089 q 412 1126 474 1089 q 321 1239 350 1163 l 399 1272 q 466 1202 428 1222 q 556 1182 504 1182 q 644 1202 606 1182 q 711 1272 682 1222 l 789 1239 q 698 1126 758 1163 q 556 1089 638 1089 z "},"Ǧ":{"ha":1021,"x_min":81,"x_max":917,"o":"m 917 525 l 917 58 q 759 8 854 26 q 565 -11 664 -11 q 306 49 415 -11 q 138 224 196 110 q 81 496 81 338 q 138 765 81 651 q 303 940 196 879 q 557 1000 411 1000 q 749 969 661 1000 q 900 879 838 938 l 849 772 q 710 856 778 831 q 558 881 642 881 q 313 782 397 881 q 229 496 229 683 q 315 203 229 303 q 569 104 401 104 q 786 138 682 104 l 786 415 l 556 415 l 556 525 l 917 525 m 771 1288 l 599 1074 l 511 1074 l 339 1288 l 457 1288 l 556 1150 l 653 1288 l 771 1288 z "},"Ĝ":{"ha":1021,"x_min":81,"x_max":917,"o":"m 917 525 l 917 58 q 759 8 854 26 q 565 -11 664 -11 q 306 49 415 -11 q 138 224 196 110 q 81 496 81 338 q 138 765 81 651 q 303 940 196 879 q 557 1000 411 1000 q 749 969 661 1000 q 900 879 838 938 l 849 772 q 710 856 778 831 q 558 881 642 881 q 313 782 397 881 q 229 496 229 683 q 315 203 229 303 q 569 104 401 104 q 786 138 682 104 l 786 415 l 556 415 l 556 525 l 917 525 m 339 1074 l 511 1288 l 599 1288 l 771 1074 l 653 1074 l 556 1211 l 457 1074 l 339 1074 z "},"Ģ":{"ha":1021,"x_min":81,"x_max":917,"o":"m 917 525 l 917 58 q 759 8 854 26 q 565 -11 664 -11 q 306 49 415 -11 q 138 224 196 110 q 81 496 81 338 q 138 765 81 651 q 303 940 196 879 q 557 1000 411 1000 q 749 969 661 1000 q 900 879 838 938 l 849 772 q 710 856 778 831 q 558 881 642 881 q 313 782 397 881 q 229 496 229 683 q 315 203 229 303 q 569 104 401 104 q 786 138 682 104 l 786 415 l 556 415 l 556 525 l 917 525 m 643 -99 l 643 -182 q 626 -285 643 -240 q 568 -369 610 -331 l 510 -328 q 546 -278 535 -301 q 560 -226 557 -254 l 486 -226 l 486 -99 l 643 -99 z "},"Ġ":{"ha":1021,"x_min":81,"x_max":917,"o":"m 917 525 l 917 58 q 759 8 854 26 q 565 -11 664 -11 q 306 49 415 -11 q 138 224 196 110 q 81 496 81 338 q 138 765 81 651 q 303 940 196 879 q 557 1000 411 1000 q 749 969 661 1000 q 900 879 838 938 l 849 772 q 710 856 778 831 q 558 881 642 881 q 313 782 397 881 q 229 496 229 683 q 315 203 229 303 q 569 104 401 104 q 786 138 682 104 l 786 415 l 556 415 l 556 525 l 917 525 m 636 1256 l 636 1107 l 474 1107 l 474 1256 l 636 1256 z "},"Ḡ":{"ha":1021,"x_min":81,"x_max":917,"o":"m 917 525 l 917 58 q 759 8 854 26 q 565 -11 664 -11 q 306 49 415 -11 q 138 224 196 110 q 81 496 81 338 q 138 765 81 651 q 303 940 196 879 q 557 1000 411 1000 q 749 969 661 1000 q 900 879 838 938 l 849 772 q 710 856 778 831 q 558 881 642 881 q 313 782 397 881 q 229 496 229 683 q 315 203 229 303 q 569 104 401 104 q 786 138 682 104 l 786 415 l 556 415 l 556 525 l 917 525 m 342 1231 l 768 1231 l 768 1132 l 342 1132 l 342 1231 z "},"H":{"ha":1069,"x_min":115,"x_max":954,"o":"m 954 989 l 954 0 l 811 0 l 811 443 l 257 443 l 257 0 l 115 0 l 115 989 l 257 989 l 257 561 l 811 561 l 811 989 l 954 989 z "},"Ħ":{"ha":1119,"x_min":14,"x_max":1106,"o":"m 1106 725 l 979 725 l 979 0 l 836 0 l 836 443 l 283 443 l 283 0 l 140 0 l 140 725 l 14 725 l 14 836 l 140 836 l 140 989 l 283 989 l 283 836 l 836 836 l 836 989 l 979 989 l 979 836 l 1106 836 l 1106 725 m 836 725 l 283 725 l 283 561 l 836 561 l 836 725 z "},"Ḫ":{"ha":1069,"x_min":115,"x_max":954,"o":"m 954 989 l 954 0 l 811 0 l 811 443 l 257 443 l 257 0 l 115 0 l 115 989 l 257 989 l 257 561 l 811 561 l 811 989 l 954 989 m 535 -301 q 388 -256 453 -301 q 294 -118 324 -211 l 374 -85 q 444 -177 404 -149 q 535 -206 485 -206 q 624 -177 583 -206 q 694 -85 664 -149 l 774 -118 q 681 -256 746 -211 q 535 -301 617 -301 z "},"Ĥ":{"ha":1069,"x_min":115,"x_max":954,"o":"m 954 989 l 954 0 l 811 0 l 811 443 l 257 443 l 257 0 l 115 0 l 115 989 l 257 989 l 257 561 l 811 561 l 811 989 l 954 989 m 318 1074 l 490 1288 l 578 1288 l 750 1074 l 632 1074 l 535 1211 l 436 1074 l 318 1074 z "},"Ḥ":{"ha":1069,"x_min":115,"x_max":954,"o":"m 954 989 l 954 0 l 811 0 l 811 443 l 257 443 l 257 0 l 115 0 l 115 989 l 257 989 l 257 561 l 811 561 l 811 989 l 954 989 m 608 -121 l 608 -262 l 460 -262 l 460 -121 l 608 -121 z "},"I":{"ha":374,"x_min":115,"x_max":258,"o":"m 115 989 l 258 989 l 258 0 l 115 0 l 115 989 z "},"Í":{"ha":374,"x_min":115,"x_max":425,"o":"m 115 989 l 258 989 l 258 0 l 115 0 l 115 989 m 139 1074 l 281 1288 l 425 1288 l 232 1074 l 139 1074 z "},"Ĭ":{"ha":374,"x_min":-49,"x_max":419,"o":"m 115 989 l 258 989 l 258 0 l 115 0 l 115 989 m 186 1089 q 42 1126 104 1089 q -49 1239 -19 1163 l 29 1272 q 97 1202 58 1222 q 186 1182 135 1182 q 274 1202 236 1182 q 342 1272 313 1222 l 419 1239 q 328 1126 389 1163 q 186 1089 268 1089 z "},"Î":{"ha":374,"x_min":-31,"x_max":401,"o":"m 115 989 l 258 989 l 258 0 l 115 0 l 115 989 m -31 1074 l 142 1288 l 229 1288 l 401 1074 l 283 1074 l 186 1211 l 88 1074 l -31 1074 z "},"Ȉ":{"ha":374,"x_min":-76,"x_max":310,"o":"m 115 989 l 258 989 l 258 0 l 115 0 l 115 989 m -76 1288 l 33 1288 l 135 1074 l 61 1074 l -76 1288 m 99 1288 l 210 1288 l 310 1074 l 236 1074 l 99 1288 z "},"Ï":{"ha":374,"x_min":-11,"x_max":382,"o":"m 115 989 l 258 989 l 258 0 l 115 0 l 115 989 m 133 1250 l 133 1113 l -11 1113 l -11 1250 l 133 1250 m 382 1250 l 382 1113 l 238 1113 l 238 1250 l 382 1250 z "},"Ḯ":{"ha":374,"x_min":-11,"x_max":425,"o":"m 115 989 l 258 989 l 258 0 l 115 0 l 115 989 m 133 1250 l 133 1113 l -11 1113 l -11 1250 l 133 1250 m 382 1250 l 382 1113 l 238 1113 l 238 1250 l 382 1250 m 139 1299 l 281 1513 l 425 1513 l 232 1299 l 139 1299 z "},"İ":{"ha":374,"x_min":104,"x_max":267,"o":"m 115 989 l 258 989 l 258 0 l 115 0 l 115 989 m 267 1256 l 267 1107 l 104 1107 l 104 1256 l 267 1256 z "},"Ị":{"ha":374,"x_min":111,"x_max":260,"o":"m 115 989 l 258 989 l 258 0 l 115 0 l 115 989 m 260 -121 l 260 -262 l 111 -262 l 111 -121 l 260 -121 z "},"Ì":{"ha":374,"x_min":-54,"x_max":258,"o":"m 115 989 l 258 989 l 258 0 l 115 0 l 115 989 m -54 1288 l 90 1288 l 232 1074 l 139 1074 l -54 1288 z "},"Ỉ":{"ha":374,"x_min":78,"x_max":338,"o":"m 115 989 l 258 989 l 258 0 l 115 0 l 115 989 m 228 1074 l 144 1074 l 144 1100 q 160 1138 144 1124 q 203 1165 176 1153 q 217 1172 206 1167 q 233 1183 228 1178 q 238 1196 238 1189 q 183 1222 238 1222 q 100 1206 144 1222 l 78 1269 q 197 1293 138 1293 q 299 1268 261 1293 q 338 1204 338 1243 q 321 1161 338 1176 q 274 1132 304 1146 q 238 1111 249 1119 q 228 1089 228 1103 l 228 1074 z "},"Ȋ":{"ha":374,"x_min":-49,"x_max":419,"o":"m 115 989 l 258 989 l 258 0 l 115 0 l 115 989 m 186 1274 q 329 1237 268 1274 q 419 1124 390 1200 l 342 1090 q 274 1160 313 1140 q 186 1181 236 1181 q 97 1160 135 1181 q 29 1090 58 1140 l -49 1124 q 43 1237 -18 1200 q 186 1274 104 1274 z "},"Ī":{"ha":374,"x_min":-28,"x_max":399,"o":"m 115 989 l 258 989 l 258 0 l 115 0 l 115 989 m -28 1231 l 399 1231 l 399 1132 l -28 1132 l -28 1231 z "},"Į":{"ha":374,"x_min":22,"x_max":315,"o":"m 315 -242 q 190 -272 258 -272 q 69 -231 117 -272 q 22 -122 22 -189 q 46 -36 22 -75 q 115 28 69 3 l 115 989 l 258 989 l 258 0 l 246 0 q 157 -30 190 0 q 124 -104 124 -60 q 147 -166 124 -144 q 213 -187 171 -187 q 293 -167 250 -187 l 315 -242 z "},"Ĩ":{"ha":374,"x_min":-46,"x_max":417,"o":"m 115 989 l 258 989 l 258 0 l 115 0 l 115 989 m -46 1097 q -9 1225 -46 1181 q 88 1269 28 1269 q 141 1258 115 1269 q 203 1225 167 1247 q 251 1199 235 1207 q 282 1192 267 1192 q 328 1213 311 1192 q 346 1265 344 1233 l 417 1265 q 380 1138 417 1183 q 283 1093 343 1093 q 230 1104 256 1093 q 168 1138 204 1115 q 120 1163 136 1156 q 89 1171 104 1171 q 43 1150 60 1171 q 25 1097 26 1129 l -46 1097 z "},"J":{"ha":478,"x_min":-6,"x_max":363,"o":"m -6 -126 q 94 -136 49 -136 q 192 -100 165 -136 q 218 28 218 -64 l 218 989 l 363 989 l 363 26 q 307 -190 363 -122 q 121 -258 251 -258 q -6 -247 57 -258 l -6 -126 z "},"Ĵ":{"ha":478,"x_min":-6,"x_max":506,"o":"m -6 -126 q 94 -136 49 -136 q 192 -100 165 -136 q 218 28 218 -64 l 218 989 l 363 989 l 363 26 q 307 -190 363 -122 q 121 -258 251 -258 q -6 -247 57 -258 l -6 -126 m 74 1074 l 246 1288 l 333 1288 l 506 1074 l 388 1074 l 290 1211 l 192 1074 l 74 1074 z "},"K":{"ha":900,"x_min":115,"x_max":926,"o":"m 746 0 l 258 467 l 258 0 l 115 0 l 115 989 l 258 989 l 258 539 l 725 989 l 901 989 l 403 511 l 926 0 l 746 0 z "},"Ķ":{"ha":900,"x_min":115,"x_max":926,"o":"m 746 0 l 258 467 l 258 0 l 115 0 l 115 989 l 258 989 l 258 539 l 725 989 l 901 989 l 403 511 l 926 0 l 746 0 m 531 -99 l 531 -182 q 514 -285 531 -240 q 456 -369 497 -331 l 397 -328 q 433 -278 422 -301 q 447 -226 444 -254 l 374 -226 l 374 -99 l 531 -99 z "},"L":{"ha":767,"x_min":115,"x_max":739,"o":"m 115 989 l 258 989 l 258 119 l 739 119 l 739 0 l 115 0 l 115 989 z "},"Ǉ":{"ha":1149,"x_min":115,"x_max":1033,"o":"m 115 989 l 258 989 l 258 119 l 697 119 l 697 0 l 115 0 l 115 989 m 665 -126 q 765 -136 719 -136 q 863 -100 836 -136 q 889 28 889 -64 l 889 989 l 1033 989 l 1033 26 q 978 -190 1033 -122 q 792 -258 922 -258 q 665 -247 728 -258 l 665 -126 z "},"Ĺ":{"ha":767,"x_min":115,"x_max":739,"o":"m 115 989 l 258 989 l 258 119 l 739 119 l 739 0 l 115 0 l 115 989 m 139 1074 l 281 1288 l 425 1288 l 232 1074 l 139 1074 z "},"Ľ":{"ha":767,"x_min":115,"x_max":739,"o":"m 115 989 l 258 989 l 258 119 l 739 119 l 739 0 l 115 0 l 115 989 m 379 721 l 379 989 l 486 989 l 450 721 l 379 721 z "},"Ļ":{"ha":767,"x_min":115,"x_max":739,"o":"m 115 989 l 258 989 l 258 119 l 739 119 l 739 0 l 115 0 l 115 989 m 513 -99 l 513 -182 q 496 -285 513 -240 q 438 -369 479 -331 l 379 -328 q 415 -278 404 -301 q 429 -226 426 -254 l 356 -226 l 356 -99 l 513 -99 z "},"Ŀ":{"ha":767,"x_min":115,"x_max":739,"o":"m 115 989 l 258 989 l 258 119 l 739 119 l 739 0 l 115 0 l 115 989 m 590 571 l 590 419 l 424 419 l 424 571 l 590 571 z "},"Ḷ":{"ha":767,"x_min":115,"x_max":739,"o":"m 115 989 l 258 989 l 258 119 l 739 119 l 739 0 l 115 0 l 115 989 m 508 -121 l 508 -262 l 360 -262 l 360 -121 l 508 -121 z "},"ǈ":{"ha":1111,"x_min":115,"x_max":1019,"o":"m 115 989 l 258 989 l 258 119 l 739 119 l 739 0 l 115 0 l 115 989 m 686 -178 q 754 -189 725 -189 q 869 -57 869 -189 l 869 700 l 1008 700 l 1008 -68 q 950 -246 1008 -185 q 786 -307 892 -307 q 686 -293 732 -307 l 686 -178 m 1019 1006 l 1019 858 l 857 858 l 857 1006 l 1019 1006 z "},"Ḻ":{"ha":767,"x_min":115,"x_max":739,"o":"m 115 989 l 258 989 l 258 119 l 739 119 l 739 0 l 115 0 l 115 989 m 221 -144 l 647 -144 l 647 -239 l 221 -239 l 221 -144 z "},"Ł":{"ha":792,"x_min":13,"x_max":765,"o":"m 765 119 l 765 0 l 140 0 l 140 394 l 13 321 l 13 450 l 140 524 l 140 989 l 285 989 l 285 607 l 546 757 l 546 628 l 285 478 l 285 119 l 765 119 z "},"M":{"ha":1179,"x_min":117,"x_max":1063,"o":"m 1063 989 l 1063 0 l 933 0 l 933 679 l 640 0 l 542 0 l 244 675 l 246 0 l 117 0 l 117 989 l 232 989 l 592 172 l 947 989 l 1063 989 z "},"Ṃ":{"ha":1179,"x_min":117,"x_max":1063,"o":"m 1063 989 l 1063 0 l 933 0 l 933 679 l 640 0 l 542 0 l 244 675 l 246 0 l 117 0 l 117 989 l 232 989 l 592 172 l 947 989 l 1063 989 m 663 -121 l 663 -262 l 514 -262 l 514 -121 l 663 -121 z "},"N":{"ha":1042,"x_min":115,"x_max":926,"o":"m 926 989 l 926 0 l 817 0 l 250 747 l 250 0 l 115 0 l 115 989 l 224 989 l 792 240 l 792 989 l 926 989 z "},"Ǌ":{"ha":1519,"x_min":115,"x_max":1404,"o":"m 926 989 l 926 0 l 817 0 l 250 747 l 250 0 l 115 0 l 115 989 l 224 989 l 792 240 l 792 989 l 926 989 m 1036 -126 q 1136 -136 1090 -136 q 1233 -100 1207 -136 q 1260 28 1260 -64 l 1260 989 l 1404 989 l 1404 26 q 1349 -190 1404 -122 q 1163 -258 1293 -258 q 1036 -247 1099 -258 l 1036 -126 z "},"Ń":{"ha":1042,"x_min":115,"x_max":926,"o":"m 926 989 l 926 0 l 817 0 l 250 747 l 250 0 l 115 0 l 115 989 l 224 989 l 792 240 l 792 989 l 926 989 m 474 1074 l 615 1288 l 760 1288 l 567 1074 l 474 1074 z "},"Ň":{"ha":1042,"x_min":115,"x_max":926,"o":"m 926 989 l 926 0 l 817 0 l 250 747 l 250 0 l 115 0 l 115 989 l 224 989 l 792 240 l 792 989 l 926 989 m 736 1288 l 564 1074 l 476 1074 l 304 1288 l 422 1288 l 521 1150 l 618 1288 l 736 1288 z "},"Ņ":{"ha":1042,"x_min":115,"x_max":926,"o":"m 926 989 l 926 0 l 817 0 l 250 747 l 250 0 l 115 0 l 115 989 l 224 989 l 792 240 l 792 989 l 926 989 m 600 -99 l 600 -182 q 583 -285 600 -240 q 525 -369 567 -331 l 467 -328 q 503 -278 492 -301 q 517 -226 514 -254 l 443 -226 l 443 -99 l 600 -99 z "},"Ṅ":{"ha":1042,"x_min":115,"x_max":926,"o":"m 926 989 l 926 0 l 817 0 l 250 747 l 250 0 l 115 0 l 115 989 l 224 989 l 792 240 l 792 989 l 926 989 m 601 1256 l 601 1107 l 439 1107 l 439 1256 l 601 1256 z "},"Ṇ":{"ha":1042,"x_min":115,"x_max":926,"o":"m 926 989 l 926 0 l 817 0 l 250 747 l 250 0 l 115 0 l 115 989 l 224 989 l 792 240 l 792 989 l 926 989 m 596 -121 l 596 -262 l 447 -262 l 447 -121 l 596 -121 z "},"Ŋ":{"ha":1042,"x_min":115,"x_max":926,"o":"m 926 989 l 926 13 q 667 -256 926 -239 l 564 -262 l 556 -149 l 644 -143 q 753 -100 715 -137 q 790 6 790 -62 l 790 35 l 250 747 l 250 0 l 115 0 l 115 989 l 224 989 l 792 240 l 792 989 l 926 989 z "},"ǋ":{"ha":1386,"x_min":115,"x_max":1294,"o":"m 926 989 l 926 0 l 817 0 l 250 747 l 250 0 l 115 0 l 115 989 l 224 989 l 792 240 l 792 989 l 926 989 m 961 -178 q 1029 -189 1000 -189 q 1144 -57 1144 -189 l 1144 700 l 1283 700 l 1283 -68 q 1225 -246 1283 -185 q 1061 -307 1167 -307 q 961 -293 1007 -307 l 961 -178 m 1294 1006 l 1294 858 l 1132 858 l 1132 1006 l 1294 1006 z "},"Ṉ":{"ha":1042,"x_min":115,"x_max":926,"o":"m 926 989 l 926 0 l 817 0 l 250 747 l 250 0 l 115 0 l 115 989 l 224 989 l 792 240 l 792 989 l 926 989 m 308 -144 l 735 -144 l 735 -239 l 308 -239 l 308 -144 z "},"Ñ":{"ha":1042,"x_min":115,"x_max":926,"o":"m 926 989 l 926 0 l 817 0 l 250 747 l 250 0 l 115 0 l 115 989 l 224 989 l 792 240 l 792 989 l 926 989 m 289 1097 q 326 1225 289 1181 q 422 1269 363 1269 q 476 1258 450 1269 q 538 1225 501 1247 q 585 1199 569 1207 q 617 1192 601 1192 q 663 1213 646 1192 q 681 1265 679 1233 l 751 1265 q 715 1138 751 1183 q 618 1093 678 1093 q 565 1104 590 1093 q 503 1138 539 1115 q 455 1163 471 1156 q 424 1171 439 1171 q 378 1150 394 1171 q 360 1097 361 1129 l 289 1097 z "},"O":{"ha":1082,"x_min":81,"x_max":1000,"o":"m 540 -11 q 297 51 400 -11 q 137 226 193 113 q 81 494 81 340 q 136 764 81 650 q 296 939 192 878 q 540 1000 400 1000 q 785 939 682 1000 q 944 764 889 878 q 1000 496 1000 650 q 944 226 1000 340 q 785 51 889 113 q 540 -11 681 -11 m 540 106 q 772 207 689 106 q 854 496 854 308 q 772 783 854 682 q 540 883 689 883 q 310 783 392 883 q 228 496 228 682 q 310 207 228 308 q 540 106 393 106 z "},"Ó":{"ha":1082,"x_min":81,"x_max":1000,"o":"m 540 -11 q 297 51 400 -11 q 137 226 193 113 q 81 494 81 340 q 136 764 81 650 q 296 939 192 878 q 540 1000 400 1000 q 785 939 682 1000 q 944 764 889 878 q 1000 496 1000 650 q 944 226 1000 340 q 785 51 889 113 q 540 -11 681 -11 m 540 106 q 772 207 689 106 q 854 496 854 308 q 772 783 854 682 q 540 883 689 883 q 310 783 392 883 q 228 496 228 682 q 310 207 228 308 q 540 106 393 106 m 493 1074 l 635 1288 l 779 1288 l 586 1074 l 493 1074 z "},"Ŏ":{"ha":1082,"x_min":81,"x_max":1000,"o":"m 540 -11 q 297 51 400 -11 q 137 226 193 113 q 81 494 81 340 q 136 764 81 650 q 296 939 192 878 q 540 1000 400 1000 q 785 939 682 1000 q 944 764 889 878 q 1000 496 1000 650 q 944 226 1000 340 q 785 51 889 113 q 540 -11 681 -11 m 540 106 q 772 207 689 106 q 854 496 854 308 q 772 783 854 682 q 540 883 689 883 q 310 783 392 883 q 228 496 228 682 q 310 207 228 308 q 540 106 393 106 m 540 1089 q 397 1126 458 1089 q 306 1239 335 1163 l 383 1272 q 451 1202 413 1222 q 540 1182 489 1182 q 628 1202 590 1182 q 696 1272 667 1222 l 774 1239 q 683 1126 743 1163 q 540 1089 622 1089 z "},"Ô":{"ha":1082,"x_min":81,"x_max":1000,"o":"m 540 -11 q 297 51 400 -11 q 137 226 193 113 q 81 494 81 340 q 136 764 81 650 q 296 939 192 878 q 540 1000 400 1000 q 785 939 682 1000 q 944 764 889 878 q 1000 496 1000 650 q 944 226 1000 340 q 785 51 889 113 q 540 -11 681 -11 m 540 106 q 772 207 689 106 q 854 496 854 308 q 772 783 854 682 q 540 883 689 883 q 310 783 392 883 q 228 496 228 682 q 310 207 228 308 q 540 106 393 106 m 324 1074 l 496 1288 l 583 1288 l 756 1074 l 638 1074 l 540 1211 l 442 1074 l 324 1074 z "},"Ố":{"ha":1082,"x_min":81,"x_max":1000,"o":"m 540 -11 q 297 51 400 -11 q 137 226 193 113 q 81 494 81 340 q 136 764 81 650 q 296 939 192 878 q 540 1000 400 1000 q 785 939 682 1000 q 944 764 889 878 q 1000 496 1000 650 q 944 226 1000 340 q 785 51 889 113 q 540 -11 681 -11 m 540 106 q 772 207 689 106 q 854 496 854 308 q 772 783 854 682 q 540 883 689 883 q 310 783 392 883 q 228 496 228 682 q 310 207 228 308 q 540 106 393 106 m 661 1219 l 782 1417 l 917 1417 l 740 1219 l 661 1219 m 324 1074 l 496 1276 l 583 1276 l 756 1074 l 639 1074 l 540 1201 l 440 1074 l 324 1074 z "},"Ộ":{"ha":1082,"x_min":81,"x_max":1000,"o":"m 540 -11 q 297 51 400 -11 q 137 226 193 113 q 81 494 81 340 q 136 764 81 650 q 296 939 192 878 q 540 1000 400 1000 q 785 939 682 1000 q 944 764 889 878 q 1000 496 1000 650 q 944 226 1000 340 q 785 51 889 113 q 540 -11 681 -11 m 540 106 q 772 207 689 106 q 854 496 854 308 q 772 783 854 682 q 540 883 689 883 q 310 783 392 883 q 228 496 228 682 q 310 207 228 308 q 540 106 393 106 m 614 -121 l 614 -262 l 465 -262 l 465 -121 l 614 -121 m 324 1074 l 496 1288 l 583 1288 l 756 1074 l 638 1074 l 540 1211 l 442 1074 l 324 1074 z "},"Ồ":{"ha":1082,"x_min":81,"x_max":1000,"o":"m 540 -11 q 297 51 400 -11 q 137 226 193 113 q 81 494 81 340 q 136 764 81 650 q 296 939 192 878 q 540 1000 400 1000 q 785 939 682 1000 q 944 764 889 878 q 1000 496 1000 650 q 944 226 1000 340 q 785 51 889 113 q 540 -11 681 -11 m 540 106 q 772 207 689 106 q 854 496 854 308 q 772 783 854 682 q 540 883 689 883 q 310 783 392 883 q 228 496 228 682 q 310 207 228 308 q 540 106 393 106 m 561 1417 l 694 1417 l 800 1219 l 722 1219 l 561 1417 m 324 1074 l 496 1276 l 583 1276 l 756 1074 l 639 1074 l 540 1201 l 440 1074 l 324 1074 z "},"Ổ":{"ha":1082,"x_min":81,"x_max":1000,"o":"m 540 -11 q 297 51 400 -11 q 137 226 193 113 q 81 494 81 340 q 136 764 81 650 q 296 939 192 878 q 540 1000 400 1000 q 785 939 682 1000 q 944 764 889 878 q 1000 496 1000 650 q 944 226 1000 340 q 785 51 889 113 q 540 -11 681 -11 m 540 106 q 772 207 689 106 q 854 496 854 308 q 772 783 854 682 q 540 883 689 883 q 310 783 392 883 q 228 496 228 682 q 310 207 228 308 q 540 106 393 106 m 744 1219 l 660 1219 l 660 1244 q 676 1283 660 1269 q 721 1306 693 1296 q 734 1312 724 1307 q 749 1321 744 1317 q 754 1331 754 1325 q 740 1348 754 1342 q 700 1354 726 1354 q 617 1339 661 1354 l 594 1400 q 714 1425 651 1425 q 817 1401 779 1425 q 856 1338 856 1376 q 839 1298 856 1311 q 792 1272 822 1285 q 756 1254 768 1263 q 744 1232 744 1246 l 744 1219 m 324 1074 l 496 1276 l 583 1276 l 756 1074 l 639 1074 l 540 1201 l 440 1074 l 324 1074 z "},"Ỗ":{"ha":1082,"x_min":81,"x_max":1000,"o":"m 540 -11 q 297 51 400 -11 q 137 226 193 113 q 81 494 81 340 q 136 764 81 650 q 296 939 192 878 q 540 1000 400 1000 q 785 939 682 1000 q 944 764 889 878 q 1000 496 1000 650 q 944 226 1000 340 q 785 51 889 113 q 540 -11 681 -11 m 540 106 q 772 207 689 106 q 854 496 854 308 q 772 783 854 682 q 540 883 689 883 q 310 783 392 883 q 228 496 228 682 q 310 207 228 308 q 540 106 393 106 m 308 1297 q 346 1398 308 1358 q 442 1438 383 1438 q 496 1429 469 1438 q 557 1406 522 1421 q 599 1389 578 1396 q 636 1382 621 1382 q 682 1399 665 1382 q 700 1439 699 1415 l 771 1439 q 733 1338 771 1378 q 638 1299 696 1299 q 583 1307 610 1299 q 522 1331 557 1315 q 443 1356 469 1356 q 397 1339 414 1356 q 379 1297 381 1322 l 308 1297 m 324 1074 l 496 1276 l 583 1276 l 756 1074 l 639 1074 l 540 1201 l 440 1074 l 324 1074 z "},"Ȍ":{"ha":1082,"x_min":81,"x_max":1000,"o":"m 540 -11 q 297 51 400 -11 q 137 226 193 113 q 81 494 81 340 q 136 764 81 650 q 296 939 192 878 q 540 1000 400 1000 q 785 939 682 1000 q 944 764 889 878 q 1000 496 1000 650 q 944 226 1000 340 q 785 51 889 113 q 540 -11 681 -11 m 540 106 q 772 207 689 106 q 854 496 854 308 q 772 783 854 682 q 540 883 689 883 q 310 783 392 883 q 228 496 228 682 q 310 207 228 308 q 540 106 393 106 m 278 1288 l 388 1288 l 489 1074 l 415 1074 l 278 1288 m 453 1288 l 564 1288 l 664 1074 l 590 1074 l 453 1288 z "},"Ö":{"ha":1082,"x_min":81,"x_max":1000,"o":"m 540 -11 q 297 51 400 -11 q 137 226 193 113 q 81 494 81 340 q 136 764 81 650 q 296 939 192 878 q 540 1000 400 1000 q 785 939 682 1000 q 944 764 889 878 q 1000 496 1000 650 q 944 226 1000 340 q 785 51 889 113 q 540 -11 681 -11 m 540 106 q 772 207 689 106 q 854 496 854 308 q 772 783 854 682 q 540 883 689 883 q 310 783 392 883 q 228 496 228 682 q 310 207 228 308 q 540 106 393 106 m 488 1250 l 488 1113 l 343 1113 l 343 1250 l 488 1250 m 736 1250 l 736 1113 l 592 1113 l 592 1250 l 736 1250 z "},"Ȫ":{"ha":1082,"x_min":81,"x_max":1000,"o":"m 540 -11 q 297 51 400 -11 q 137 226 193 113 q 81 494 81 340 q 136 764 81 650 q 296 939 192 878 q 540 1000 400 1000 q 785 939 682 1000 q 944 764 889 878 q 1000 496 1000 650 q 944 226 1000 340 q 785 51 889 113 q 540 -11 681 -11 m 540 106 q 772 207 689 106 q 854 496 854 308 q 772 783 854 682 q 540 883 689 883 q 310 783 392 883 q 228 496 228 682 q 310 207 228 308 q 540 106 393 106 m 488 1250 l 488 1113 l 343 1113 l 343 1250 l 488 1250 m 736 1250 l 736 1113 l 592 1113 l 592 1250 l 736 1250 m 326 1456 l 753 1456 l 753 1357 l 326 1357 l 326 1456 z "},"Ȱ":{"ha":1082,"x_min":81,"x_max":1000,"o":"m 540 -11 q 297 51 400 -11 q 137 226 193 113 q 81 494 81 340 q 136 764 81 650 q 296 939 192 878 q 540 1000 400 1000 q 785 939 682 1000 q 944 764 889 878 q 1000 496 1000 650 q 944 226 1000 340 q 785 51 889 113 q 540 -11 681 -11 m 540 106 q 772 207 689 106 q 854 496 854 308 q 772 783 854 682 q 540 883 689 883 q 310 783 392 883 q 228 496 228 682 q 310 207 228 308 q 540 106 393 106 m 621 1256 l 621 1107 l 458 1107 l 458 1256 l 621 1256 m 326 1456 l 753 1456 l 753 1357 l 326 1357 l 326 1456 z "},"Ọ":{"ha":1082,"x_min":81,"x_max":1000,"o":"m 540 -11 q 297 51 400 -11 q 137 226 193 113 q 81 494 81 340 q 136 764 81 650 q 296 939 192 878 q 540 1000 400 1000 q 785 939 682 1000 q 944 764 889 878 q 1000 496 1000 650 q 944 226 1000 340 q 785 51 889 113 q 540 -11 681 -11 m 540 106 q 772 207 689 106 q 854 496 854 308 q 772 783 854 682 q 540 883 689 883 q 310 783 392 883 q 228 496 228 682 q 310 207 228 308 q 540 106 393 106 m 614 -121 l 614 -262 l 465 -262 l 465 -121 l 614 -121 z "},"Ò":{"ha":1082,"x_min":81,"x_max":1000,"o":"m 540 -11 q 297 51 400 -11 q 137 226 193 113 q 81 494 81 340 q 136 764 81 650 q 296 939 192 878 q 540 1000 400 1000 q 785 939 682 1000 q 944 764 889 878 q 1000 496 1000 650 q 944 226 1000 340 q 785 51 889 113 q 540 -11 681 -11 m 540 106 q 772 207 689 106 q 854 496 854 308 q 772 783 854 682 q 540 883 689 883 q 310 783 392 883 q 228 496 228 682 q 310 207 228 308 q 540 106 393 106 m 300 1288 l 444 1288 l 586 1074 l 493 1074 l 300 1288 z "},"Ỏ":{"ha":1082,"x_min":81,"x_max":1000,"o":"m 540 -11 q 297 51 400 -11 q 137 226 193 113 q 81 494 81 340 q 136 764 81 650 q 296 939 192 878 q 540 1000 400 1000 q 785 939 682 1000 q 944 764 889 878 q 1000 496 1000 650 q 944 226 1000 340 q 785 51 889 113 q 540 -11 681 -11 m 540 106 q 772 207 689 106 q 854 496 854 308 q 772 783 854 682 q 540 883 689 883 q 310 783 392 883 q 228 496 228 682 q 310 207 228 308 q 540 106 393 106 m 582 1074 l 499 1074 l 499 1100 q 515 1138 499 1124 q 557 1165 531 1153 q 571 1172 560 1167 q 587 1183 582 1178 q 592 1196 592 1189 q 538 1222 592 1222 q 454 1206 499 1222 l 432 1269 q 551 1293 492 1293 q 653 1268 615 1293 q 692 1204 692 1243 q 675 1161 692 1176 q 628 1132 658 1146 q 592 1111 603 1119 q 582 1089 582 1103 l 582 1074 z "},"Ơ":{"ha":1082,"x_min":81,"x_max":1000,"o":"m 1000 1121 q 953 978 1000 1035 q 824 911 906 922 q 955 740 910 846 q 1000 496 1000 635 q 944 226 1000 340 q 785 51 889 113 q 540 -11 681 -11 q 297 51 400 -11 q 137 226 193 113 q 81 494 81 340 q 137 764 81 650 q 297 939 193 878 q 544 1000 401 1000 q 643 994 582 1000 q 731 989 704 989 q 843 1024 811 990 q 875 1140 875 1058 l 875 1163 l 1000 1163 l 1000 1121 m 540 106 q 772 207 689 106 q 854 496 854 308 q 772 783 854 682 q 540 883 689 883 q 310 783 392 883 q 228 496 228 682 q 310 207 228 308 q 540 106 393 106 z "},"Ớ":{"ha":1082,"x_min":81,"x_max":1000,"o":"m 1000 1121 q 953 978 1000 1035 q 824 911 906 922 q 955 740 910 846 q 1000 496 1000 635 q 944 226 1000 340 q 785 51 889 113 q 540 -11 681 -11 q 297 51 400 -11 q 137 226 193 113 q 81 494 81 340 q 137 764 81 650 q 297 939 193 878 q 544 1000 401 1000 q 643 994 582 1000 q 731 989 704 989 q 843 1024 811 990 q 875 1140 875 1058 l 875 1163 l 1000 1163 l 1000 1121 m 540 106 q 772 207 689 106 q 854 496 854 308 q 772 783 854 682 q 540 883 689 883 q 310 783 392 883 q 228 496 228 682 q 310 207 228 308 q 540 106 393 106 m 493 1074 l 635 1288 l 779 1288 l 586 1074 l 493 1074 z "},"Ợ":{"ha":1082,"x_min":81,"x_max":1000,"o":"m 1000 1121 q 953 978 1000 1035 q 824 911 906 922 q 955 740 910 846 q 1000 496 1000 635 q 944 226 1000 340 q 785 51 889 113 q 540 -11 681 -11 q 297 51 400 -11 q 137 226 193 113 q 81 494 81 340 q 137 764 81 650 q 297 939 193 878 q 544 1000 401 1000 q 643 994 582 1000 q 731 989 704 989 q 843 1024 811 990 q 875 1140 875 1058 l 875 1163 l 1000 1163 l 1000 1121 m 540 106 q 772 207 689 106 q 854 496 854 308 q 772 783 854 682 q 540 883 689 883 q 310 783 392 883 q 228 496 228 682 q 310 207 228 308 q 540 106 393 106 m 615 -121 l 615 -262 l 467 -262 l 467 -121 l 615 -121 z "},"Ờ":{"ha":1082,"x_min":81,"x_max":1000,"o":"m 1000 1121 q 953 978 1000 1035 q 824 911 906 922 q 955 740 910 846 q 1000 496 1000 635 q 944 226 1000 340 q 785 51 889 113 q 540 -11 681 -11 q 297 51 400 -11 q 137 226 193 113 q 81 494 81 340 q 137 764 81 650 q 297 939 193 878 q 544 1000 401 1000 q 643 994 582 1000 q 731 989 704 989 q 843 1024 811 990 q 875 1140 875 1058 l 875 1163 l 1000 1163 l 1000 1121 m 540 106 q 772 207 689 106 q 854 496 854 308 q 772 783 854 682 q 540 883 689 883 q 310 783 392 883 q 228 496 228 682 q 310 207 228 308 q 540 106 393 106 m 300 1288 l 444 1288 l 586 1074 l 493 1074 l 300 1288 z "},"Ở":{"ha":1082,"x_min":81,"x_max":1000,"o":"m 1000 1121 q 953 978 1000 1035 q 824 911 906 922 q 955 740 910 846 q 1000 496 1000 635 q 944 226 1000 340 q 785 51 889 113 q 540 -11 681 -11 q 297 51 400 -11 q 137 226 193 113 q 81 494 81 340 q 137 764 81 650 q 297 939 193 878 q 544 1000 401 1000 q 643 994 582 1000 q 731 989 704 989 q 843 1024 811 990 q 875 1140 875 1058 l 875 1163 l 1000 1163 l 1000 1121 m 540 106 q 772 207 689 106 q 854 496 854 308 q 772 783 854 682 q 540 883 689 883 q 310 783 392 883 q 228 496 228 682 q 310 207 228 308 q 540 106 393 106 m 582 1074 l 499 1074 l 499 1100 q 515 1138 499 1124 q 557 1165 531 1153 q 571 1172 560 1167 q 587 1183 582 1178 q 592 1196 592 1189 q 538 1222 592 1222 q 454 1206 499 1222 l 432 1269 q 551 1293 492 1293 q 653 1268 615 1293 q 692 1204 692 1243 q 675 1161 692 1176 q 628 1132 658 1146 q 592 1111 603 1119 q 582 1089 582 1103 l 582 1074 z "},"Ỡ":{"ha":1082,"x_min":81,"x_max":1000,"o":"m 1000 1121 q 953 978 1000 1035 q 824 911 906 922 q 955 740 910 846 q 1000 496 1000 635 q 944 226 1000 340 q 785 51 889 113 q 540 -11 681 -11 q 297 51 400 -11 q 137 226 193 113 q 81 494 81 340 q 137 764 81 650 q 297 939 193 878 q 544 1000 401 1000 q 643 994 582 1000 q 731 989 704 989 q 843 1024 811 990 q 875 1140 875 1058 l 875 1163 l 1000 1163 l 1000 1121 m 540 106 q 772 207 689 106 q 854 496 854 308 q 772 783 854 682 q 540 883 689 883 q 310 783 392 883 q 228 496 228 682 q 310 207 228 308 q 540 106 393 106 m 308 1097 q 345 1225 308 1181 q 442 1269 382 1269 q 495 1258 469 1269 q 557 1225 521 1247 q 605 1199 589 1207 q 636 1192 621 1192 q 682 1213 665 1192 q 700 1265 699 1233 l 771 1265 q 734 1138 771 1183 q 638 1093 697 1093 q 584 1104 610 1093 q 522 1138 558 1115 q 474 1163 490 1156 q 443 1171 458 1171 q 397 1150 414 1171 q 379 1097 381 1129 l 308 1097 z "},"Ő":{"ha":1082,"x_min":81,"x_max":1000,"o":"m 540 -11 q 297 51 400 -11 q 137 226 193 113 q 81 494 81 340 q 136 764 81 650 q 296 939 192 878 q 540 1000 400 1000 q 785 939 682 1000 q 944 764 889 878 q 1000 496 1000 650 q 944 226 1000 340 q 785 51 889 113 q 540 -11 681 -11 m 540 106 q 772 207 689 106 q 854 496 854 308 q 772 783 854 682 q 540 883 689 883 q 310 783 392 883 q 228 496 228 682 q 310 207 228 308 q 540 106 393 106 m 515 1288 l 626 1288 l 489 1074 l 415 1074 l 515 1288 m 692 1288 l 801 1288 l 664 1074 l 590 1074 l 692 1288 z "},"Ȏ":{"ha":1082,"x_min":81,"x_max":1000,"o":"m 540 -11 q 297 51 400 -11 q 137 226 193 113 q 81 494 81 340 q 136 764 81 650 q 296 939 192 878 q 540 1000 400 1000 q 785 939 682 1000 q 944 764 889 878 q 1000 496 1000 650 q 944 226 1000 340 q 785 51 889 113 q 540 -11 681 -11 m 540 106 q 772 207 689 106 q 854 496 854 308 q 772 783 854 682 q 540 883 689 883 q 310 783 392 883 q 228 496 228 682 q 310 207 228 308 q 540 106 393 106 m 540 1274 q 683 1237 622 1274 q 774 1124 744 1200 l 696 1090 q 628 1160 667 1140 q 540 1181 590 1181 q 451 1160 489 1181 q 383 1090 413 1140 l 306 1124 q 397 1237 336 1200 q 540 1274 458 1274 z "},"Ō":{"ha":1082,"x_min":81,"x_max":1000,"o":"m 540 -11 q 297 51 400 -11 q 137 226 193 113 q 81 494 81 340 q 136 764 81 650 q 296 939 192 878 q 540 1000 400 1000 q 785 939 682 1000 q 944 764 889 878 q 1000 496 1000 650 q 944 226 1000 340 q 785 51 889 113 q 540 -11 681 -11 m 540 106 q 772 207 689 106 q 854 496 854 308 q 772 783 854 682 q 540 883 689 883 q 310 783 392 883 q 228 496 228 682 q 310 207 228 308 q 540 106 393 106 m 326 1231 l 753 1231 l 753 1132 l 326 1132 l 326 1231 z "},"Ṓ":{"ha":1082,"x_min":81,"x_max":1000,"o":"m 540 -11 q 297 51 400 -11 q 137 226 193 113 q 81 494 81 340 q 136 764 81 650 q 296 939 192 878 q 540 1000 400 1000 q 785 939 682 1000 q 944 764 889 878 q 1000 496 1000 650 q 944 226 1000 340 q 785 51 889 113 q 540 -11 681 -11 m 540 106 q 772 207 689 106 q 854 496 854 308 q 772 783 854 682 q 540 883 689 883 q 310 783 392 883 q 228 496 228 682 q 310 207 228 308 q 540 106 393 106 m 326 1231 l 753 1231 l 753 1132 l 326 1132 l 326 1231 m 493 1299 l 635 1513 l 779 1513 l 586 1299 l 493 1299 z "},"Ṑ":{"ha":1082,"x_min":81,"x_max":1000,"o":"m 540 -11 q 297 51 400 -11 q 137 226 193 113 q 81 494 81 340 q 136 764 81 650 q 296 939 192 878 q 540 1000 400 1000 q 785 939 682 1000 q 944 764 889 878 q 1000 496 1000 650 q 944 226 1000 340 q 785 51 889 113 q 540 -11 681 -11 m 540 106 q 772 207 689 106 q 854 496 854 308 q 772 783 854 682 q 540 883 689 883 q 310 783 392 883 q 228 496 228 682 q 310 207 228 308 q 540 106 393 106 m 326 1231 l 753 1231 l 753 1132 l 326 1132 l 326 1231 m 300 1513 l 444 1513 l 586 1299 l 493 1299 l 300 1513 z "},"Ǫ":{"ha":1082,"x_min":81,"x_max":1000,"o":"m 681 6 q 582 -104 582 -24 q 606 -165 582 -143 q 672 -187 629 -187 q 751 -167 703 -187 l 774 -242 q 649 -272 719 -272 q 526 -231 574 -272 q 479 -124 479 -189 q 524 -11 479 -60 q 289 54 389 -8 q 135 230 189 117 q 81 494 81 343 q 136 764 81 650 q 296 939 192 878 q 540 1000 400 1000 q 785 939 681 1000 q 944 764 889 878 q 1000 496 1000 650 q 917 177 1000 304 q 681 6 833 50 m 540 106 q 772 207 689 106 q 854 496 854 308 q 772 783 854 682 q 540 883 689 883 q 310 783 392 883 q 228 496 228 682 q 310 207 228 308 q 540 106 393 106 z "},"Ø":{"ha":1082,"x_min":81,"x_max":1000,"o":"m 840 900 q 959 731 918 833 q 1000 496 1000 628 q 944 226 1000 340 q 785 51 889 113 q 540 -11 681 -11 q 335 31 424 -11 l 274 -74 l 178 -17 l 240 90 q 122 260 164 157 q 81 494 81 363 q 136 764 81 650 q 296 939 192 878 q 540 1000 400 1000 q 746 958 657 1000 l 807 1063 l 903 1006 l 840 900 m 228 496 q 308 208 228 313 l 685 853 q 540 883 619 883 q 310 783 392 883 q 228 496 228 682 m 540 106 q 772 207 689 106 q 854 496 854 308 q 772 782 854 681 l 396 138 q 540 106 460 106 z "},"Ǿ":{"ha":1082,"x_min":81,"x_max":1000,"o":"m 840 900 q 959 731 918 833 q 1000 496 1000 628 q 944 226 1000 340 q 785 51 889 113 q 540 -11 681 -11 q 335 31 424 -11 l 274 -74 l 178 -17 l 240 90 q 122 260 164 157 q 81 494 81 363 q 136 764 81 650 q 296 939 192 878 q 540 1000 400 1000 q 746 958 657 1000 l 807 1063 l 903 1006 l 840 900 m 228 496 q 308 208 228 313 l 685 853 q 540 883 619 883 q 310 783 392 883 q 228 496 228 682 m 540 106 q 772 207 689 106 q 854 496 854 308 q 772 782 854 681 l 396 138 q 540 106 460 106 m 493 1074 l 635 1288 l 779 1288 l 586 1074 l 493 1074 z "},"Õ":{"ha":1082,"x_min":81,"x_max":1000,"o":"m 540 -11 q 297 51 400 -11 q 137 226 193 113 q 81 494 81 340 q 136 764 81 650 q 296 939 192 878 q 540 1000 400 1000 q 785 939 682 1000 q 944 764 889 878 q 1000 496 1000 650 q 944 226 1000 340 q 785 51 889 113 q 540 -11 681 -11 m 540 106 q 772 207 689 106 q 854 496 854 308 q 772 783 854 682 q 540 883 689 883 q 310 783 392 883 q 228 496 228 682 q 310 207 228 308 q 540 106 393 106 m 308 1097 q 345 1225 308 1181 q 442 1269 382 1269 q 495 1258 469 1269 q 557 1225 521 1247 q 605 1199 589 1207 q 636 1192 621 1192 q 682 1213 665 1192 q 700 1265 699 1233 l 771 1265 q 734 1138 771 1183 q 638 1093 697 1093 q 584 1104 610 1093 q 522 1138 558 1115 q 474 1163 490 1156 q 443 1171 458 1171 q 397 1150 414 1171 q 379 1097 381 1129 l 308 1097 z "},"Ṍ":{"ha":1082,"x_min":81,"x_max":1000,"o":"m 540 -11 q 297 51 400 -11 q 137 226 193 113 q 81 494 81 340 q 136 764 81 650 q 296 939 192 878 q 540 1000 400 1000 q 785 939 682 1000 q 944 764 889 878 q 1000 496 1000 650 q 944 226 1000 340 q 785 51 889 113 q 540 -11 681 -11 m 540 106 q 772 207 689 106 q 854 496 854 308 q 772 783 854 682 q 540 883 689 883 q 310 783 392 883 q 228 496 228 682 q 310 207 228 308 q 540 106 393 106 m 308 1097 q 345 1225 308 1181 q 442 1269 382 1269 q 495 1258 469 1269 q 557 1225 521 1247 q 605 1199 589 1207 q 636 1192 621 1192 q 682 1213 665 1192 q 700 1265 699 1233 l 771 1265 q 734 1138 771 1183 q 638 1093 697 1093 q 584 1104 610 1093 q 522 1138 558 1115 q 474 1163 490 1156 q 443 1171 458 1171 q 397 1150 414 1171 q 379 1097 381 1129 l 308 1097 m 493 1299 l 635 1513 l 779 1513 l 586 1299 l 493 1299 z "},"Ṏ":{"ha":1082,"x_min":81,"x_max":1000,"o":"m 540 -11 q 297 51 400 -11 q 137 226 193 113 q 81 494 81 340 q 136 764 81 650 q 296 939 192 878 q 540 1000 400 1000 q 785 939 682 1000 q 944 764 889 878 q 1000 496 1000 650 q 944 226 1000 340 q 785 51 889 113 q 540 -11 681 -11 m 540 106 q 772 207 689 106 q 854 496 854 308 q 772 783 854 682 q 540 883 689 883 q 310 783 392 883 q 228 496 228 682 q 310 207 228 308 q 540 106 393 106 m 308 1097 q 345 1225 308 1181 q 442 1269 382 1269 q 495 1258 469 1269 q 557 1225 521 1247 q 605 1199 589 1207 q 636 1192 621 1192 q 682 1213 665 1192 q 700 1265 699 1233 l 771 1265 q 734 1138 771 1183 q 638 1093 697 1093 q 584 1104 610 1093 q 522 1138 558 1115 q 474 1163 490 1156 q 443 1171 458 1171 q 397 1150 414 1171 q 379 1097 381 1129 l 308 1097 m 488 1475 l 488 1338 l 343 1338 l 343 1475 l 488 1475 m 736 1475 l 736 1338 l 592 1338 l 592 1475 l 736 1475 z "},"Ȭ":{"ha":1082,"x_min":81,"x_max":1000,"o":"m 540 -11 q 297 51 400 -11 q 137 226 193 113 q 81 494 81 340 q 136 764 81 650 q 296 939 192 878 q 540 1000 400 1000 q 785 939 682 1000 q 944 764 889 878 q 1000 496 1000 650 q 944 226 1000 340 q 785 51 889 113 q 540 -11 681 -11 m 540 106 q 772 207 689 106 q 854 496 854 308 q 772 783 854 682 q 540 883 689 883 q 310 783 392 883 q 228 496 228 682 q 310 207 228 308 q 540 106 393 106 m 308 1097 q 345 1225 308 1181 q 442 1269 382 1269 q 495 1258 469 1269 q 557 1225 521 1247 q 605 1199 589 1207 q 636 1192 621 1192 q 682 1213 665 1192 q 700 1265 699 1233 l 771 1265 q 734 1138 771 1183 q 638 1093 697 1093 q 584 1104 610 1093 q 522 1138 558 1115 q 474 1163 490 1156 q 443 1171 458 1171 q 397 1150 414 1171 q 379 1097 381 1129 l 308 1097 m 326 1456 l 753 1456 l 753 1357 l 326 1357 l 326 1456 z "},"Œ":{"ha":1467,"x_min":81,"x_max":1401,"o":"m 901 872 l 901 561 l 1374 561 l 1374 444 l 901 444 l 901 117 l 1401 117 l 1401 0 l 767 0 l 767 60 q 528 -11 675 -11 q 293 51 394 -11 q 136 228 192 114 q 81 494 81 343 q 136 760 81 646 q 292 938 192 875 q 528 1000 393 1000 q 767 931 674 1000 l 767 989 l 1401 989 l 1401 872 l 901 872 m 228 496 q 310 208 228 310 q 540 106 392 106 q 760 174 676 106 l 760 815 q 540 883 676 883 q 309 781 390 883 q 228 496 228 679 z "},"P":{"ha":914,"x_min":115,"x_max":856,"o":"m 115 989 l 526 989 q 769 913 682 989 q 856 707 856 838 q 767 501 856 576 q 526 425 679 425 l 258 425 l 258 0 l 115 0 l 115 989 m 510 539 q 665 582 613 539 q 717 707 717 625 q 665 831 717 788 q 510 874 613 874 l 258 874 l 258 539 l 510 539 z "},"Þ":{"ha":914,"x_min":115,"x_max":856,"o":"m 533 776 q 772 705 688 776 q 856 504 856 633 q 770 301 856 374 q 533 229 685 229 l 257 229 l 257 0 l 115 0 l 115 989 l 257 989 l 257 776 l 533 776 m 514 344 q 667 383 618 344 q 717 504 717 422 q 667 623 717 585 q 514 661 618 661 l 257 661 l 257 344 l 514 344 z "},"Q":{"ha":1082,"x_min":81,"x_max":1000,"o":"m 728 22 q 907 -182 786 -82 l 808 -265 q 689 -153 747 -221 q 586 -10 631 -85 q 540 -11 571 -11 q 297 51 400 -11 q 137 226 193 113 q 81 494 81 340 q 136 764 81 650 q 296 939 192 878 q 540 1000 400 1000 q 785 939 682 1000 q 944 764 889 878 q 1000 496 1000 650 q 928 197 1000 319 q 728 22 857 74 m 228 496 q 310 207 228 308 q 540 106 393 106 q 772 207 689 106 q 854 496 854 308 q 772 783 854 682 q 540 883 689 883 q 310 783 392 883 q 228 496 228 682 z "},"R":{"ha":968,"x_min":115,"x_max":908,"o":"m 908 0 l 757 0 l 633 329 q 576 402 614 382 q 474 422 539 422 l 257 422 l 257 0 l 115 0 l 115 989 l 522 989 q 772 917 685 989 q 858 710 858 844 q 807 544 858 613 q 661 449 756 476 q 786 326 747 433 l 908 0 m 506 538 q 667 580 614 538 q 719 707 719 622 q 667 833 719 792 q 506 874 615 874 l 257 874 l 257 538 l 506 538 z "},"Ŕ":{"ha":968,"x_min":115,"x_max":908,"o":"m 908 0 l 757 0 l 633 329 q 576 402 614 382 q 474 422 539 422 l 257 422 l 257 0 l 115 0 l 115 989 l 522 989 q 772 917 685 989 q 858 710 858 844 q 807 544 858 613 q 661 449 756 476 q 786 326 747 433 l 908 0 m 506 538 q 667 580 614 538 q 719 707 719 622 q 667 833 719 792 q 506 874 615 874 l 257 874 l 257 538 l 506 538 m 435 1074 l 576 1288 l 721 1288 l 528 1074 l 435 1074 z "},"Ř":{"ha":968,"x_min":115,"x_max":908,"o":"m 908 0 l 757 0 l 633 329 q 576 402 614 382 q 474 422 539 422 l 257 422 l 257 0 l 115 0 l 115 989 l 522 989 q 772 917 685 989 q 858 710 858 844 q 807 544 858 613 q 661 449 756 476 q 786 326 747 433 l 908 0 m 506 538 q 667 580 614 538 q 719 707 719 622 q 667 833 719 792 q 506 874 615 874 l 257 874 l 257 538 l 506 538 m 697 1288 l 525 1074 l 438 1074 l 265 1288 l 383 1288 l 482 1150 l 579 1288 l 697 1288 z "},"Ŗ":{"ha":968,"x_min":115,"x_max":908,"o":"m 908 0 l 757 0 l 633 329 q 576 402 614 382 q 474 422 539 422 l 257 422 l 257 0 l 115 0 l 115 989 l 522 989 q 772 917 685 989 q 858 710 858 844 q 807 544 858 613 q 661 449 756 476 q 786 326 747 433 l 908 0 m 506 538 q 667 580 614 538 q 719 707 719 622 q 667 833 719 792 q 506 874 615 874 l 257 874 l 257 538 l 506 538 m 561 -99 l 561 -182 q 544 -285 561 -240 q 486 -369 528 -331 l 428 -328 q 464 -278 453 -301 q 478 -226 475 -254 l 404 -226 l 404 -99 l 561 -99 z "},"Ȑ":{"ha":968,"x_min":115,"x_max":908,"o":"m 908 0 l 757 0 l 633 329 q 576 402 614 382 q 474 422 539 422 l 257 422 l 257 0 l 115 0 l 115 989 l 522 989 q 772 917 685 989 q 858 710 858 844 q 807 544 858 613 q 661 449 756 476 q 786 326 747 433 l 908 0 m 506 538 q 667 580 614 538 q 719 707 719 622 q 667 833 719 792 q 506 874 615 874 l 257 874 l 257 538 l 506 538 m 219 1288 l 329 1288 l 431 1074 l 357 1074 l 219 1288 m 394 1288 l 506 1288 l 606 1074 l 532 1074 l 394 1288 z "},"Ṛ":{"ha":968,"x_min":115,"x_max":908,"o":"m 908 0 l 757 0 l 633 329 q 576 402 614 382 q 474 422 539 422 l 257 422 l 257 0 l 115 0 l 115 989 l 522 989 q 772 917 685 989 q 858 710 858 844 q 807 544 858 613 q 661 449 756 476 q 786 326 747 433 l 908 0 m 506 538 q 667 580 614 538 q 719 707 719 622 q 667 833 719 792 q 506 874 615 874 l 257 874 l 257 538 l 506 538 m 557 -121 l 557 -262 l 408 -262 l 408 -121 l 557 -121 z "},"Ȓ":{"ha":968,"x_min":115,"x_max":908,"o":"m 908 0 l 757 0 l 633 329 q 576 402 614 382 q 474 422 539 422 l 257 422 l 257 0 l 115 0 l 115 989 l 522 989 q 772 917 685 989 q 858 710 858 844 q 807 544 858 613 q 661 449 756 476 q 786 326 747 433 l 908 0 m 506 538 q 667 580 614 538 q 719 707 719 622 q 667 833 719 792 q 506 874 615 874 l 257 874 l 257 538 l 506 538 m 482 1274 q 625 1237 564 1274 q 715 1124 686 1200 l 638 1090 q 570 1160 608 1140 q 482 1181 532 1181 q 392 1160 431 1181 q 325 1090 354 1140 l 247 1124 q 339 1237 278 1200 q 482 1274 400 1274 z "},"Ṟ":{"ha":968,"x_min":115,"x_max":908,"o":"m 908 0 l 757 0 l 633 329 q 576 402 614 382 q 474 422 539 422 l 257 422 l 257 0 l 115 0 l 115 989 l 522 989 q 772 917 685 989 q 858 710 858 844 q 807 544 858 613 q 661 449 756 476 q 786 326 747 433 l 908 0 m 506 538 q 667 580 614 538 q 719 707 719 622 q 667 833 719 792 q 506 874 615 874 l 257 874 l 257 538 l 506 538 m 269 -144 l 696 -144 l 696 -239 l 269 -239 l 269 -144 z "},"S":{"ha":879,"x_min":64,"x_max":817,"o":"m 439 -11 q 228 19 324 -11 q 64 111 133 50 l 115 217 q 265 132 188 158 q 440 106 343 106 q 613 147 551 106 q 674 265 674 189 q 617 362 674 329 q 436 422 560 394 q 243 480 318 447 q 125 567 168 513 q 82 708 82 622 q 128 860 82 794 q 258 963 174 926 q 451 1000 342 1000 q 647 968 556 1000 q 799 878 738 936 l 747 772 q 607 856 679 829 q 453 883 535 883 q 285 838 346 883 q 224 715 224 793 q 277 614 224 649 q 449 551 331 579 q 649 493 572 524 q 771 410 725 463 q 817 274 817 357 q 771 124 817 188 q 640 24 725 60 q 439 -11 554 -11 z "},"Ś":{"ha":879,"x_min":64,"x_max":817,"o":"m 439 -11 q 228 19 324 -11 q 64 111 133 50 l 115 217 q 265 132 188 158 q 440 106 343 106 q 613 147 551 106 q 674 265 674 189 q 617 362 674 329 q 436 422 560 394 q 243 480 318 447 q 125 567 168 513 q 82 708 82 622 q 128 860 82 794 q 258 963 174 926 q 451 1000 342 1000 q 647 968 556 1000 q 799 878 738 936 l 747 772 q 607 856 679 829 q 453 883 535 883 q 285 838 346 883 q 224 715 224 793 q 277 614 224 649 q 449 551 331 579 q 649 493 572 524 q 771 410 725 463 q 817 274 817 357 q 771 124 817 188 q 640 24 725 60 q 439 -11 554 -11 m 394 1074 l 536 1288 l 681 1288 l 488 1074 l 394 1074 z "},"Ṥ":{"ha":879,"x_min":64,"x_max":817,"o":"m 439 -11 q 228 19 324 -11 q 64 111 133 50 l 115 217 q 265 132 188 158 q 440 106 343 106 q 613 147 551 106 q 674 265 674 189 q 617 362 674 329 q 436 422 560 394 q 243 480 318 447 q 125 567 168 513 q 82 708 82 622 q 128 860 82 794 q 258 963 174 926 q 451 1000 342 1000 q 647 968 556 1000 q 799 878 738 936 l 747 772 q 607 856 679 829 q 453 883 535 883 q 285 838 346 883 q 224 715 224 793 q 277 614 224 649 q 449 551 331 579 q 649 493 572 524 q 771 410 725 463 q 817 274 817 357 q 771 124 817 188 q 640 24 725 60 q 439 -11 554 -11 m 413 1074 l 554 1288 l 699 1288 l 506 1074 l 413 1074 m 361 1286 l 361 1138 l 199 1138 l 199 1286 l 361 1286 z "},"Š":{"ha":879,"x_min":64,"x_max":817,"o":"m 439 -11 q 228 19 324 -11 q 64 111 133 50 l 115 217 q 265 132 188 158 q 440 106 343 106 q 613 147 551 106 q 674 265 674 189 q 617 362 674 329 q 436 422 560 394 q 243 480 318 447 q 125 567 168 513 q 82 708 82 622 q 128 860 82 794 q 258 963 174 926 q 451 1000 342 1000 q 647 968 556 1000 q 799 878 738 936 l 747 772 q 607 856 679 829 q 453 883 535 883 q 285 838 346 883 q 224 715 224 793 q 277 614 224 649 q 449 551 331 579 q 649 493 572 524 q 771 410 725 463 q 817 274 817 357 q 771 124 817 188 q 640 24 725 60 q 439 -11 554 -11 m 657 1288 l 485 1074 l 397 1074 l 225 1288 l 343 1288 l 442 1150 l 539 1288 l 657 1288 z "},"Ṧ":{"ha":879,"x_min":64,"x_max":817,"o":"m 439 -11 q 228 19 324 -11 q 64 111 133 50 l 115 217 q 265 132 188 158 q 440 106 343 106 q 613 147 551 106 q 674 265 674 189 q 617 362 674 329 q 436 422 560 394 q 243 480 318 447 q 125 567 168 513 q 82 708 82 622 q 128 860 82 794 q 258 963 174 926 q 451 1000 342 1000 q 647 968 556 1000 q 799 878 738 936 l 747 772 q 607 856 679 829 q 453 883 535 883 q 285 838 346 883 q 224 715 224 793 q 277 614 224 649 q 449 551 331 579 q 649 493 572 524 q 771 410 725 463 q 817 274 817 357 q 771 124 817 188 q 640 24 725 60 q 439 -11 554 -11 m 657 1288 l 485 1074 l 397 1074 l 225 1288 l 343 1288 l 442 1150 l 539 1288 l 657 1288 m 522 1481 l 522 1332 l 360 1332 l 360 1481 l 522 1481 z "},"Ş":{"ha":879,"x_min":64,"x_max":817,"o":"m 817 274 q 725 74 817 150 q 472 -10 633 -3 l 465 -60 q 494 -57 475 -57 q 573 -82 542 -57 q 604 -154 604 -107 q 559 -239 604 -206 q 435 -272 514 -272 q 369 -265 404 -272 q 308 -246 335 -258 l 326 -179 q 433 -199 378 -199 q 488 -187 468 -199 q 507 -154 507 -176 q 458 -119 507 -119 q 399 -131 432 -119 l 372 -107 l 383 -10 q 64 111 183 6 l 115 217 q 265 132 188 158 q 440 106 343 106 q 613 147 551 106 q 674 265 674 189 q 617 362 674 329 q 436 422 560 394 q 243 480 318 447 q 125 567 168 513 q 82 708 82 622 q 128 860 82 794 q 258 963 174 926 q 451 1000 342 1000 q 647 968 556 1000 q 799 878 738 936 l 747 772 q 607 856 679 829 q 453 883 535 883 q 285 838 346 883 q 224 715 224 793 q 277 614 224 649 q 449 551 331 579 q 649 493 572 524 q 771 410 725 463 q 817 274 817 357 z "},"Ŝ":{"ha":879,"x_min":64,"x_max":817,"o":"m 439 -11 q 228 19 324 -11 q 64 111 133 50 l 115 217 q 265 132 188 158 q 440 106 343 106 q 613 147 551 106 q 674 265 674 189 q 617 362 674 329 q 436 422 560 394 q 243 480 318 447 q 125 567 168 513 q 82 708 82 622 q 128 860 82 794 q 258 963 174 926 q 451 1000 342 1000 q 647 968 556 1000 q 799 878 738 936 l 747 772 q 607 856 679 829 q 453 883 535 883 q 285 838 346 883 q 224 715 224 793 q 277 614 224 649 q 449 551 331 579 q 649 493 572 524 q 771 410 725 463 q 817 274 817 357 q 771 124 817 188 q 640 24 725 60 q 439 -11 554 -11 m 225 1074 l 397 1288 l 485 1288 l 657 1074 l 539 1074 l 442 1211 l 343 1074 l 225 1074 z "},"Ș":{"ha":879,"x_min":64,"x_max":817,"o":"m 439 -11 q 228 19 324 -11 q 64 111 133 50 l 115 217 q 265 132 188 158 q 440 106 343 106 q 613 147 551 106 q 674 265 674 189 q 617 362 674 329 q 436 422 560 394 q 243 480 318 447 q 125 567 168 513 q 82 708 82 622 q 128 860 82 794 q 258 963 174 926 q 451 1000 342 1000 q 647 968 556 1000 q 799 878 738 936 l 747 772 q 607 856 679 829 q 453 883 535 883 q 285 838 346 883 q 224 715 224 793 q 277 614 224 649 q 449 551 331 579 q 649 493 572 524 q 771 410 725 463 q 817 274 817 357 q 771 124 817 188 q 640 24 725 60 q 439 -11 554 -11 m 519 -99 l 519 -182 q 503 -285 519 -240 q 444 -369 486 -331 l 386 -328 q 422 -278 411 -301 q 436 -226 433 -254 l 363 -226 l 363 -99 l 519 -99 z "},"Ṡ":{"ha":879,"x_min":64,"x_max":817,"o":"m 439 -11 q 228 19 324 -11 q 64 111 133 50 l 115 217 q 265 132 188 158 q 440 106 343 106 q 613 147 551 106 q 674 265 674 189 q 617 362 674 329 q 436 422 560 394 q 243 480 318 447 q 125 567 168 513 q 82 708 82 622 q 128 860 82 794 q 258 963 174 926 q 451 1000 342 1000 q 647 968 556 1000 q 799 878 738 936 l 747 772 q 607 856 679 829 q 453 883 535 883 q 285 838 346 883 q 224 715 224 793 q 277 614 224 649 q 449 551 331 579 q 649 493 572 524 q 771 410 725 463 q 817 274 817 357 q 771 124 817 188 q 640 24 725 60 q 439 -11 554 -11 m 522 1256 l 522 1107 l 360 1107 l 360 1256 l 522 1256 z "},"Ṣ":{"ha":879,"x_min":64,"x_max":817,"o":"m 439 -11 q 228 19 324 -11 q 64 111 133 50 l 115 217 q 265 132 188 158 q 440 106 343 106 q 613 147 551 106 q 674 265 674 189 q 617 362 674 329 q 436 422 560 394 q 243 480 318 447 q 125 567 168 513 q 82 708 82 622 q 128 860 82 794 q 258 963 174 926 q 451 1000 342 1000 q 647 968 556 1000 q 799 878 738 936 l 747 772 q 607 856 679 829 q 453 883 535 883 q 285 838 346 883 q 224 715 224 793 q 277 614 224 649 q 449 551 331 579 q 649 493 572 524 q 771 410 725 463 q 817 274 817 357 q 771 124 817 188 q 640 24 725 60 q 439 -11 554 -11 m 515 -121 l 515 -262 l 367 -262 l 367 -121 l 515 -121 z "},"Ṩ":{"ha":879,"x_min":64,"x_max":817,"o":"m 439 -11 q 228 19 324 -11 q 64 111 133 50 l 115 217 q 265 132 188 158 q 440 106 343 106 q 613 147 551 106 q 674 265 674 189 q 617 362 674 329 q 436 422 560 394 q 243 480 318 447 q 125 567 168 513 q 82 708 82 622 q 128 860 82 794 q 258 963 174 926 q 451 1000 342 1000 q 647 968 556 1000 q 799 878 738 936 l 747 772 q 607 856 679 829 q 453 883 535 883 q 285 838 346 883 q 224 715 224 793 q 277 614 224 649 q 449 551 331 579 q 649 493 572 524 q 771 410 725 463 q 817 274 817 357 q 771 124 817 188 q 640 24 725 60 q 439 -11 554 -11 m 515 -121 l 515 -262 l 367 -262 l 367 -121 l 515 -121 m 522 1256 l 522 1107 l 360 1107 l 360 1256 l 522 1256 z "},"ẞ":{"ha":975,"x_min":115,"x_max":900,"o":"m 693 515 q 846 432 792 496 q 900 272 900 368 q 861 126 900 190 q 752 26 822 63 q 593 -10 682 -10 q 335 78 442 -10 l 379 185 q 485 124 436 143 q 585 104 535 104 q 714 151 667 106 q 761 278 761 197 q 707 402 761 361 q 540 443 653 443 l 372 443 l 372 560 l 501 560 q 644 601 594 560 q 693 721 693 643 q 641 838 693 796 q 497 881 589 881 q 257 632 257 881 l 257 0 l 115 0 l 115 635 q 214 906 115 813 q 500 999 313 999 q 742 926 653 999 q 832 731 832 853 q 795 599 832 656 q 693 515 758 543 z "},"Ə":{"ha":1051,"x_min":81,"x_max":969,"o":"m 493 1000 q 747 939 639 1000 q 912 765 854 878 q 969 496 969 651 q 915 229 969 344 q 763 51 861 114 q 532 -11 664 -11 q 292 49 393 -11 q 135 224 190 110 q 81 494 81 338 l 81 560 l 822 560 q 722 799 808 715 q 490 882 636 882 q 186 772 318 882 l 135 878 q 294 968 199 936 q 493 1000 390 1000 m 529 106 q 738 192 661 106 q 824 443 814 279 l 228 443 q 316 193 238 281 q 529 106 394 106 z "},"T":{"ha":847,"x_min":17,"x_max":831,"o":"m 351 869 l 17 869 l 17 989 l 831 989 l 831 869 l 496 869 l 496 0 l 351 0 l 351 869 z "},"Ŧ":{"ha":847,"x_min":17,"x_max":831,"o":"m 496 869 l 496 557 l 693 557 l 693 444 l 496 444 l 496 0 l 351 0 l 351 444 l 154 444 l 154 557 l 351 557 l 351 869 l 17 869 l 17 989 l 831 989 l 831 869 l 496 869 z "},"Ť":{"ha":847,"x_min":17,"x_max":831,"o":"m 351 869 l 17 869 l 17 989 l 831 989 l 831 869 l 496 869 l 496 0 l 351 0 l 351 869 m 639 1288 l 467 1074 l 379 1074 l 207 1288 l 325 1288 l 424 1150 l 521 1288 l 639 1288 z "},"Ţ":{"ha":847,"x_min":17,"x_max":831,"o":"m 456 0 l 447 -60 q 476 -57 457 -57 q 555 -82 524 -57 q 586 -154 586 -107 q 541 -239 586 -206 q 417 -272 496 -272 q 351 -265 386 -272 q 290 -246 317 -258 l 308 -179 q 415 -199 360 -199 q 469 -187 450 -199 q 489 -154 489 -176 q 440 -119 489 -119 q 381 -131 414 -119 l 354 -107 l 367 0 l 351 0 l 351 869 l 17 869 l 17 989 l 831 989 l 831 869 l 496 869 l 496 0 l 456 0 z "},"Ț":{"ha":847,"x_min":17,"x_max":831,"o":"m 351 869 l 17 869 l 17 989 l 831 989 l 831 869 l 496 869 l 496 0 l 351 0 l 351 869 m 501 -99 l 501 -182 q 485 -285 501 -240 q 426 -369 468 -331 l 368 -328 q 404 -278 393 -301 q 418 -226 415 -254 l 344 -226 l 344 -99 l 501 -99 z "},"Ṭ":{"ha":847,"x_min":17,"x_max":831,"o":"m 351 869 l 17 869 l 17 989 l 831 989 l 831 869 l 496 869 l 496 0 l 351 0 l 351 869 m 497 -121 l 497 -262 l 349 -262 l 349 -121 l 497 -121 z "},"Ṯ":{"ha":847,"x_min":17,"x_max":831,"o":"m 351 869 l 17 869 l 17 989 l 831 989 l 831 869 l 496 869 l 496 0 l 351 0 l 351 869 m 210 -144 l 636 -144 l 636 -239 l 210 -239 l 210 -144 z "},"U":{"ha":1021,"x_min":110,"x_max":913,"o":"m 511 -11 q 212 92 314 -11 q 110 393 110 194 l 110 989 l 250 989 l 250 383 q 316 176 250 246 q 511 106 382 106 q 705 176 639 106 q 771 383 771 247 l 771 989 l 913 989 l 913 393 q 810 92 913 194 q 511 -11 708 -11 z "},"Ú":{"ha":1021,"x_min":110,"x_max":913,"o":"m 511 -11 q 212 92 314 -11 q 110 393 110 194 l 110 989 l 250 989 l 250 383 q 316 176 250 246 q 511 106 382 106 q 705 176 639 106 q 771 383 771 247 l 771 989 l 913 989 l 913 393 q 810 92 913 194 q 511 -11 708 -11 m 464 1074 l 606 1288 l 750 1288 l 557 1074 l 464 1074 z "},"Ŭ":{"ha":1021,"x_min":110,"x_max":913,"o":"m 511 -11 q 212 92 314 -11 q 110 393 110 194 l 110 989 l 250 989 l 250 383 q 316 176 250 246 q 511 106 382 106 q 705 176 639 106 q 771 383 771 247 l 771 989 l 913 989 l 913 393 q 810 92 913 194 q 511 -11 708 -11 m 511 1089 q 367 1126 429 1089 q 276 1239 306 1163 l 354 1272 q 422 1202 383 1222 q 511 1182 460 1182 q 599 1202 561 1182 q 667 1272 638 1222 l 744 1239 q 653 1126 714 1163 q 511 1089 593 1089 z "},"Û":{"ha":1021,"x_min":110,"x_max":913,"o":"m 511 -11 q 212 92 314 -11 q 110 393 110 194 l 110 989 l 250 989 l 250 383 q 316 176 250 246 q 511 106 382 106 q 705 176 639 106 q 771 383 771 247 l 771 989 l 913 989 l 913 393 q 810 92 913 194 q 511 -11 708 -11 m 294 1074 l 467 1288 l 554 1288 l 726 1074 l 608 1074 l 511 1211 l 413 1074 l 294 1074 z "},"Ȕ":{"ha":1021,"x_min":110,"x_max":913,"o":"m 511 -11 q 212 92 314 -11 q 110 393 110 194 l 110 989 l 250 989 l 250 383 q 316 176 250 246 q 511 106 382 106 q 705 176 639 106 q 771 383 771 247 l 771 989 l 913 989 l 913 393 q 810 92 913 194 q 511 -11 708 -11 m 249 1288 l 358 1288 l 460 1074 l 386 1074 l 249 1288 m 424 1288 l 535 1288 l 635 1074 l 561 1074 l 424 1288 z "},"Ü":{"ha":1021,"x_min":110,"x_max":913,"o":"m 511 -11 q 212 92 314 -11 q 110 393 110 194 l 110 989 l 250 989 l 250 383 q 316 176 250 246 q 511 106 382 106 q 705 176 639 106 q 771 383 771 247 l 771 989 l 913 989 l 913 393 q 810 92 913 194 q 511 -11 708 -11 m 458 1250 l 458 1113 l 314 1113 l 314 1250 l 458 1250 m 707 1250 l 707 1113 l 563 1113 l 563 1250 l 707 1250 z "},"Ụ":{"ha":1021,"x_min":110,"x_max":913,"o":"m 511 -11 q 212 92 314 -11 q 110 393 110 194 l 110 989 l 250 989 l 250 383 q 316 176 250 246 q 511 106 382 106 q 705 176 639 106 q 771 383 771 247 l 771 989 l 913 989 l 913 393 q 810 92 913 194 q 511 -11 708 -11 m 585 -121 l 585 -262 l 436 -262 l 436 -121 l 585 -121 z "},"Ù":{"ha":1021,"x_min":110,"x_max":913,"o":"m 511 -11 q 212 92 314 -11 q 110 393 110 194 l 110 989 l 250 989 l 250 383 q 316 176 250 246 q 511 106 382 106 q 705 176 639 106 q 771 383 771 247 l 771 989 l 913 989 l 913 393 q 810 92 913 194 q 511 -11 708 -11 m 271 1288 l 415 1288 l 557 1074 l 464 1074 l 271 1288 z "},"Ủ":{"ha":1021,"x_min":110,"x_max":913,"o":"m 511 -11 q 212 92 314 -11 q 110 393 110 194 l 110 989 l 250 989 l 250 383 q 316 176 250 246 q 511 106 382 106 q 705 176 639 106 q 771 383 771 247 l 771 989 l 913 989 l 913 393 q 810 92 913 194 q 511 -11 708 -11 m 553 1074 l 469 1074 l 469 1100 q 485 1138 469 1124 q 528 1165 501 1153 q 542 1172 531 1167 q 558 1183 553 1178 q 563 1196 563 1189 q 508 1222 563 1222 q 425 1206 469 1222 l 403 1269 q 522 1293 463 1293 q 624 1268 586 1293 q 663 1204 663 1243 q 646 1161 663 1176 q 599 1132 629 1146 q 563 1111 574 1119 q 553 1089 553 1103 l 553 1074 z "},"Ư":{"ha":1021,"x_min":110,"x_max":1075,"o":"m 1075 1163 l 1075 1121 q 1032 984 1075 1038 q 913 915 989 931 l 913 393 q 810 92 913 194 q 511 -11 708 -11 q 212 92 314 -11 q 110 393 110 194 l 110 989 l 250 989 l 250 383 q 316 176 250 246 q 511 106 382 106 q 705 176 639 106 q 771 383 771 247 l 771 989 l 813 989 q 919 1024 888 990 q 951 1140 951 1058 l 951 1163 l 1075 1163 z "},"Ứ":{"ha":1021,"x_min":110,"x_max":1075,"o":"m 1075 1163 l 1075 1121 q 1032 984 1075 1038 q 913 915 989 931 l 913 393 q 810 92 913 194 q 511 -11 708 -11 q 212 92 314 -11 q 110 393 110 194 l 110 989 l 250 989 l 250 383 q 316 176 250 246 q 511 106 382 106 q 705 176 639 106 q 771 383 771 247 l 771 989 l 813 989 q 919 1024 888 990 q 951 1140 951 1058 l 951 1163 l 1075 1163 m 464 1074 l 606 1288 l 750 1288 l 557 1074 l 464 1074 z "},"Ự":{"ha":1021,"x_min":110,"x_max":1075,"o":"m 1075 1163 l 1075 1121 q 1032 984 1075 1038 q 913 915 989 931 l 913 393 q 810 92 913 194 q 511 -11 708 -11 q 212 92 314 -11 q 110 393 110 194 l 110 989 l 250 989 l 250 383 q 316 176 250 246 q 511 106 382 106 q 705 176 639 106 q 771 383 771 247 l 771 989 l 813 989 q 919 1024 888 990 q 951 1140 951 1058 l 951 1163 l 1075 1163 m 585 -121 l 585 -262 l 436 -262 l 436 -121 l 585 -121 z "},"Ừ":{"ha":1021,"x_min":110,"x_max":1075,"o":"m 1075 1163 l 1075 1121 q 1032 984 1075 1038 q 913 915 989 931 l 913 393 q 810 92 913 194 q 511 -11 708 -11 q 212 92 314 -11 q 110 393 110 194 l 110 989 l 250 989 l 250 383 q 316 176 250 246 q 511 106 382 106 q 705 176 639 106 q 771 383 771 247 l 771 989 l 813 989 q 919 1024 888 990 q 951 1140 951 1058 l 951 1163 l 1075 1163 m 271 1288 l 415 1288 l 557 1074 l 464 1074 l 271 1288 z "},"Ử":{"ha":1021,"x_min":110,"x_max":1075,"o":"m 1075 1163 l 1075 1121 q 1032 984 1075 1038 q 913 915 989 931 l 913 393 q 810 92 913 194 q 511 -11 708 -11 q 212 92 314 -11 q 110 393 110 194 l 110 989 l 250 989 l 250 383 q 316 176 250 246 q 511 106 382 106 q 705 176 639 106 q 771 383 771 247 l 771 989 l 813 989 q 919 1024 888 990 q 951 1140 951 1058 l 951 1163 l 1075 1163 m 553 1074 l 469 1074 l 469 1100 q 485 1138 469 1124 q 528 1165 501 1153 q 542 1172 531 1167 q 558 1183 553 1178 q 563 1196 563 1189 q 508 1222 563 1222 q 425 1206 469 1222 l 403 1269 q 522 1293 463 1293 q 624 1268 586 1293 q 663 1204 663 1243 q 646 1161 663 1176 q 599 1132 629 1146 q 563 1111 574 1119 q 553 1089 553 1103 l 553 1074 z "},"Ữ":{"ha":1021,"x_min":110,"x_max":1075,"o":"m 1075 1163 l 1075 1121 q 1032 984 1075 1038 q 913 915 989 931 l 913 393 q 810 92 913 194 q 511 -11 708 -11 q 212 92 314 -11 q 110 393 110 194 l 110 989 l 250 989 l 250 383 q 316 176 250 246 q 511 106 382 106 q 705 176 639 106 q 771 383 771 247 l 771 989 l 813 989 q 919 1024 888 990 q 951 1140 951 1058 l 951 1163 l 1075 1163 m 279 1097 q 316 1225 279 1181 q 413 1269 353 1269 q 466 1258 440 1269 q 528 1225 492 1247 q 576 1199 560 1207 q 607 1192 592 1192 q 653 1213 636 1192 q 671 1265 669 1233 l 742 1265 q 705 1138 742 1183 q 608 1093 668 1093 q 555 1104 581 1093 q 493 1138 529 1115 q 445 1163 461 1156 q 414 1171 429 1171 q 368 1150 385 1171 q 350 1097 351 1129 l 279 1097 z "},"Ű":{"ha":1021,"x_min":110,"x_max":913,"o":"m 511 -11 q 212 92 314 -11 q 110 393 110 194 l 110 989 l 250 989 l 250 383 q 316 176 250 246 q 511 106 382 106 q 705 176 639 106 q 771 383 771 247 l 771 989 l 913 989 l 913 393 q 810 92 913 194 q 511 -11 708 -11 m 486 1288 l 597 1288 l 460 1074 l 386 1074 l 486 1288 m 663 1288 l 772 1288 l 635 1074 l 561 1074 l 663 1288 z "},"Ȗ":{"ha":1021,"x_min":110,"x_max":913,"o":"m 511 -11 q 212 92 314 -11 q 110 393 110 194 l 110 989 l 250 989 l 250 383 q 316 176 250 246 q 511 106 382 106 q 705 176 639 106 q 771 383 771 247 l 771 989 l 913 989 l 913 393 q 810 92 913 194 q 511 -11 708 -11 m 511 1274 q 654 1237 593 1274 q 744 1124 715 1200 l 667 1090 q 599 1160 638 1140 q 511 1181 561 1181 q 422 1160 460 1181 q 354 1090 383 1140 l 276 1124 q 368 1237 307 1200 q 511 1274 429 1274 z "},"Ū":{"ha":1021,"x_min":110,"x_max":913,"o":"m 511 -11 q 212 92 314 -11 q 110 393 110 194 l 110 989 l 250 989 l 250 383 q 316 176 250 246 q 511 106 382 106 q 705 176 639 106 q 771 383 771 247 l 771 989 l 913 989 l 913 393 q 810 92 913 194 q 511 -11 708 -11 m 297 1231 l 724 1231 l 724 1132 l 297 1132 l 297 1231 z "},"Ṻ":{"ha":1021,"x_min":110,"x_max":913,"o":"m 511 -11 q 212 92 314 -11 q 110 393 110 194 l 110 989 l 250 989 l 250 383 q 316 176 250 246 q 511 106 382 106 q 705 176 639 106 q 771 383 771 247 l 771 989 l 913 989 l 913 393 q 810 92 913 194 q 511 -11 708 -11 m 297 1231 l 724 1231 l 724 1132 l 297 1132 l 297 1231 m 458 1475 l 458 1338 l 314 1338 l 314 1475 l 458 1475 m 707 1475 l 707 1338 l 563 1338 l 563 1475 l 707 1475 z "},"Ų":{"ha":1021,"x_min":110,"x_max":913,"o":"m 913 989 l 913 393 q 850 141 913 238 q 665 8 788 44 q 585 -36 611 -8 q 560 -104 560 -64 q 583 -165 560 -143 q 649 -187 607 -187 q 729 -167 683 -187 l 753 -242 q 626 -272 696 -272 q 506 -231 553 -272 q 458 -124 458 -189 q 510 -11 458 -56 q 211 92 313 -11 q 110 393 110 194 l 110 989 l 250 989 l 250 383 q 316 176 250 246 q 511 106 382 106 q 705 176 639 106 q 771 383 771 247 l 771 989 l 913 989 z "},"Ů":{"ha":1021,"x_min":110,"x_max":913,"o":"m 511 -11 q 212 92 314 -11 q 110 393 110 194 l 110 989 l 250 989 l 250 383 q 316 176 250 246 q 511 106 382 106 q 705 176 639 106 q 771 383 771 247 l 771 989 l 913 989 l 913 393 q 810 92 913 194 q 511 -11 708 -11 m 511 1067 q 408 1108 450 1067 q 365 1208 365 1149 q 408 1310 365 1268 q 511 1351 450 1351 q 613 1310 571 1351 q 656 1208 656 1268 q 613 1108 656 1149 q 511 1067 571 1067 m 511 1140 q 558 1160 539 1140 q 576 1208 576 1179 q 558 1257 576 1238 q 511 1276 539 1276 q 463 1257 482 1276 q 444 1208 444 1238 q 463 1160 444 1179 q 511 1140 482 1140 z "},"Ũ":{"ha":1021,"x_min":110,"x_max":913,"o":"m 511 -11 q 212 92 314 -11 q 110 393 110 194 l 110 989 l 250 989 l 250 383 q 316 176 250 246 q 511 106 382 106 q 705 176 639 106 q 771 383 771 247 l 771 989 l 913 989 l 913 393 q 810 92 913 194 q 511 -11 708 -11 m 279 1097 q 316 1225 279 1181 q 413 1269 353 1269 q 466 1258 440 1269 q 528 1225 492 1247 q 576 1199 560 1207 q 607 1192 592 1192 q 653 1213 636 1192 q 671 1265 669 1233 l 742 1265 q 705 1138 742 1183 q 608 1093 668 1093 q 555 1104 581 1093 q 493 1138 529 1115 q 445 1163 461 1156 q 414 1171 429 1171 q 368 1150 385 1171 q 350 1097 351 1129 l 279 1097 z "},"Ṹ":{"ha":1021,"x_min":110,"x_max":913,"o":"m 511 -11 q 212 92 314 -11 q 110 393 110 194 l 110 989 l 250 989 l 250 383 q 316 176 250 246 q 511 106 382 106 q 705 176 639 106 q 771 383 771 247 l 771 989 l 913 989 l 913 393 q 810 92 913 194 q 511 -11 708 -11 m 279 1097 q 316 1225 279 1181 q 413 1269 353 1269 q 466 1258 440 1269 q 528 1225 492 1247 q 576 1199 560 1207 q 607 1192 592 1192 q 653 1213 636 1192 q 671 1265 669 1233 l 742 1265 q 705 1138 742 1183 q 608 1093 668 1093 q 555 1104 581 1093 q 493 1138 529 1115 q 445 1163 461 1156 q 414 1171 429 1171 q 368 1150 385 1171 q 350 1097 351 1129 l 279 1097 m 464 1299 l 606 1513 l 750 1513 l 557 1299 l 464 1299 z "},"V":{"ha":983,"x_min":-4,"x_max":989,"o":"m 989 989 l 553 0 l 432 0 l -4 989 l 146 989 l 493 181 l 842 989 l 989 989 z "},"W":{"ha":1550,"x_min":40,"x_max":1510,"o":"m 1510 989 l 1161 0 l 1042 0 l 775 764 l 507 0 l 388 0 l 40 989 l 186 989 l 451 203 l 725 989 l 831 988 l 1100 199 l 1369 989 l 1510 989 z "},"Ẃ":{"ha":1550,"x_min":40,"x_max":1510,"o":"m 1510 989 l 1161 0 l 1042 0 l 775 764 l 507 0 l 388 0 l 40 989 l 186 989 l 451 203 l 725 989 l 831 988 l 1100 199 l 1369 989 l 1510 989 m 726 1074 l 868 1288 l 1013 1288 l 819 1074 l 726 1074 z "},"Ŵ":{"ha":1550,"x_min":40,"x_max":1510,"o":"m 1510 989 l 1161 0 l 1042 0 l 775 764 l 507 0 l 388 0 l 40 989 l 186 989 l 451 203 l 725 989 l 831 988 l 1100 199 l 1369 989 l 1510 989 m 557 1074 l 729 1288 l 817 1288 l 989 1074 l 871 1074 l 774 1211 l 675 1074 l 557 1074 z "},"Ẅ":{"ha":1550,"x_min":40,"x_max":1510,"o":"m 1510 989 l 1161 0 l 1042 0 l 775 764 l 507 0 l 388 0 l 40 989 l 186 989 l 451 203 l 725 989 l 831 988 l 1100 199 l 1369 989 l 1510 989 m 721 1250 l 721 1113 l 576 1113 l 576 1250 l 721 1250 m 969 1250 l 969 1113 l 825 1113 l 825 1250 l 969 1250 z "},"Ẁ":{"ha":1550,"x_min":40,"x_max":1510,"o":"m 1510 989 l 1161 0 l 1042 0 l 775 764 l 507 0 l 388 0 l 40 989 l 186 989 l 451 203 l 725 989 l 831 988 l 1100 199 l 1369 989 l 1510 989 m 533 1288 l 678 1288 l 819 1074 l 726 1074 l 533 1288 z "},"X":{"ha":918,"x_min":0,"x_max":917,"o":"m 917 0 l 747 0 l 458 397 l 169 0 l 0 0 l 376 506 l 17 989 l 185 989 l 460 611 l 733 989 l 903 989 l 540 504 l 917 0 z "},"Y":{"ha":857,"x_min":-37,"x_max":894,"o":"m 500 397 l 500 0 l 356 0 l 356 400 l -37 989 l 126 989 l 429 522 l 731 989 l 894 989 l 500 397 z "},"Ý":{"ha":857,"x_min":-37,"x_max":894,"o":"m 500 397 l 500 0 l 356 0 l 356 400 l -37 989 l 126 989 l 429 522 l 731 989 l 894 989 l 500 397 m 381 1074 l 522 1288 l 667 1288 l 474 1074 l 381 1074 z "},"Ŷ":{"ha":857,"x_min":-37,"x_max":894,"o":"m 500 397 l 500 0 l 356 0 l 356 400 l -37 989 l 126 989 l 429 522 l 731 989 l 894 989 l 500 397 m 211 1074 l 383 1288 l 471 1288 l 643 1074 l 525 1074 l 428 1211 l 329 1074 l 211 1074 z "},"Ÿ":{"ha":857,"x_min":-37,"x_max":894,"o":"m 500 397 l 500 0 l 356 0 l 356 400 l -37 989 l 126 989 l 429 522 l 731 989 l 894 989 l 500 397 m 375 1250 l 375 1113 l 231 1113 l 231 1250 l 375 1250 m 624 1250 l 624 1113 l 479 1113 l 479 1250 l 624 1250 z "},"Ẏ":{"ha":857,"x_min":-37,"x_max":894,"o":"m 500 397 l 500 0 l 356 0 l 356 400 l -37 989 l 126 989 l 429 522 l 731 989 l 894 989 l 500 397 m 508 1256 l 508 1107 l 346 1107 l 346 1256 l 508 1256 z "},"Ỵ":{"ha":857,"x_min":-37,"x_max":894,"o":"m 500 397 l 500 0 l 356 0 l 356 400 l -37 989 l 126 989 l 429 522 l 731 989 l 894 989 l 500 397 m 501 -121 l 501 -262 l 353 -262 l 353 -121 l 501 -121 z "},"Ỳ":{"ha":857,"x_min":-37,"x_max":894,"o":"m 500 397 l 500 0 l 356 0 l 356 400 l -37 989 l 126 989 l 429 522 l 731 989 l 894 989 l 500 397 m 188 1288 l 332 1288 l 474 1074 l 381 1074 l 188 1288 z "},"Ỷ":{"ha":857,"x_min":-37,"x_max":894,"o":"m 500 397 l 500 0 l 356 0 l 356 400 l -37 989 l 126 989 l 429 522 l 731 989 l 894 989 l 500 397 m 469 1074 l 386 1074 l 386 1100 q 402 1138 386 1124 q 444 1165 418 1153 q 458 1172 447 1167 q 474 1183 469 1178 q 479 1196 479 1189 q 425 1222 479 1222 q 342 1206 386 1222 l 319 1269 q 439 1293 379 1293 q 541 1268 503 1293 q 579 1204 579 1243 q 563 1161 579 1176 q 515 1132 546 1146 q 480 1111 490 1119 q 469 1089 469 1103 l 469 1074 z "},"Ȳ":{"ha":857,"x_min":-37,"x_max":894,"o":"m 500 397 l 500 0 l 356 0 l 356 400 l -37 989 l 126 989 l 429 522 l 731 989 l 894 989 l 500 397 m 214 1231 l 640 1231 l 640 1132 l 214 1132 l 214 1231 z "},"Ỹ":{"ha":857,"x_min":-37,"x_max":894,"o":"m 500 397 l 500 0 l 356 0 l 356 400 l -37 989 l 126 989 l 429 522 l 731 989 l 894 989 l 500 397 m 196 1097 q 233 1225 196 1181 q 329 1269 269 1269 q 383 1258 357 1269 q 444 1225 408 1247 q 492 1199 476 1207 q 524 1192 508 1192 q 569 1213 553 1192 q 588 1265 586 1233 l 658 1265 q 622 1138 658 1183 q 525 1093 585 1093 q 472 1104 497 1093 q 410 1138 446 1115 q 362 1163 378 1156 q 331 1171 346 1171 q 285 1150 301 1171 q 267 1097 268 1129 l 196 1097 z "},"Z":{"ha":835,"x_min":65,"x_max":785,"o":"m 785 118 l 785 0 l 65 0 l 65 106 l 606 871 l 65 871 l 65 989 l 769 989 l 769 885 l 228 118 l 785 118 z "},"Ź":{"ha":835,"x_min":65,"x_max":785,"o":"m 785 118 l 785 0 l 65 0 l 65 106 l 606 871 l 65 871 l 65 989 l 769 989 l 769 885 l 228 118 l 785 118 m 371 1074 l 513 1288 l 657 1288 l 464 1074 l 371 1074 z "},"Ž":{"ha":835,"x_min":65,"x_max":785,"o":"m 785 118 l 785 0 l 65 0 l 65 106 l 606 871 l 65 871 l 65 989 l 769 989 l 769 885 l 228 118 l 785 118 m 633 1288 l 461 1074 l 374 1074 l 201 1288 l 319 1288 l 418 1150 l 515 1288 l 633 1288 z "},"Ż":{"ha":835,"x_min":65,"x_max":785,"o":"m 785 118 l 785 0 l 65 0 l 65 106 l 606 871 l 65 871 l 65 989 l 769 989 l 769 885 l 228 118 l 785 118 m 499 1256 l 499 1107 l 336 1107 l 336 1256 l 499 1256 z "},"Ẓ":{"ha":835,"x_min":65,"x_max":785,"o":"m 785 118 l 785 0 l 65 0 l 65 106 l 606 871 l 65 871 l 65 989 l 769 989 l 769 885 l 228 118 l 785 118 m 494 -121 l 494 -262 l 346 -262 l 346 -121 l 494 -121 z "},"a":{"ha":846,"x_min":61,"x_max":743,"o":"m 743 700 l 743 0 l 604 0 l 604 119 q 513 24 574 57 q 372 -10 453 -10 q 209 35 279 -10 q 100 160 139 79 q 61 350 61 242 q 101 542 61 458 q 211 671 140 625 q 372 717 282 717 q 513 683 453 717 q 604 586 572 649 l 604 700 l 743 700 m 406 101 q 552 167 500 101 q 604 353 604 233 q 552 539 604 474 q 404 604 500 604 q 256 537 310 604 q 203 350 203 469 q 256 167 203 232 q 406 101 310 101 z "},"á":{"ha":846,"x_min":61,"x_max":743,"o":"m 743 700 l 743 0 l 604 0 l 604 119 q 513 24 574 57 q 372 -10 453 -10 q 209 35 279 -10 q 100 160 139 79 q 61 350 61 242 q 101 542 61 458 q 211 671 140 625 q 372 717 282 717 q 513 683 453 717 q 604 586 572 649 l 604 700 l 743 700 m 406 101 q 552 167 500 101 q 604 353 604 233 q 552 539 604 474 q 404 604 500 604 q 256 537 310 604 q 203 350 203 469 q 256 167 203 232 q 406 101 310 101 m 376 790 l 515 1075 l 667 1075 l 469 790 l 376 790 z "},"ă":{"ha":846,"x_min":61,"x_max":743,"o":"m 743 700 l 743 0 l 604 0 l 604 119 q 513 24 574 57 q 372 -10 453 -10 q 209 35 279 -10 q 100 160 139 79 q 61 350 61 242 q 101 542 61 458 q 211 671 140 625 q 372 717 282 717 q 513 683 453 717 q 604 586 572 649 l 604 700 l 743 700 m 406 101 q 552 167 500 101 q 604 353 604 233 q 552 539 604 474 q 404 604 500 604 q 256 537 310 604 q 203 350 203 469 q 256 167 203 232 q 406 101 310 101 m 424 829 q 277 875 342 829 q 183 1014 213 921 l 263 1047 q 333 955 293 983 q 424 926 374 926 q 513 955 472 926 q 583 1047 553 983 l 663 1014 q 570 875 635 921 q 424 829 506 829 z "},"ắ":{"ha":846,"x_min":61,"x_max":743,"o":"m 743 700 l 743 0 l 604 0 l 604 119 q 513 24 574 57 q 372 -10 453 -10 q 209 35 279 -10 q 100 160 139 79 q 61 350 61 242 q 101 542 61 458 q 211 671 140 625 q 372 717 282 717 q 513 683 453 717 q 604 586 572 649 l 604 700 l 743 700 m 406 101 q 552 167 500 101 q 604 353 604 233 q 552 539 604 474 q 404 604 500 604 q 256 537 310 604 q 203 350 203 469 q 256 167 203 232 q 406 101 310 101 m 379 936 l 518 1135 l 656 1135 l 467 936 l 379 936 m 424 783 q 280 820 342 783 q 189 933 218 857 l 257 963 q 424 868 311 868 q 589 963 535 868 l 657 933 q 566 820 626 857 q 424 783 506 783 z "},"ặ":{"ha":846,"x_min":61,"x_max":743,"o":"m 743 700 l 743 0 l 604 0 l 604 119 q 513 24 574 57 q 372 -10 453 -10 q 209 35 279 -10 q 100 160 139 79 q 61 350 61 242 q 101 542 61 458 q 211 671 140 625 q 372 717 282 717 q 513 683 453 717 q 604 586 572 649 l 604 700 l 743 700 m 406 101 q 552 167 500 101 q 604 353 604 233 q 552 539 604 474 q 404 604 500 604 q 256 537 310 604 q 203 350 203 469 q 256 167 203 232 q 406 101 310 101 m 497 -121 l 497 -262 l 349 -262 l 349 -121 l 497 -121 m 424 829 q 277 875 342 829 q 183 1014 213 921 l 263 1047 q 333 955 293 983 q 424 926 374 926 q 513 955 472 926 q 583 1047 553 983 l 663 1014 q 570 875 635 921 q 424 829 506 829 z "},"ằ":{"ha":846,"x_min":61,"x_max":743,"o":"m 743 700 l 743 0 l 604 0 l 604 119 q 513 24 574 57 q 372 -10 453 -10 q 209 35 279 -10 q 100 160 139 79 q 61 350 61 242 q 101 542 61 458 q 211 671 140 625 q 372 717 282 717 q 513 683 453 717 q 604 586 572 649 l 604 700 l 743 700 m 406 101 q 552 167 500 101 q 604 353 604 233 q 552 539 604 474 q 404 604 500 604 q 256 537 310 604 q 203 350 203 469 q 256 167 203 232 q 406 101 310 101 m 190 1135 l 328 1135 l 467 936 l 379 936 l 190 1135 m 424 783 q 281 820 342 783 q 189 933 219 857 l 257 963 q 424 868 311 868 q 589 963 535 868 l 657 933 q 567 820 628 857 q 424 783 506 783 z "},"ẳ":{"ha":846,"x_min":61,"x_max":743,"o":"m 743 700 l 743 0 l 604 0 l 604 119 q 513 24 574 57 q 372 -10 453 -10 q 209 35 279 -10 q 100 160 139 79 q 61 350 61 242 q 101 542 61 458 q 211 671 140 625 q 372 717 282 717 q 513 683 453 717 q 604 586 572 649 l 604 700 l 743 700 m 406 101 q 552 167 500 101 q 604 353 604 233 q 552 539 604 474 q 404 604 500 604 q 256 537 310 604 q 203 350 203 469 q 256 167 203 232 q 406 101 310 101 m 465 936 l 382 936 l 382 961 q 398 999 382 986 q 443 1024 414 1011 q 475 1047 475 1036 q 461 1065 475 1058 q 421 1072 447 1072 q 338 1054 386 1072 l 315 1118 q 435 1142 375 1142 q 538 1117 500 1142 q 575 1054 575 1093 q 558 1015 575 1028 q 511 989 542 1001 q 477 971 489 979 q 465 949 465 963 l 465 936 m 424 783 q 281 820 342 783 q 189 933 219 857 l 257 963 q 424 868 311 868 q 589 963 535 868 l 657 933 q 567 820 628 857 q 424 783 506 783 z "},"ẵ":{"ha":846,"x_min":61,"x_max":743,"o":"m 743 700 l 743 0 l 604 0 l 604 119 q 513 24 574 57 q 372 -10 453 -10 q 209 35 279 -10 q 100 160 139 79 q 61 350 61 242 q 101 542 61 458 q 211 671 140 625 q 372 717 282 717 q 513 683 453 717 q 604 586 572 649 l 604 700 l 743 700 m 406 101 q 552 167 500 101 q 604 353 604 233 q 552 539 604 474 q 404 604 500 604 q 256 537 310 604 q 203 350 203 469 q 256 167 203 232 q 406 101 310 101 m 192 999 q 229 1103 192 1063 q 325 1144 267 1144 q 379 1135 353 1144 q 440 1107 406 1125 q 483 1088 461 1096 q 519 1079 504 1079 q 565 1097 549 1079 q 583 1140 582 1114 l 654 1140 q 617 1035 654 1076 q 521 994 579 994 q 467 1004 493 994 q 406 1032 440 1014 q 359 1054 376 1047 q 326 1061 342 1061 q 281 1044 297 1061 q 263 999 264 1026 l 192 999 m 424 783 q 281 820 342 783 q 189 933 219 857 l 257 963 q 424 868 311 868 q 589 963 535 868 l 657 933 q 567 820 628 857 q 424 783 506 783 z "},"ǎ":{"ha":846,"x_min":61,"x_max":743,"o":"m 743 700 l 743 0 l 604 0 l 604 119 q 513 24 574 57 q 372 -10 453 -10 q 209 35 279 -10 q 100 160 139 79 q 61 350 61 242 q 101 542 61 458 q 211 671 140 625 q 372 717 282 717 q 513 683 453 717 q 604 586 572 649 l 604 700 l 743 700 m 406 101 q 552 167 500 101 q 604 353 604 233 q 552 539 604 474 q 404 604 500 604 q 256 537 310 604 q 203 350 203 469 q 256 167 203 232 q 406 101 310 101 m 639 1075 l 469 790 l 376 790 l 207 1075 l 328 1075 l 424 883 l 518 1075 l 639 1075 z "},"â":{"ha":846,"x_min":61,"x_max":743,"o":"m 743 700 l 743 0 l 604 0 l 604 119 q 513 24 574 57 q 372 -10 453 -10 q 209 35 279 -10 q 100 160 139 79 q 61 350 61 242 q 101 542 61 458 q 211 671 140 625 q 372 717 282 717 q 513 683 453 717 q 604 586 572 649 l 604 700 l 743 700 m 406 101 q 552 167 500 101 q 604 353 604 233 q 552 539 604 474 q 404 604 500 604 q 256 537 310 604 q 203 350 203 469 q 256 167 203 232 q 406 101 310 101 m 207 790 l 376 1075 l 469 1075 l 639 790 l 518 790 l 424 979 l 328 790 l 207 790 z "},"ấ":{"ha":846,"x_min":61,"x_max":800,"o":"m 743 700 l 743 0 l 604 0 l 604 119 q 513 24 574 57 q 372 -10 453 -10 q 209 35 279 -10 q 100 160 139 79 q 61 350 61 242 q 101 542 61 458 q 211 671 140 625 q 372 717 282 717 q 513 683 453 717 q 604 586 572 649 l 604 700 l 743 700 m 406 101 q 552 167 500 101 q 604 353 604 233 q 552 539 604 474 q 404 604 500 604 q 256 537 310 604 q 203 350 203 469 q 256 167 203 232 q 406 101 310 101 m 544 936 l 665 1135 l 800 1135 l 624 936 l 544 936 m 207 790 l 379 993 l 467 993 l 639 790 l 522 790 l 424 918 l 324 790 l 207 790 z "},"ậ":{"ha":846,"x_min":61,"x_max":743,"o":"m 743 700 l 743 0 l 604 0 l 604 119 q 513 24 574 57 q 372 -10 453 -10 q 209 35 279 -10 q 100 160 139 79 q 61 350 61 242 q 101 542 61 458 q 211 671 140 625 q 372 717 282 717 q 513 683 453 717 q 604 586 572 649 l 604 700 l 743 700 m 406 101 q 552 167 500 101 q 604 353 604 233 q 552 539 604 474 q 404 604 500 604 q 256 537 310 604 q 203 350 203 469 q 256 167 203 232 q 406 101 310 101 m 497 -121 l 497 -262 l 349 -262 l 349 -121 l 497 -121 m 207 790 l 376 1075 l 469 1075 l 639 790 l 518 790 l 424 979 l 328 790 l 207 790 z "},"ầ":{"ha":846,"x_min":61,"x_max":743,"o":"m 743 700 l 743 0 l 604 0 l 604 119 q 513 24 574 57 q 372 -10 453 -10 q 209 35 279 -10 q 100 160 139 79 q 61 350 61 242 q 101 542 61 458 q 211 671 140 625 q 372 717 282 717 q 513 683 453 717 q 604 586 572 649 l 604 700 l 743 700 m 406 101 q 552 167 500 101 q 604 353 604 233 q 552 539 604 474 q 404 604 500 604 q 256 537 310 604 q 203 350 203 469 q 256 167 203 232 q 406 101 310 101 m 444 1135 l 578 1135 l 683 936 l 606 936 l 444 1135 m 207 790 l 379 993 l 467 993 l 639 790 l 522 790 l 424 918 l 324 790 l 207 790 z "},"ẩ":{"ha":846,"x_min":61,"x_max":743,"o":"m 743 700 l 743 0 l 604 0 l 604 119 q 513 24 574 57 q 372 -10 453 -10 q 209 35 279 -10 q 100 160 139 79 q 61 350 61 242 q 101 542 61 458 q 211 671 140 625 q 372 717 282 717 q 513 683 453 717 q 604 586 572 649 l 604 700 l 743 700 m 406 101 q 552 167 500 101 q 604 353 604 233 q 552 539 604 474 q 404 604 500 604 q 256 537 310 604 q 203 350 203 469 q 256 167 203 232 q 406 101 310 101 m 628 936 l 543 936 l 543 961 q 560 999 543 986 q 606 1024 576 1011 q 629 1035 621 1031 q 638 1047 638 1040 q 624 1065 638 1058 q 583 1072 610 1072 q 500 1054 546 1072 l 478 1118 q 597 1142 536 1142 q 701 1117 663 1142 q 739 1054 739 1093 q 722 1015 739 1028 q 675 989 706 1001 q 640 971 651 979 q 628 949 628 963 l 628 936 m 207 790 l 379 993 l 467 993 l 639 790 l 522 790 l 424 918 l 324 790 l 207 790 z "},"ẫ":{"ha":846,"x_min":61,"x_max":743,"o":"m 743 700 l 743 0 l 604 0 l 604 119 q 513 24 574 57 q 372 -10 453 -10 q 209 35 279 -10 q 100 160 139 79 q 61 350 61 242 q 101 542 61 458 q 211 671 140 625 q 372 717 282 717 q 513 683 453 717 q 604 586 572 649 l 604 700 l 743 700 m 406 101 q 552 167 500 101 q 604 353 604 233 q 552 539 604 474 q 404 604 500 604 q 256 537 310 604 q 203 350 203 469 q 256 167 203 232 q 406 101 310 101 m 192 1015 q 229 1116 192 1076 q 325 1156 267 1156 q 379 1147 353 1156 q 440 1124 406 1139 q 483 1107 461 1114 q 519 1100 504 1100 q 565 1116 549 1100 q 583 1156 582 1132 l 654 1156 q 617 1055 654 1094 q 521 1015 579 1015 q 467 1024 493 1015 q 406 1047 440 1032 q 326 1072 353 1072 q 281 1056 297 1072 q 263 1015 264 1039 l 192 1015 m 207 790 l 379 993 l 467 993 l 639 790 l 522 790 l 424 918 l 324 790 l 207 790 z "},"ȁ":{"ha":846,"x_min":61,"x_max":743,"o":"m 743 700 l 743 0 l 604 0 l 604 119 q 513 24 574 57 q 372 -10 453 -10 q 209 35 279 -10 q 100 160 139 79 q 61 350 61 242 q 101 542 61 458 q 211 671 140 625 q 372 717 282 717 q 513 683 453 717 q 604 586 572 649 l 604 700 l 743 700 m 406 101 q 552 167 500 101 q 604 353 604 233 q 552 539 604 474 q 404 604 500 604 q 256 537 310 604 q 203 350 203 469 q 256 167 203 232 q 406 101 310 101 m 192 1075 l 310 1075 l 368 790 l 301 790 l 192 1075 m 368 1075 l 485 1075 l 544 790 l 478 790 l 368 1075 z "},"ä":{"ha":846,"x_min":61,"x_max":743,"o":"m 743 700 l 743 0 l 604 0 l 604 119 q 513 24 574 57 q 372 -10 453 -10 q 209 35 279 -10 q 100 160 139 79 q 61 350 61 242 q 101 542 61 458 q 211 671 140 625 q 372 717 282 717 q 513 683 453 717 q 604 586 572 649 l 604 700 l 743 700 m 406 101 q 552 167 500 101 q 604 353 604 233 q 552 539 604 474 q 404 604 500 604 q 256 537 310 604 q 203 350 203 469 q 256 167 203 232 q 406 101 310 101 m 371 1001 l 371 863 l 226 863 l 226 1001 l 371 1001 m 619 1001 l 619 863 l 475 863 l 475 1001 l 619 1001 z "},"ȧ":{"ha":846,"x_min":61,"x_max":743,"o":"m 743 700 l 743 0 l 604 0 l 604 119 q 513 24 574 57 q 372 -10 453 -10 q 209 35 279 -10 q 100 160 139 79 q 61 350 61 242 q 101 542 61 458 q 211 671 140 625 q 372 717 282 717 q 513 683 453 717 q 604 586 572 649 l 604 700 l 743 700 m 406 101 q 552 167 500 101 q 604 353 604 233 q 552 539 604 474 q 404 604 500 604 q 256 537 310 604 q 203 350 203 469 q 256 167 203 232 q 406 101 310 101 m 504 1006 l 504 858 l 342 858 l 342 1006 l 504 1006 z "},"ạ":{"ha":846,"x_min":61,"x_max":743,"o":"m 743 700 l 743 0 l 604 0 l 604 119 q 513 24 574 57 q 372 -10 453 -10 q 209 35 279 -10 q 100 160 139 79 q 61 350 61 242 q 101 542 61 458 q 211 671 140 625 q 372 717 282 717 q 513 683 453 717 q 604 586 572 649 l 604 700 l 743 700 m 406 101 q 552 167 500 101 q 604 353 604 233 q 552 539 604 474 q 404 604 500 604 q 256 537 310 604 q 203 350 203 469 q 256 167 203 232 q 406 101 310 101 m 497 -121 l 497 -262 l 349 -262 l 349 -121 l 497 -121 z "},"à":{"ha":846,"x_min":61,"x_max":743,"o":"m 743 700 l 743 0 l 604 0 l 604 119 q 513 24 574 57 q 372 -10 453 -10 q 209 35 279 -10 q 100 160 139 79 q 61 350 61 242 q 101 542 61 458 q 211 671 140 625 q 372 717 282 717 q 513 683 453 717 q 604 586 572 649 l 604 700 l 743 700 m 406 101 q 552 167 500 101 q 604 353 604 233 q 552 539 604 474 q 404 604 500 604 q 256 537 310 604 q 203 350 203 469 q 256 167 203 232 q 406 101 310 101 m 179 1075 l 331 1075 l 469 790 l 376 790 l 179 1075 z "},"ả":{"ha":846,"x_min":61,"x_max":743,"o":"m 743 700 l 743 0 l 604 0 l 604 119 q 513 24 574 57 q 372 -10 453 -10 q 209 35 279 -10 q 100 160 139 79 q 61 350 61 242 q 101 542 61 458 q 211 671 140 625 q 372 717 282 717 q 513 683 453 717 q 604 586 572 649 l 604 700 l 743 700 m 406 101 q 552 167 500 101 q 604 353 604 233 q 552 539 604 474 q 404 604 500 604 q 256 537 310 604 q 203 350 203 469 q 256 167 203 232 q 406 101 310 101 m 467 790 l 383 790 l 383 828 q 397 874 383 856 q 438 919 410 893 q 464 947 456 936 q 472 969 472 957 q 458 994 472 985 q 417 1003 443 1003 q 339 988 381 1003 l 315 1054 q 431 1079 369 1079 q 537 1051 499 1079 q 575 981 575 1022 q 560 928 575 949 q 515 885 544 908 q 478 851 490 865 q 467 815 467 836 l 467 790 z "},"ȃ":{"ha":846,"x_min":61,"x_max":743,"o":"m 743 700 l 743 0 l 604 0 l 604 119 q 513 24 574 57 q 372 -10 453 -10 q 209 35 279 -10 q 100 160 139 79 q 61 350 61 242 q 101 542 61 458 q 211 671 140 625 q 372 717 282 717 q 513 683 453 717 q 604 586 572 649 l 604 700 l 743 700 m 406 101 q 552 167 500 101 q 604 353 604 233 q 552 539 604 474 q 404 604 500 604 q 256 537 310 604 q 203 350 203 469 q 256 167 203 232 q 406 101 310 101 m 424 1043 q 569 997 504 1043 q 663 860 633 951 l 583 826 q 513 919 553 890 q 424 947 472 947 q 333 919 374 947 q 263 826 293 890 l 183 858 q 276 997 211 951 q 424 1043 342 1043 z "},"ā":{"ha":846,"x_min":61,"x_max":743,"o":"m 743 700 l 743 0 l 604 0 l 604 119 q 513 24 574 57 q 372 -10 453 -10 q 209 35 279 -10 q 100 160 139 79 q 61 350 61 242 q 101 542 61 458 q 211 671 140 625 q 372 717 282 717 q 513 683 453 717 q 604 586 572 649 l 604 700 l 743 700 m 406 101 q 552 167 500 101 q 604 353 604 233 q 552 539 604 474 q 404 604 500 604 q 256 537 310 604 q 203 350 203 469 q 256 167 203 232 q 406 101 310 101 m 210 981 l 636 981 l 636 882 l 210 882 l 210 981 z "},"ą":{"ha":846,"x_min":61,"x_max":806,"o":"m 806 -247 q 676 -278 749 -278 q 553 -235 601 -278 q 506 -125 506 -193 q 531 -36 506 -76 q 604 29 557 4 l 604 119 q 513 24 574 57 q 372 -10 453 -10 q 209 35 279 -10 q 100 160 139 79 q 61 350 61 242 q 100 542 61 458 q 210 671 139 625 q 372 717 281 717 q 513 683 453 717 q 604 586 572 649 l 604 700 l 743 700 l 743 0 l 735 0 q 642 -29 678 0 q 607 -107 607 -58 q 631 -170 607 -147 q 700 -193 656 -193 q 781 -171 738 -193 l 806 -247 m 406 101 q 552 167 500 101 q 604 353 604 233 q 552 539 604 474 q 404 604 500 604 q 256 537 310 604 q 203 350 203 469 q 256 167 203 232 q 406 101 310 101 z "},"å":{"ha":846,"x_min":61,"x_max":743,"o":"m 743 700 l 743 0 l 604 0 l 604 119 q 513 24 574 57 q 372 -10 453 -10 q 209 35 279 -10 q 100 160 139 79 q 61 350 61 242 q 101 542 61 458 q 211 671 140 625 q 372 717 282 717 q 513 683 453 717 q 604 586 572 649 l 604 700 l 743 700 m 406 101 q 552 167 500 101 q 604 353 604 233 q 552 539 604 474 q 404 604 500 604 q 256 537 310 604 q 203 350 203 469 q 256 167 203 232 q 406 101 310 101 m 424 790 q 320 831 363 790 q 278 933 278 872 q 320 1034 278 993 q 424 1075 363 1075 q 526 1034 483 1075 q 568 933 568 993 q 526 831 568 872 q 424 790 483 790 m 424 864 q 470 883 451 864 q 489 933 489 903 q 470 981 489 961 q 424 1000 451 1000 q 376 981 394 1000 q 357 933 357 961 q 376 883 357 903 q 424 864 394 864 z "},"ǻ":{"ha":846,"x_min":61,"x_max":743,"o":"m 424 793 q 319 835 363 793 q 276 939 276 878 q 319 1041 276 999 q 424 1083 363 1083 q 494 1065 461 1083 l 604 1222 l 743 1217 l 551 1011 q 572 939 572 981 q 528 835 572 878 q 424 793 485 793 m 424 1008 q 375 988 394 1008 q 356 939 356 968 q 375 889 356 910 q 424 868 394 868 q 472 889 453 868 q 490 939 490 910 q 472 988 490 968 q 424 1008 453 1008 m 604 700 l 743 700 l 743 0 l 604 0 l 604 119 q 513 24 574 57 q 372 -10 453 -10 q 209 35 279 -10 q 100 160 139 79 q 61 350 61 242 q 101 542 61 458 q 211 671 140 625 q 372 717 282 717 q 513 683 453 717 q 604 586 572 649 l 604 700 m 406 101 q 552 167 500 101 q 604 353 604 233 q 552 539 604 474 q 404 604 500 604 q 256 537 310 604 q 203 350 203 469 q 256 167 203 232 q 406 101 310 101 z "},"ã":{"ha":846,"x_min":61,"x_max":743,"o":"m 743 700 l 743 0 l 604 0 l 604 119 q 513 24 574 57 q 372 -10 453 -10 q 209 35 279 -10 q 100 160 139 79 q 61 350 61 242 q 101 542 61 458 q 211 671 140 625 q 372 717 282 717 q 513 683 453 717 q 604 586 572 649 l 604 700 l 743 700 m 406 101 q 552 167 500 101 q 604 353 604 233 q 552 539 604 474 q 404 604 500 604 q 256 537 310 604 q 203 350 203 469 q 256 167 203 232 q 406 101 310 101 m 192 850 q 228 977 192 932 q 325 1022 265 1022 q 378 1011 353 1022 q 440 978 404 1000 q 487 951 469 960 q 519 943 504 943 q 565 964 549 943 q 583 1018 582 985 l 654 1018 q 617 890 654 935 q 521 846 581 846 q 467 857 493 846 q 406 890 442 868 q 358 916 374 908 q 326 924 342 924 q 281 903 297 924 q 263 850 264 882 l 192 850 z "},"æ":{"ha":1218,"x_min":76,"x_max":1160,"o":"m 1160 347 l 669 347 q 726 165 671 229 q 890 101 782 101 q 1106 181 1001 101 l 1147 81 q 1029 15 1101 39 q 885 -10 957 -10 q 706 33 781 -10 q 593 157 632 75 q 497 34 563 78 q 340 -10 432 -10 q 206 18 265 -10 q 111 96 146 46 q 76 211 76 146 q 116 338 76 290 q 243 408 156 385 q 479 431 331 431 l 533 431 l 533 447 q 500 568 533 531 q 392 606 467 606 q 149 532 272 606 l 106 631 q 240 693 161 669 q 393 717 319 717 q 625 603 567 717 q 730 688 668 658 q 867 717 792 717 q 1022 674 956 717 q 1124 553 1088 632 q 1160 369 1160 475 l 1160 347 m 865 613 q 740 566 789 613 q 675 431 690 519 l 1036 431 q 983 566 1028 519 q 865 613 939 613 m 356 94 q 485 151 436 94 q 533 294 533 207 l 533 349 l 486 349 q 277 318 338 349 q 217 219 217 288 q 256 128 217 163 q 356 94 294 94 z "},"ǽ":{"ha":1218,"x_min":76,"x_max":1160,"o":"m 1160 347 l 669 347 q 726 165 671 229 q 890 101 782 101 q 1106 181 1001 101 l 1147 81 q 1029 15 1101 39 q 885 -10 957 -10 q 706 33 781 -10 q 593 157 632 75 q 497 34 563 78 q 340 -10 432 -10 q 206 18 265 -10 q 111 96 146 46 q 76 211 76 146 q 116 338 76 290 q 243 408 156 385 q 479 431 331 431 l 533 431 l 533 447 q 500 568 533 531 q 392 606 467 606 q 149 532 272 606 l 106 631 q 240 693 161 669 q 393 717 319 717 q 625 603 567 717 q 730 688 668 658 q 867 717 792 717 q 1022 674 956 717 q 1124 553 1088 632 q 1160 369 1160 475 l 1160 347 m 865 613 q 740 566 789 613 q 675 431 690 519 l 1036 431 q 983 566 1028 519 q 865 613 939 613 m 356 94 q 485 151 436 94 q 533 294 533 207 l 533 349 l 486 349 q 277 318 338 349 q 217 219 217 288 q 256 128 217 163 q 356 94 294 94 m 556 790 l 694 1075 l 846 1075 l 649 790 l 556 790 z "},"b":{"ha":846,"x_min":103,"x_max":785,"o":"m 474 717 q 636 672 565 717 q 746 546 707 628 q 785 356 785 464 q 745 165 785 247 q 635 36 706 82 q 474 -10 564 -10 q 333 24 393 -10 q 242 122 272 58 l 242 0 l 103 0 l 103 1022 l 242 1022 l 242 585 q 333 682 272 647 q 474 717 393 717 m 442 101 q 589 169 536 101 q 642 356 642 236 q 589 539 642 474 q 442 604 536 604 q 294 539 346 604 q 242 353 242 474 q 294 167 242 232 q 442 101 346 101 z "},"c":{"ha":693,"x_min":61,"x_max":664,"o":"m 407 -10 q 223 35 301 -10 q 103 160 144 79 q 61 350 61 242 q 105 542 61 458 q 228 671 149 625 q 413 717 307 717 q 554 692 486 717 q 664 626 622 668 l 621 525 q 422 603 522 603 q 264 537 321 603 q 207 351 207 471 q 264 167 207 232 q 422 103 321 103 q 621 181 525 103 l 664 79 q 551 14 619 38 q 407 -10 482 -10 z "},"ć":{"ha":693,"x_min":61,"x_max":664,"o":"m 407 -10 q 223 35 301 -10 q 103 160 144 79 q 61 350 61 242 q 105 542 61 458 q 228 671 149 625 q 413 717 307 717 q 554 692 486 717 q 664 626 622 668 l 621 525 q 422 603 522 603 q 264 537 321 603 q 207 351 207 471 q 264 167 207 232 q 422 103 321 103 q 621 181 525 103 l 664 79 q 551 14 619 38 q 407 -10 482 -10 m 360 790 l 499 1075 l 650 1075 l 453 790 l 360 790 z "},"č":{"ha":693,"x_min":61,"x_max":664,"o":"m 407 -10 q 223 35 301 -10 q 103 160 144 79 q 61 350 61 242 q 105 542 61 458 q 228 671 149 625 q 413 717 307 717 q 554 692 486 717 q 664 626 622 668 l 621 525 q 422 603 522 603 q 264 537 321 603 q 207 351 207 471 q 264 167 207 232 q 422 103 321 103 q 621 181 525 103 l 664 79 q 551 14 619 38 q 407 -10 482 -10 m 622 1075 l 453 790 l 360 790 l 190 1075 l 311 1075 l 407 883 l 501 1075 l 622 1075 z "},"ç":{"ha":693,"x_min":61,"x_max":664,"o":"m 664 79 q 560 18 622 42 q 431 -10 499 -6 l 424 -60 q 453 -57 433 -57 q 531 -82 500 -57 q 563 -154 563 -107 q 517 -239 563 -206 q 393 -272 472 -272 q 328 -265 363 -272 q 267 -246 293 -258 l 285 -179 q 392 -199 336 -199 q 446 -187 426 -199 q 465 -154 465 -176 q 417 -119 465 -119 q 357 -131 390 -119 l 331 -107 l 342 -6 q 136 109 211 14 q 61 350 61 204 q 105 542 61 458 q 228 671 149 625 q 413 717 307 717 q 554 692 486 717 q 664 626 622 668 l 621 525 q 422 603 522 603 q 264 537 321 603 q 207 351 207 471 q 264 167 207 232 q 422 103 321 103 q 621 181 525 103 l 664 79 z "},"ḉ":{"ha":693,"x_min":61,"x_max":664,"o":"m 453 790 l 360 790 l 499 1075 l 650 1075 l 453 790 m 664 79 q 560 18 622 42 q 431 -10 499 -6 l 424 -60 q 453 -57 433 -57 q 531 -82 500 -57 q 563 -154 563 -107 q 517 -239 563 -206 q 393 -272 472 -272 q 328 -265 363 -272 q 267 -246 293 -258 l 285 -179 q 392 -199 336 -199 q 446 -187 426 -199 q 465 -154 465 -176 q 417 -119 465 -119 q 357 -131 390 -119 l 331 -107 l 342 -6 q 136 109 211 14 q 61 350 61 204 q 105 542 61 458 q 228 671 149 625 q 413 717 307 717 q 554 692 486 717 q 664 626 622 668 l 621 525 q 422 603 522 603 q 264 537 321 603 q 207 351 207 471 q 264 167 207 232 q 422 103 321 103 q 621 181 525 103 l 664 79 z "},"ĉ":{"ha":693,"x_min":61,"x_max":664,"o":"m 407 -10 q 223 35 301 -10 q 103 160 144 79 q 61 350 61 242 q 105 542 61 458 q 228 671 149 625 q 413 717 307 717 q 554 692 486 717 q 664 626 622 668 l 621 525 q 422 603 522 603 q 264 537 321 603 q 207 351 207 471 q 264 167 207 232 q 422 103 321 103 q 621 181 525 103 l 664 79 q 551 14 619 38 q 407 -10 482 -10 m 190 790 l 360 1075 l 453 1075 l 622 790 l 501 790 l 407 979 l 311 790 l 190 790 z "},"ċ":{"ha":693,"x_min":61,"x_max":664,"o":"m 407 -10 q 223 35 301 -10 q 103 160 144 79 q 61 350 61 242 q 105 542 61 458 q 228 671 149 625 q 413 717 307 717 q 554 692 486 717 q 664 626 622 668 l 621 525 q 422 603 522 603 q 264 537 321 603 q 207 351 207 471 q 264 167 207 232 q 422 103 321 103 q 621 181 525 103 l 664 79 q 551 14 619 38 q 407 -10 482 -10 m 488 1006 l 488 858 l 325 858 l 325 1006 l 488 1006 z "},"d":{"ha":846,"x_min":61,"x_max":743,"o":"m 743 1022 l 743 0 l 604 0 l 604 119 q 513 24 574 57 q 372 -10 453 -10 q 211 36 282 -10 q 101 165 140 82 q 61 356 61 247 q 100 546 61 464 q 209 672 139 628 q 372 717 279 717 q 512 683 451 717 q 603 589 572 650 l 603 1022 l 743 1022 m 404 101 q 552 167 500 101 q 604 353 604 233 q 552 538 604 472 q 406 604 500 604 q 256 539 310 604 q 203 356 203 474 q 256 169 203 236 q 404 101 310 101 z "},"ð":{"ha":814,"x_min":61,"x_max":753,"o":"m 608 833 q 716 644 679 750 q 753 415 753 538 q 662 99 753 208 q 400 -10 571 -10 q 223 31 300 -10 q 103 147 146 72 q 61 321 61 222 q 103 494 61 419 q 219 611 144 569 q 390 653 293 653 q 608 560 535 653 q 486 792 582 696 l 253 714 l 226 796 l 407 856 q 221 933 332 907 l 256 1035 q 540 900 424 996 l 724 961 l 747 879 l 608 833 m 403 101 q 550 160 497 101 q 603 321 603 218 q 551 484 603 426 q 404 542 499 542 q 256 484 308 542 q 203 321 203 426 q 254 158 203 214 q 403 101 306 101 z "},"ď":{"ha":846,"x_min":61,"x_max":885,"o":"m 603 1022 l 743 1022 l 743 0 l 604 0 l 604 119 q 513 24 574 57 q 372 -10 453 -10 q 211 36 282 -10 q 101 165 140 82 q 61 356 61 247 q 100 546 61 464 q 209 672 139 628 q 372 717 279 717 q 512 683 451 717 q 603 589 572 650 l 603 1022 m 885 1022 l 847 749 l 788 749 l 788 1022 l 885 1022 m 404 101 q 552 167 500 101 q 604 353 604 233 q 552 538 604 472 q 406 604 500 604 q 256 539 310 604 q 203 356 203 474 q 256 169 203 236 q 404 101 310 101 z "},"đ":{"ha":846,"x_min":61,"x_max":874,"o":"m 874 800 l 743 800 l 743 0 l 604 0 l 604 119 q 513 24 574 57 q 372 -10 453 -10 q 211 36 282 -10 q 101 165 140 82 q 61 356 61 247 q 100 546 61 464 q 209 672 139 628 q 372 717 279 717 q 512 683 451 717 q 603 589 572 650 l 603 800 l 329 800 l 329 903 l 603 903 l 603 1022 l 743 1022 l 743 903 l 874 903 l 874 800 m 404 101 q 552 167 500 101 q 604 353 604 233 q 552 538 604 472 q 406 604 500 604 q 256 539 310 604 q 203 356 203 474 q 256 169 203 236 q 404 101 310 101 z "},"ḍ":{"ha":846,"x_min":61,"x_max":743,"o":"m 743 1022 l 743 0 l 604 0 l 604 119 q 513 24 574 57 q 372 -10 453 -10 q 211 36 282 -10 q 101 165 140 82 q 61 356 61 247 q 100 546 61 464 q 209 672 139 628 q 372 717 279 717 q 512 683 451 717 q 603 589 572 650 l 603 1022 l 743 1022 m 404 101 q 552 167 500 101 q 604 353 604 233 q 552 538 604 472 q 406 604 500 604 q 256 539 310 604 q 203 356 203 474 q 256 169 203 236 q 404 101 310 101 m 499 -121 l 499 -262 l 350 -262 l 350 -121 l 499 -121 z "},"ḏ":{"ha":846,"x_min":61,"x_max":743,"o":"m 743 1022 l 743 0 l 604 0 l 604 119 q 513 24 574 57 q 372 -10 453 -10 q 211 36 282 -10 q 101 165 140 82 q 61 356 61 247 q 100 546 61 464 q 209 672 139 628 q 372 717 279 717 q 512 683 451 717 q 603 589 572 650 l 603 1022 l 743 1022 m 404 101 q 552 167 500 101 q 604 353 604 233 q 552 538 604 472 q 406 604 500 604 q 256 539 310 604 q 203 356 203 474 q 256 169 203 236 q 404 101 310 101 m 211 -144 l 638 -144 l 638 -239 l 211 -239 l 211 -144 z "},"ǆ":{"ha":1571,"x_min":61,"x_max":1514,"o":"m 743 1022 l 743 0 l 604 0 l 604 119 q 513 24 574 57 q 372 -10 453 -10 q 211 36 282 -10 q 101 165 140 82 q 61 356 61 247 q 100 546 61 464 q 209 672 139 628 q 372 717 279 717 q 512 683 451 717 q 603 589 572 650 l 603 1022 l 743 1022 m 404 101 q 552 167 500 101 q 604 353 604 233 q 552 538 604 472 q 406 604 500 604 q 256 539 310 604 q 203 356 203 474 q 256 169 203 236 q 404 101 310 101 m 1514 108 l 1514 0 l 915 0 l 915 97 l 1329 592 l 926 592 l 926 700 l 1499 700 l 1499 601 l 1085 108 l 1514 108 m 1431 1075 l 1261 790 l 1168 790 l 999 1075 l 1119 1075 l 1215 883 l 1310 1075 l 1431 1075 z "},"e":{"ha":758,"x_min":61,"x_max":700,"o":"m 700 347 l 200 347 q 424 101 207 101 q 644 181 544 101 l 688 81 q 567 15 640 39 q 421 -10 494 -10 q 157 87 253 -10 q 61 351 61 183 q 103 542 61 458 q 222 671 146 625 q 396 717 299 717 q 619 625 538 717 q 700 371 700 533 l 700 347 m 399 613 q 269 565 319 613 q 206 431 219 518 l 576 431 q 522 566 568 519 q 399 613 476 613 z "},"é":{"ha":758,"x_min":61,"x_max":700,"o":"m 700 347 l 200 347 q 424 101 207 101 q 644 181 544 101 l 688 81 q 567 15 640 39 q 421 -10 494 -10 q 157 87 253 -10 q 61 351 61 183 q 103 542 61 458 q 222 671 146 625 q 396 717 299 717 q 619 625 538 717 q 700 371 700 533 l 700 347 m 399 613 q 269 565 319 613 q 206 431 219 518 l 576 431 q 522 566 568 519 q 399 613 476 613 m 349 790 l 488 1075 l 639 1075 l 442 790 l 349 790 z "},"ĕ":{"ha":758,"x_min":61,"x_max":700,"o":"m 700 347 l 200 347 q 424 101 207 101 q 644 181 544 101 l 688 81 q 567 15 640 39 q 421 -10 494 -10 q 157 87 253 -10 q 61 351 61 183 q 103 542 61 458 q 222 671 146 625 q 396 717 299 717 q 619 625 538 717 q 700 371 700 533 l 700 347 m 399 613 q 269 565 319 613 q 206 431 219 518 l 576 431 q 522 566 568 519 q 399 613 476 613 m 396 829 q 249 875 314 829 q 156 1014 185 921 l 235 1047 q 306 955 265 983 q 396 926 346 926 q 485 955 444 926 q 556 1047 525 983 l 635 1014 q 542 875 607 921 q 396 829 478 829 z "},"ě":{"ha":758,"x_min":61,"x_max":700,"o":"m 700 347 l 200 347 q 424 101 207 101 q 644 181 544 101 l 688 81 q 567 15 640 39 q 421 -10 494 -10 q 157 87 253 -10 q 61 351 61 183 q 103 542 61 458 q 222 671 146 625 q 396 717 299 717 q 619 625 538 717 q 700 371 700 533 l 700 347 m 399 613 q 269 565 319 613 q 206 431 219 518 l 576 431 q 522 566 568 519 q 399 613 476 613 m 611 1075 l 442 790 l 349 790 l 179 1075 l 300 1075 l 396 883 l 490 1075 l 611 1075 z "},"ḝ":{"ha":758,"x_min":61,"x_max":700,"o":"m 396 829 q 249 875 314 829 q 156 1014 185 921 l 235 1047 q 306 955 265 983 q 396 926 346 926 q 485 955 444 926 q 556 1047 525 983 l 635 1014 q 542 875 607 921 q 396 829 478 829 m 700 347 l 200 347 q 424 101 207 101 q 644 181 544 101 l 688 81 q 581 19 644 43 q 449 -8 517 -4 l 442 -60 q 471 -57 451 -57 q 549 -82 518 -57 q 581 -154 581 -107 q 535 -239 581 -206 q 411 -272 490 -272 q 346 -265 381 -272 q 285 -246 311 -258 l 303 -179 q 410 -199 354 -199 q 464 -187 444 -199 q 483 -154 483 -176 q 435 -119 483 -119 q 375 -131 408 -119 l 349 -107 l 360 -6 q 140 105 218 11 q 61 351 61 199 q 103 542 61 458 q 222 671 146 625 q 396 717 299 717 q 619 625 538 717 q 700 371 700 533 l 700 347 m 399 613 q 269 565 319 613 q 206 431 219 518 l 576 431 q 522 566 568 519 q 399 613 476 613 z "},"ê":{"ha":758,"x_min":61,"x_max":700,"o":"m 700 347 l 200 347 q 424 101 207 101 q 644 181 544 101 l 688 81 q 567 15 640 39 q 421 -10 494 -10 q 157 87 253 -10 q 61 351 61 183 q 103 542 61 458 q 222 671 146 625 q 396 717 299 717 q 619 625 538 717 q 700 371 700 533 l 700 347 m 399 613 q 269 565 319 613 q 206 431 219 518 l 576 431 q 522 566 568 519 q 399 613 476 613 m 179 790 l 349 1075 l 442 1075 l 611 790 l 490 790 l 396 979 l 300 790 l 179 790 z "},"ế":{"ha":758,"x_min":61,"x_max":772,"o":"m 700 347 l 200 347 q 424 101 207 101 q 644 181 544 101 l 688 81 q 567 15 640 39 q 421 -10 494 -10 q 157 87 253 -10 q 61 351 61 183 q 103 542 61 458 q 222 671 146 625 q 396 717 299 717 q 619 625 538 717 q 700 371 700 533 l 700 347 m 399 613 q 269 565 319 613 q 206 431 219 518 l 576 431 q 522 566 568 519 q 399 613 476 613 m 517 936 l 638 1135 l 772 1135 l 596 936 l 517 936 m 179 790 l 351 993 l 439 993 l 611 790 l 494 790 l 396 918 l 296 790 l 179 790 z "},"ệ":{"ha":758,"x_min":61,"x_max":700,"o":"m 700 347 l 200 347 q 424 101 207 101 q 644 181 544 101 l 688 81 q 567 15 640 39 q 421 -10 494 -10 q 157 87 253 -10 q 61 351 61 183 q 103 542 61 458 q 222 671 146 625 q 396 717 299 717 q 619 625 538 717 q 700 371 700 533 l 700 347 m 399 613 q 269 565 319 613 q 206 431 219 518 l 576 431 q 522 566 568 519 q 399 613 476 613 m 492 -121 l 492 -262 l 343 -262 l 343 -121 l 492 -121 m 179 790 l 349 1075 l 442 1075 l 611 790 l 490 790 l 396 979 l 300 790 l 179 790 z "},"ề":{"ha":758,"x_min":61,"x_max":700,"o":"m 700 347 l 200 347 q 424 101 207 101 q 644 181 544 101 l 688 81 q 567 15 640 39 q 421 -10 494 -10 q 157 87 253 -10 q 61 351 61 183 q 103 542 61 458 q 222 671 146 625 q 396 717 299 717 q 619 625 538 717 q 700 371 700 533 l 700 347 m 399 613 q 269 565 319 613 q 206 431 219 518 l 576 431 q 522 566 568 519 q 399 613 476 613 m 417 1135 l 550 1135 l 656 936 l 578 936 l 417 1135 m 179 790 l 351 993 l 439 993 l 611 790 l 494 790 l 396 918 l 296 790 l 179 790 z "},"ể":{"ha":758,"x_min":61,"x_max":711,"o":"m 700 347 l 200 347 q 424 101 207 101 q 644 181 544 101 l 688 81 q 567 15 640 39 q 421 -10 494 -10 q 157 87 253 -10 q 61 351 61 183 q 103 542 61 458 q 222 671 146 625 q 396 717 299 717 q 619 625 538 717 q 700 371 700 533 l 700 347 m 399 613 q 269 565 319 613 q 206 431 219 518 l 576 431 q 522 566 568 519 q 399 613 476 613 m 600 936 l 515 936 l 515 961 q 532 999 515 986 q 578 1024 549 1011 q 601 1035 593 1031 q 610 1047 610 1040 q 596 1065 610 1058 q 556 1072 582 1072 q 472 1054 518 1072 l 450 1118 q 569 1142 508 1142 q 673 1117 635 1142 q 711 1054 711 1093 q 694 1015 711 1028 q 647 989 678 1001 q 612 971 624 979 q 600 949 600 963 l 600 936 m 179 790 l 351 993 l 439 993 l 611 790 l 494 790 l 396 918 l 296 790 l 179 790 z "},"ễ":{"ha":758,"x_min":61,"x_max":700,"o":"m 700 347 l 200 347 q 424 101 207 101 q 644 181 544 101 l 688 81 q 567 15 640 39 q 421 -10 494 -10 q 157 87 253 -10 q 61 351 61 183 q 103 542 61 458 q 222 671 146 625 q 396 717 299 717 q 619 625 538 717 q 700 371 700 533 l 700 347 m 399 613 q 269 565 319 613 q 206 431 219 518 l 576 431 q 522 566 568 519 q 399 613 476 613 m 164 1015 q 201 1116 164 1076 q 297 1156 239 1156 q 351 1147 325 1156 q 413 1124 378 1139 q 455 1107 433 1114 q 492 1100 476 1100 q 538 1116 521 1100 q 556 1156 554 1132 l 626 1156 q 589 1055 626 1094 q 493 1015 551 1015 q 439 1024 465 1015 q 378 1047 413 1032 q 299 1072 325 1072 q 253 1056 269 1072 q 235 1015 236 1039 l 164 1015 m 179 790 l 351 993 l 439 993 l 611 790 l 494 790 l 396 918 l 296 790 l 179 790 z "},"ȅ":{"ha":758,"x_min":61,"x_max":700,"o":"m 700 347 l 200 347 q 424 101 207 101 q 644 181 544 101 l 688 81 q 567 15 640 39 q 421 -10 494 -10 q 157 87 253 -10 q 61 351 61 183 q 103 542 61 458 q 222 671 146 625 q 396 717 299 717 q 619 625 538 717 q 700 371 700 533 l 700 347 m 399 613 q 269 565 319 613 q 206 431 219 518 l 576 431 q 522 566 568 519 q 399 613 476 613 m 164 1075 l 282 1075 l 340 790 l 274 790 l 164 1075 m 340 1075 l 457 1075 l 517 790 l 450 790 l 340 1075 z "},"ë":{"ha":758,"x_min":61,"x_max":700,"o":"m 700 347 l 200 347 q 424 101 207 101 q 644 181 544 101 l 688 81 q 567 15 640 39 q 421 -10 494 -10 q 157 87 253 -10 q 61 351 61 183 q 103 542 61 458 q 222 671 146 625 q 396 717 299 717 q 619 625 538 717 q 700 371 700 533 l 700 347 m 399 613 q 269 565 319 613 q 206 431 219 518 l 576 431 q 522 566 568 519 q 399 613 476 613 m 343 1001 l 343 863 l 199 863 l 199 1001 l 343 1001 m 592 1001 l 592 863 l 447 863 l 447 1001 l 592 1001 z "},"ė":{"ha":758,"x_min":61,"x_max":700,"o":"m 700 347 l 200 347 q 424 101 207 101 q 644 181 544 101 l 688 81 q 567 15 640 39 q 421 -10 494 -10 q 157 87 253 -10 q 61 351 61 183 q 103 542 61 458 q 222 671 146 625 q 396 717 299 717 q 619 625 538 717 q 700 371 700 533 l 700 347 m 399 613 q 269 565 319 613 q 206 431 219 518 l 576 431 q 522 566 568 519 q 399 613 476 613 m 476 1006 l 476 858 l 314 858 l 314 1006 l 476 1006 z "},"ẹ":{"ha":758,"x_min":61,"x_max":700,"o":"m 700 347 l 200 347 q 424 101 207 101 q 644 181 544 101 l 688 81 q 567 15 640 39 q 421 -10 494 -10 q 157 87 253 -10 q 61 351 61 183 q 103 542 61 458 q 222 671 146 625 q 396 717 299 717 q 619 625 538 717 q 700 371 700 533 l 700 347 m 399 613 q 269 565 319 613 q 206 431 219 518 l 576 431 q 522 566 568 519 q 399 613 476 613 m 492 -121 l 492 -262 l 343 -262 l 343 -121 l 492 -121 z "},"è":{"ha":758,"x_min":61,"x_max":700,"o":"m 700 347 l 200 347 q 424 101 207 101 q 644 181 544 101 l 688 81 q 567 15 640 39 q 421 -10 494 -10 q 157 87 253 -10 q 61 351 61 183 q 103 542 61 458 q 222 671 146 625 q 396 717 299 717 q 619 625 538 717 q 700 371 700 533 l 700 347 m 399 613 q 269 565 319 613 q 206 431 219 518 l 576 431 q 522 566 568 519 q 399 613 476 613 m 151 1075 l 303 1075 l 442 790 l 349 790 l 151 1075 z "},"ẻ":{"ha":758,"x_min":61,"x_max":700,"o":"m 700 347 l 200 347 q 424 101 207 101 q 644 181 544 101 l 688 81 q 567 15 640 39 q 421 -10 494 -10 q 157 87 253 -10 q 61 351 61 183 q 103 542 61 458 q 222 671 146 625 q 396 717 299 717 q 619 625 538 717 q 700 371 700 533 l 700 347 m 399 613 q 269 565 319 613 q 206 431 219 518 l 576 431 q 522 566 568 519 q 399 613 476 613 m 439 790 l 356 790 l 356 828 q 369 874 356 856 q 410 919 382 893 q 436 947 428 936 q 444 969 444 957 q 430 994 444 985 q 389 1003 415 1003 q 311 988 353 1003 l 288 1054 q 403 1079 342 1079 q 509 1051 471 1079 q 547 981 547 1022 q 532 928 547 949 q 488 885 517 908 q 451 851 463 865 q 439 815 439 836 l 439 790 z "},"ȇ":{"ha":758,"x_min":61,"x_max":700,"o":"m 700 347 l 200 347 q 424 101 207 101 q 644 181 544 101 l 688 81 q 567 15 640 39 q 421 -10 494 -10 q 157 87 253 -10 q 61 351 61 183 q 103 542 61 458 q 222 671 146 625 q 396 717 299 717 q 619 625 538 717 q 700 371 700 533 l 700 347 m 399 613 q 269 565 319 613 q 206 431 219 518 l 576 431 q 522 566 568 519 q 399 613 476 613 m 396 1043 q 541 997 476 1043 q 635 860 606 951 l 556 826 q 485 919 525 890 q 396 947 444 947 q 306 919 346 947 q 235 826 265 890 l 156 858 q 249 997 183 951 q 396 1043 314 1043 z "},"ē":{"ha":758,"x_min":61,"x_max":700,"o":"m 700 347 l 200 347 q 424 101 207 101 q 644 181 544 101 l 688 81 q 567 15 640 39 q 421 -10 494 -10 q 157 87 253 -10 q 61 351 61 183 q 103 542 61 458 q 222 671 146 625 q 396 717 299 717 q 619 625 538 717 q 700 371 700 533 l 700 347 m 399 613 q 269 565 319 613 q 206 431 219 518 l 576 431 q 522 566 568 519 q 399 613 476 613 m 182 981 l 608 981 l 608 882 l 182 882 l 182 981 z "},"ḗ":{"ha":758,"x_min":61,"x_max":700,"o":"m 700 347 l 200 347 q 424 101 207 101 q 644 181 544 101 l 688 81 q 567 15 640 39 q 421 -10 494 -10 q 157 87 253 -10 q 61 351 61 183 q 103 542 61 458 q 222 671 146 625 q 396 717 299 717 q 619 625 538 717 q 700 371 700 533 l 700 347 m 399 613 q 269 565 319 613 q 206 431 219 518 l 576 431 q 522 566 568 519 q 399 613 476 613 m 182 981 l 608 981 l 608 882 l 182 882 l 182 981 m 349 1060 l 488 1344 l 639 1344 l 442 1060 l 349 1060 z "},"ḕ":{"ha":758,"x_min":61,"x_max":700,"o":"m 700 347 l 200 347 q 424 101 207 101 q 644 181 544 101 l 688 81 q 567 15 640 39 q 421 -10 494 -10 q 157 87 253 -10 q 61 351 61 183 q 103 542 61 458 q 222 671 146 625 q 396 717 299 717 q 619 625 538 717 q 700 371 700 533 l 700 347 m 399 613 q 269 565 319 613 q 206 431 219 518 l 576 431 q 522 566 568 519 q 399 613 476 613 m 182 981 l 608 981 l 608 882 l 182 882 l 182 981 m 151 1344 l 303 1344 l 442 1060 l 349 1060 l 151 1344 z "},"ę":{"ha":758,"x_min":61,"x_max":700,"o":"m 700 347 l 200 347 q 424 101 207 101 q 644 181 544 101 l 688 82 q 662 61 676 71 q 613 35 647 51 q 518 -34 546 -1 q 490 -107 490 -67 q 515 -170 490 -147 q 582 -193 539 -193 q 664 -171 621 -193 l 686 -247 q 560 -278 632 -278 q 435 -235 483 -278 q 388 -126 388 -193 q 439 -10 388 -57 l 421 -10 q 157 87 253 -10 q 61 351 61 183 q 103 542 61 458 q 222 671 146 625 q 396 717 299 717 q 619 625 538 717 q 700 371 700 533 l 700 347 m 399 613 q 269 565 319 613 q 206 431 219 517 l 576 431 q 522 566 568 519 q 399 613 476 613 z "},"ẽ":{"ha":758,"x_min":61,"x_max":700,"o":"m 700 347 l 200 347 q 424 101 207 101 q 644 181 544 101 l 688 81 q 567 15 640 39 q 421 -10 494 -10 q 157 87 253 -10 q 61 351 61 183 q 103 542 61 458 q 222 671 146 625 q 396 717 299 717 q 619 625 538 717 q 700 371 700 533 l 700 347 m 399 613 q 269 565 319 613 q 206 431 219 518 l 576 431 q 522 566 568 519 q 399 613 476 613 m 164 850 q 201 977 164 932 q 297 1022 238 1022 q 351 1011 325 1022 q 413 978 376 1000 q 459 951 442 960 q 492 943 476 943 q 538 964 521 943 q 556 1018 554 985 l 626 1018 q 590 890 626 935 q 493 846 553 846 q 440 857 465 846 q 378 890 414 868 q 330 916 346 908 q 299 924 314 924 q 253 903 269 924 q 235 850 236 882 l 164 850 z "},"ə":{"ha":758,"x_min":58,"x_max":696,"o":"m 347 717 q 532 673 453 717 q 653 547 611 629 q 696 354 696 465 q 656 163 696 244 q 542 35 615 81 q 371 -10 468 -10 q 142 82 225 -10 q 58 336 58 174 l 58 358 l 560 358 q 340 606 553 606 q 114 526 233 606 l 69 625 q 195 692 121 668 q 347 717 269 717 m 367 93 q 494 140 446 93 q 556 275 543 186 l 186 275 q 241 140 194 188 q 367 93 288 93 z "},"f":{"ha":488,"x_min":8,"x_max":469,"o":"m 399 910 q 283 778 283 910 l 283 700 l 447 700 l 447 592 l 283 592 l 283 0 l 143 0 l 143 592 l 8 592 l 8 700 l 143 700 l 143 789 q 202 967 143 906 q 368 1028 261 1028 q 469 1014 424 1028 l 469 899 q 399 910 432 910 z "},"g":{"ha":851,"x_min":61,"x_max":749,"o":"m 749 700 l 749 13 q 665 -228 749 -147 q 415 -310 581 -310 q 136 -240 256 -310 l 160 -131 q 285 -182 225 -165 q 414 -199 346 -199 q 610 1 610 -199 l 610 153 q 517 56 578 92 q 375 21 456 21 q 212 64 283 21 q 101 186 140 107 q 61 368 61 265 q 101 550 61 471 q 212 673 140 629 q 375 717 283 717 q 517 683 456 717 q 610 586 578 649 l 610 700 l 749 700 m 407 133 q 556 196 501 133 q 610 368 610 258 q 556 541 610 478 q 407 604 503 604 q 258 541 313 604 q 203 368 203 478 q 258 197 203 260 q 407 133 313 133 z "},"ğ":{"ha":851,"x_min":61,"x_max":749,"o":"m 749 700 l 749 13 q 665 -228 749 -147 q 415 -310 581 -310 q 136 -240 256 -310 l 160 -131 q 285 -182 225 -165 q 414 -199 346 -199 q 610 1 610 -199 l 610 153 q 517 56 578 92 q 375 21 456 21 q 212 64 283 21 q 101 186 140 107 q 61 368 61 265 q 101 550 61 471 q 212 673 140 629 q 375 717 283 717 q 517 683 456 717 q 610 586 578 649 l 610 700 l 749 700 m 407 133 q 556 196 501 133 q 610 368 610 258 q 556 541 610 478 q 407 604 503 604 q 258 541 313 604 q 203 368 203 478 q 258 197 203 260 q 407 133 313 133 m 428 829 q 281 875 346 829 q 188 1014 217 921 l 267 1047 q 338 955 297 983 q 428 926 378 926 q 517 955 476 926 q 588 1047 557 983 l 667 1014 q 574 875 639 921 q 428 829 510 829 z "},"ǧ":{"ha":851,"x_min":61,"x_max":749,"o":"m 749 700 l 749 13 q 665 -228 749 -147 q 415 -310 581 -310 q 136 -240 256 -310 l 160 -131 q 285 -182 225 -165 q 414 -199 346 -199 q 610 1 610 -199 l 610 153 q 517 56 578 92 q 375 21 456 21 q 212 64 283 21 q 101 186 140 107 q 61 368 61 265 q 101 550 61 471 q 212 673 140 629 q 375 717 283 717 q 517 683 456 717 q 610 586 578 649 l 610 700 l 749 700 m 407 133 q 556 196 501 133 q 610 368 610 258 q 556 541 610 478 q 407 604 503 604 q 258 541 313 604 q 203 368 203 478 q 258 197 203 260 q 407 133 313 133 m 643 1075 l 474 790 l 381 790 l 211 1075 l 332 1075 l 428 883 l 522 1075 l 643 1075 z "},"ĝ":{"ha":851,"x_min":61,"x_max":749,"o":"m 749 700 l 749 13 q 665 -228 749 -147 q 415 -310 581 -310 q 136 -240 256 -310 l 160 -131 q 285 -182 225 -165 q 414 -199 346 -199 q 610 1 610 -199 l 610 153 q 517 56 578 92 q 375 21 456 21 q 212 64 283 21 q 101 186 140 107 q 61 368 61 265 q 101 550 61 471 q 212 673 140 629 q 375 717 283 717 q 517 683 456 717 q 610 586 578 649 l 610 700 l 749 700 m 407 133 q 556 196 501 133 q 610 368 610 258 q 556 541 610 478 q 407 604 503 604 q 258 541 313 604 q 203 368 203 478 q 258 197 203 260 q 407 133 313 133 m 211 790 l 381 1075 l 474 1075 l 643 790 l 522 790 l 428 979 l 332 790 l 211 790 z "},"ģ":{"ha":851,"x_min":61,"x_max":749,"o":"m 749 700 l 749 13 q 665 -228 749 -147 q 415 -310 581 -310 q 136 -240 256 -310 l 160 -131 q 285 -182 225 -165 q 414 -199 346 -199 q 610 1 610 -199 l 610 153 q 517 56 578 92 q 375 21 456 21 q 212 64 283 21 q 101 186 140 107 q 61 368 61 265 q 101 550 61 471 q 212 673 140 629 q 375 717 283 717 q 517 683 456 717 q 610 586 578 649 l 610 700 l 749 700 m 407 133 q 556 196 501 133 q 610 368 610 258 q 556 541 610 478 q 407 604 503 604 q 258 541 313 604 q 203 368 203 478 q 258 197 203 260 q 407 133 313 133 m 506 958 l 506 831 l 349 831 l 349 914 q 365 1018 349 974 q 424 1101 382 1063 l 481 1060 q 445 1010 456 1035 q 432 958 435 986 l 506 958 z "},"ġ":{"ha":851,"x_min":61,"x_max":749,"o":"m 749 700 l 749 13 q 665 -228 749 -147 q 415 -310 581 -310 q 136 -240 256 -310 l 160 -131 q 285 -182 225 -165 q 414 -199 346 -199 q 610 1 610 -199 l 610 153 q 517 56 578 92 q 375 21 456 21 q 212 64 283 21 q 101 186 140 107 q 61 368 61 265 q 101 550 61 471 q 212 673 140 629 q 375 717 283 717 q 517 683 456 717 q 610 586 578 649 l 610 700 l 749 700 m 407 133 q 556 196 501 133 q 610 368 610 258 q 556 541 610 478 q 407 604 503 604 q 258 541 313 604 q 203 368 203 478 q 258 197 203 260 q 407 133 313 133 m 508 1006 l 508 858 l 346 858 l 346 1006 l 508 1006 z "},"ḡ":{"ha":851,"x_min":61,"x_max":749,"o":"m 749 700 l 749 13 q 665 -228 749 -147 q 415 -310 581 -310 q 136 -240 256 -310 l 160 -131 q 285 -182 225 -165 q 414 -199 346 -199 q 610 1 610 -199 l 610 153 q 517 56 578 92 q 375 21 456 21 q 212 64 283 21 q 101 186 140 107 q 61 368 61 265 q 101 550 61 471 q 212 673 140 629 q 375 717 283 717 q 517 683 456 717 q 610 586 578 649 l 610 700 l 749 700 m 407 133 q 556 196 501 133 q 610 368 610 258 q 556 541 610 478 q 407 604 503 604 q 258 541 313 604 q 203 368 203 478 q 258 197 203 260 q 407 133 313 133 m 214 981 l 640 981 l 640 882 l 214 882 l 214 981 z "},"h":{"ha":824,"x_min":103,"x_max":726,"o":"m 475 717 q 726 436 726 717 l 726 0 l 586 0 l 586 428 q 551 561 586 519 q 438 603 515 603 q 295 547 349 603 q 242 399 242 492 l 242 0 l 103 0 l 103 1022 l 242 1022 l 242 592 q 338 685 276 653 q 475 717 399 717 z "},"ħ":{"ha":824,"x_min":-28,"x_max":726,"o":"m 475 717 q 726 436 726 717 l 726 0 l 586 0 l 586 428 q 551 561 586 519 q 438 603 515 603 q 295 547 349 603 q 242 399 242 492 l 242 0 l 103 0 l 103 800 l -28 800 l -28 903 l 103 903 l 103 1022 l 242 1022 l 242 903 l 517 903 l 517 800 l 242 800 l 242 592 q 338 685 276 653 q 475 717 399 717 z "},"ḫ":{"ha":824,"x_min":103,"x_max":726,"o":"m 475 717 q 726 436 726 717 l 726 0 l 586 0 l 586 428 q 551 561 586 519 q 438 603 515 603 q 295 547 349 603 q 242 399 242 492 l 242 0 l 103 0 l 103 1022 l 242 1022 l 242 592 q 338 685 276 653 q 475 717 399 717 m 414 -301 q 267 -256 332 -301 q 174 -118 203 -211 l 253 -85 q 324 -177 283 -149 q 414 -206 364 -206 q 503 -177 463 -206 q 574 -85 543 -149 l 653 -118 q 560 -256 625 -211 q 414 -301 496 -301 z "},"ĥ":{"ha":824,"x_min":-43,"x_max":726,"o":"m 475 717 q 726 436 726 717 l 726 0 l 586 0 l 586 428 q 551 561 586 519 q 438 603 515 603 q 295 547 349 603 q 242 399 242 492 l 242 0 l 103 0 l 103 1022 l 242 1022 l 242 592 q 338 685 276 653 q 475 717 399 717 m -43 1107 l 129 1321 l 217 1321 l 389 1107 l 271 1107 l 174 1244 l 75 1107 l -43 1107 z "},"ḥ":{"ha":824,"x_min":103,"x_max":726,"o":"m 475 717 q 726 436 726 717 l 726 0 l 586 0 l 586 428 q 551 561 586 519 q 438 603 515 603 q 295 547 349 603 q 242 399 242 492 l 242 0 l 103 0 l 103 1022 l 242 1022 l 242 592 q 338 685 276 653 q 475 717 399 717 m 488 -121 l 488 -262 l 339 -262 l 339 -121 l 488 -121 z "},"i":{"ha":344,"x_min":90,"x_max":253,"o":"m 103 700 l 242 700 l 242 0 l 103 0 l 103 700 m 253 1006 l 253 858 l 90 858 l 90 1006 l 253 1006 z "},"ı":{"ha":344,"x_min":103,"x_max":242,"o":"m 103 700 l 242 700 l 242 0 l 103 0 l 103 700 z "},"í":{"ha":344,"x_min":103,"x_max":415,"o":"m 103 700 l 242 700 l 242 0 l 103 0 l 103 700 m 125 790 l 264 1075 l 415 1075 l 218 790 l 125 790 z "},"ĭ":{"ha":344,"x_min":-68,"x_max":411,"o":"m 103 700 l 242 700 l 242 0 l 103 0 l 103 700 m 172 829 q 26 875 90 829 q -68 1014 -39 921 l 11 1047 q 82 955 42 983 q 172 926 122 926 q 261 955 221 926 q 332 1047 301 983 l 411 1014 q 319 875 383 921 q 172 829 254 829 z "},"î":{"ha":344,"x_min":-44,"x_max":388,"o":"m 103 700 l 242 700 l 242 0 l 103 0 l 103 700 m -44 790 l 125 1075 l 218 1075 l 388 790 l 267 790 l 172 979 l 76 790 l -44 790 z "},"ȉ":{"ha":344,"x_min":-60,"x_max":293,"o":"m 103 700 l 242 700 l 242 0 l 103 0 l 103 700 m -60 1075 l 58 1075 l 117 790 l 50 790 l -60 1075 m 117 1075 l 233 1075 l 293 790 l 226 790 l 117 1075 z "},"ï":{"ha":344,"x_min":-25,"x_max":368,"o":"m 103 700 l 242 700 l 242 0 l 103 0 l 103 700 m 119 1001 l 119 863 l -25 863 l -25 1001 l 119 1001 m 368 1001 l 368 863 l 224 863 l 224 1001 l 368 1001 z "},"ḯ":{"ha":344,"x_min":-25,"x_max":415,"o":"m 103 700 l 242 700 l 242 0 l 103 0 l 103 700 m 119 1001 l 119 863 l -25 863 l -25 1001 l 119 1001 m 368 1001 l 368 863 l 224 863 l 224 1001 l 368 1001 m 125 1060 l 264 1344 l 415 1344 l 218 1060 l 125 1060 z "},"ị":{"ha":344,"x_min":90,"x_max":253,"o":"m 103 700 l 242 700 l 242 0 l 103 0 l 103 700 m 253 1006 l 253 858 l 90 858 l 90 1006 l 253 1006 m 244 -121 l 244 -262 l 96 -262 l 96 -121 l 244 -121 z "},"ì":{"ha":344,"x_min":-72,"x_max":242,"o":"m 103 700 l 242 700 l 242 0 l 103 0 l 103 700 m -72 1075 l 79 1075 l 218 790 l 125 790 l -72 1075 z "},"ỉ":{"ha":344,"x_min":64,"x_max":324,"o":"m 103 700 l 242 700 l 242 0 l 103 0 l 103 700 m 215 790 l 132 790 l 132 828 q 145 874 132 856 q 186 919 158 893 q 213 947 204 936 q 221 969 221 957 q 206 994 221 985 q 165 1003 192 1003 q 88 988 129 1003 l 64 1054 q 179 1079 118 1079 q 285 1051 247 1079 q 324 981 324 1022 q 308 928 324 949 q 264 885 293 908 q 227 851 239 865 q 215 815 215 836 l 215 790 z "},"ȋ":{"ha":344,"x_min":-68,"x_max":411,"o":"m 103 700 l 242 700 l 242 0 l 103 0 l 103 700 m 172 1043 q 317 997 253 1043 q 411 860 382 951 l 332 826 q 261 919 301 890 q 172 947 221 947 q 82 919 122 947 q 11 826 42 890 l -68 858 q 25 997 -40 951 q 172 1043 90 1043 z "},"ī":{"ha":344,"x_min":-42,"x_max":385,"o":"m 103 700 l 242 700 l 242 0 l 103 0 l 103 700 m -42 981 l 385 981 l 385 882 l -42 882 l -42 981 z "},"į":{"ha":344,"x_min":6,"x_max":304,"o":"m 254 863 l 90 863 l 90 1011 l 254 1011 l 254 863 m 304 -247 q 175 -278 246 -278 q 53 -235 100 -278 q 6 -125 6 -193 q 31 -36 6 -76 q 103 29 56 4 l 103 700 l 242 700 l 242 0 l 233 0 q 140 -31 175 0 q 106 -107 106 -61 q 131 -171 106 -149 q 199 -193 156 -193 q 281 -171 238 -193 l 304 -247 z "},"ĩ":{"ha":344,"x_min":-60,"x_max":403,"o":"m 103 700 l 242 700 l 242 0 l 103 0 l 103 700 m -60 850 q -23 977 -60 932 q 74 1022 14 1022 q 127 1011 101 1022 q 189 978 153 1000 q 235 951 218 960 q 268 943 253 943 q 314 964 297 943 q 332 1018 331 985 l 403 1018 q 366 890 403 935 q 269 846 329 846 q 216 857 242 846 q 154 890 190 868 q 106 916 122 908 q 75 924 90 924 q 29 903 46 924 q 11 850 13 882 l -60 850 z "},"j":{"ha":344,"x_min":-81,"x_max":253,"o":"m -81 -178 q -12 -189 -42 -189 q 103 -57 103 -189 l 103 700 l 242 700 l 242 -68 q 183 -246 242 -185 q 19 -307 125 -307 q -81 -293 -35 -307 l -81 -178 m 253 1006 l 253 858 l 90 858 l 90 1006 l 253 1006 z "},"ȷ":{"ha":344,"x_min":-81,"x_max":242,"o":"m -81 -178 q -12 -189 -42 -189 q 103 -57 103 -189 l 103 700 l 242 700 l 242 -68 q 183 -246 242 -185 q 19 -307 125 -307 q -81 -293 -35 -307 l -81 -178 z "},"ĵ":{"ha":344,"x_min":-81,"x_max":388,"o":"m -81 -178 q -12 -189 -42 -189 q 103 -57 103 -189 l 103 700 l 242 700 l 242 -68 q 183 -246 242 -185 q 19 -307 125 -307 q -81 -293 -35 -307 l -81 -178 m -44 790 l 125 1075 l 218 1075 l 388 790 l 267 790 l 172 979 l 76 790 l -44 790 z "},"k":{"ha":738,"x_min":103,"x_max":756,"o":"m 576 0 l 242 331 l 242 0 l 103 0 l 103 1022 l 242 1022 l 242 383 l 553 699 l 726 699 l 392 363 l 756 0 l 576 0 z "},"ķ":{"ha":738,"x_min":103,"x_max":756,"o":"m 576 0 l 242 331 l 242 0 l 103 0 l 103 1022 l 242 1022 l 242 383 l 553 699 l 726 699 l 392 363 l 756 0 l 576 0 m 446 -99 l 446 -182 q 429 -285 446 -240 q 371 -369 413 -331 l 313 -328 q 349 -278 338 -301 q 363 -226 360 -254 l 289 -226 l 289 -99 l 446 -99 z "},"ĸ":{"ha":738,"x_min":103,"x_max":756,"o":"m 576 0 l 242 331 l 242 0 l 103 0 l 103 700 l 242 700 l 242 383 l 553 699 l 726 699 l 392 363 l 756 0 l 576 0 z "},"l":{"ha":344,"x_min":103,"x_max":242,"o":"m 103 1022 l 242 1022 l 242 0 l 103 0 l 103 1022 z "},"ĺ":{"ha":344,"x_min":103,"x_max":411,"o":"m 103 1022 l 242 1022 l 242 0 l 103 0 l 103 1022 m 125 1107 l 267 1321 l 411 1321 l 218 1107 l 125 1107 z "},"ľ":{"ha":344,"x_min":103,"x_max":386,"o":"m 103 1022 l 242 1022 l 242 0 l 103 0 l 103 1022 m 290 749 l 290 1022 l 386 1022 l 350 749 l 290 749 z "},"ļ":{"ha":344,"x_min":93,"x_max":250,"o":"m 103 1022 l 242 1022 l 242 0 l 103 0 l 103 1022 m 250 -99 l 250 -182 q 233 -285 250 -240 q 175 -369 217 -331 l 117 -328 q 153 -278 142 -301 q 167 -226 164 -254 l 93 -226 l 93 -99 l 250 -99 z "},"ŀ":{"ha":415,"x_min":103,"x_max":457,"o":"m 103 1022 l 242 1022 l 242 0 l 103 0 l 103 1022 m 457 574 l 457 422 l 290 422 l 290 574 l 457 574 z "},"ḷ":{"ha":344,"x_min":97,"x_max":246,"o":"m 103 1022 l 242 1022 l 242 0 l 103 0 l 103 1022 m 246 -121 l 246 -262 l 97 -262 l 97 -121 l 246 -121 z "},"ǉ":{"ha":689,"x_min":103,"x_max":597,"o":"m 103 1022 l 242 1022 l 242 0 l 103 0 l 103 1022 m 264 -178 q 332 -189 303 -189 q 447 -57 447 -189 l 447 700 l 586 700 l 586 -68 q 528 -246 586 -185 q 364 -307 469 -307 q 264 -293 310 -307 l 264 -178 m 597 1006 l 597 858 l 435 858 l 435 1006 l 597 1006 z "},"ḻ":{"ha":344,"x_min":-42,"x_max":385,"o":"m 103 1022 l 242 1022 l 242 0 l 103 0 l 103 1022 m -42 -144 l 385 -144 l 385 -239 l -42 -239 l -42 -144 z "},"ł":{"ha":429,"x_min":-14,"x_max":443,"o":"m 285 486 l 285 0 l 144 0 l 144 406 l 42 346 l -14 443 l 144 535 l 144 1022 l 285 1022 l 285 617 l 388 676 l 443 576 l 285 486 z "},"m":{"ha":1233,"x_min":92,"x_max":1135,"o":"m 901 717 q 1135 436 1135 717 l 1135 0 l 994 0 l 994 429 q 963 561 994 519 q 863 603 932 603 q 735 547 782 603 q 689 396 689 492 l 689 0 l 549 0 l 549 429 q 517 561 549 519 q 417 603 486 603 q 289 547 336 603 q 242 396 242 492 l 242 0 l 103 0 l 103 503 q 92 700 103 613 l 222 700 l 235 583 q 322 682 265 647 q 456 717 379 717 q 668 582 618 717 q 762 681 700 644 q 901 717 824 717 z "},"ṃ":{"ha":1233,"x_min":92,"x_max":1135,"o":"m 901 717 q 1135 436 1135 717 l 1135 0 l 994 0 l 994 429 q 963 561 994 519 q 863 603 932 603 q 735 547 782 603 q 689 396 689 492 l 689 0 l 549 0 l 549 429 q 517 561 549 519 q 417 603 486 603 q 289 547 336 603 q 242 396 242 492 l 242 0 l 103 0 l 103 503 q 92 700 103 613 l 222 700 l 235 583 q 322 682 265 647 q 456 717 379 717 q 668 582 618 717 q 762 681 700 644 q 901 717 824 717 m 693 -121 l 693 -262 l 544 -262 l 544 -121 l 693 -121 z "},"n":{"ha":824,"x_min":92,"x_max":726,"o":"m 475 717 q 726 436 726 717 l 726 0 l 586 0 l 586 428 q 551 561 586 519 q 438 603 515 603 q 295 547 349 603 q 242 399 242 492 l 242 0 l 103 0 l 103 503 q 92 700 103 613 l 222 700 l 235 579 q 331 681 268 646 q 475 717 394 717 z "},"ń":{"ha":824,"x_min":92,"x_max":726,"o":"m 475 717 q 726 436 726 717 l 726 0 l 586 0 l 586 428 q 551 561 586 519 q 438 603 515 603 q 295 547 349 603 q 242 399 242 492 l 242 0 l 103 0 l 103 503 q 92 700 103 613 l 222 700 l 235 579 q 331 681 268 646 q 475 717 394 717 m 367 790 l 506 1075 l 657 1075 l 460 790 l 367 790 z "},"ŉ":{"ha":824,"x_min":92,"x_max":726,"o":"m 285 1060 l 285 976 q 268 872 285 917 q 210 789 251 828 l 153 831 q 188 880 178 856 q 201 932 199 904 l 128 932 l 128 1060 l 285 1060 m 475 717 q 726 436 726 717 l 726 0 l 586 0 l 586 428 q 551 561 586 519 q 438 603 515 603 q 295 547 349 603 q 242 399 242 492 l 242 0 l 103 0 l 103 503 q 92 700 103 613 l 222 700 l 235 579 q 331 681 268 646 q 475 717 394 717 z "},"ň":{"ha":824,"x_min":92,"x_max":726,"o":"m 475 717 q 726 436 726 717 l 726 0 l 586 0 l 586 428 q 551 561 586 519 q 438 603 515 603 q 295 547 349 603 q 242 399 242 492 l 242 0 l 103 0 l 103 503 q 92 700 103 613 l 222 700 l 235 579 q 331 681 268 646 q 475 717 394 717 m 629 1075 l 460 790 l 367 790 l 197 1075 l 318 1075 l 414 883 l 508 1075 l 629 1075 z "},"ņ":{"ha":824,"x_min":92,"x_max":726,"o":"m 475 717 q 726 436 726 717 l 726 0 l 586 0 l 586 428 q 551 561 586 519 q 438 603 515 603 q 295 547 349 603 q 242 399 242 492 l 242 0 l 103 0 l 103 503 q 92 700 103 613 l 222 700 l 235 579 q 331 681 268 646 q 475 717 394 717 m 492 -99 l 492 -182 q 475 -285 492 -240 q 417 -369 458 -331 l 358 -328 q 394 -278 383 -301 q 408 -226 406 -254 l 335 -226 l 335 -99 l 492 -99 z "},"ṅ":{"ha":824,"x_min":92,"x_max":726,"o":"m 475 717 q 726 436 726 717 l 726 0 l 586 0 l 586 428 q 551 561 586 519 q 438 603 515 603 q 295 547 349 603 q 242 399 242 492 l 242 0 l 103 0 l 103 503 q 92 700 103 613 l 222 700 l 235 579 q 331 681 268 646 q 475 717 394 717 m 494 1006 l 494 858 l 332 858 l 332 1006 l 494 1006 z "},"ṇ":{"ha":824,"x_min":92,"x_max":726,"o":"m 475 717 q 726 436 726 717 l 726 0 l 586 0 l 586 428 q 551 561 586 519 q 438 603 515 603 q 295 547 349 603 q 242 399 242 492 l 242 0 l 103 0 l 103 503 q 92 700 103 613 l 222 700 l 235 579 q 331 681 268 646 q 475 717 394 717 m 488 -121 l 488 -262 l 339 -262 l 339 -121 l 488 -121 z "},"ŋ":{"ha":824,"x_min":92,"x_max":726,"o":"m 475 717 q 726 436 726 717 l 726 -39 q 503 -307 726 -307 q 404 -294 450 -307 l 404 -178 q 471 -189 439 -189 q 556 -154 525 -189 q 586 -28 586 -119 l 586 428 q 551 561 586 519 q 438 603 515 603 q 295 547 349 603 q 242 399 242 492 l 242 0 l 103 0 l 103 503 q 92 700 103 613 l 222 700 l 235 579 q 331 681 268 646 q 475 717 394 717 z "},"ǌ":{"ha":1168,"x_min":92,"x_max":1076,"o":"m 475 717 q 726 436 726 717 l 726 0 l 586 0 l 586 428 q 551 561 586 519 q 438 603 515 603 q 295 547 349 603 q 242 399 242 492 l 242 0 l 103 0 l 103 503 q 92 700 103 613 l 222 700 l 235 579 q 331 681 268 646 q 475 717 394 717 m 743 -178 q 811 -189 782 -189 q 926 -57 926 -189 l 926 700 l 1065 700 l 1065 -68 q 1007 -246 1065 -185 q 843 -307 949 -307 q 743 -293 789 -307 l 743 -178 m 1076 1006 l 1076 858 l 914 858 l 914 1006 l 1076 1006 z "},"ṉ":{"ha":824,"x_min":92,"x_max":726,"o":"m 475 717 q 726 436 726 717 l 726 0 l 586 0 l 586 428 q 551 561 586 519 q 438 603 515 603 q 295 547 349 603 q 242 399 242 492 l 242 0 l 103 0 l 103 503 q 92 700 103 613 l 222 700 l 235 579 q 331 681 268 646 q 475 717 394 717 m 200 -144 l 626 -144 l 626 -239 l 200 -239 l 200 -144 z "},"ñ":{"ha":824,"x_min":92,"x_max":726,"o":"m 475 717 q 726 436 726 717 l 726 0 l 586 0 l 586 428 q 551 561 586 519 q 438 603 515 603 q 295 547 349 603 q 242 399 242 492 l 242 0 l 103 0 l 103 503 q 92 700 103 613 l 222 700 l 235 579 q 331 681 268 646 q 475 717 394 717 m 182 850 q 219 977 182 932 q 315 1022 256 1022 q 369 1011 343 1022 q 431 978 394 1000 q 477 951 460 960 q 510 943 494 943 q 556 964 539 943 q 574 1018 572 985 l 644 1018 q 608 890 644 935 q 511 846 571 846 q 458 857 483 846 q 396 890 432 868 q 348 916 364 908 q 317 924 332 924 q 271 903 288 924 q 253 850 254 882 l 182 850 z "},"o":{"ha":807,"x_min":61,"x_max":746,"o":"m 404 -10 q 224 35 301 -10 q 103 161 146 79 q 61 353 61 243 q 103 545 61 463 q 224 672 146 628 q 404 717 301 717 q 583 672 506 717 q 703 545 661 628 q 746 353 746 463 q 703 161 746 243 q 583 35 661 79 q 404 -10 506 -10 m 403 101 q 551 165 500 101 q 603 353 603 229 q 551 539 603 474 q 404 604 499 604 q 256 539 308 604 q 203 353 203 474 q 255 165 203 229 q 403 101 307 101 z "},"ó":{"ha":807,"x_min":61,"x_max":746,"o":"m 404 -10 q 224 35 301 -10 q 103 161 146 79 q 61 353 61 243 q 103 545 61 463 q 224 672 146 628 q 404 717 301 717 q 583 672 506 717 q 703 545 661 628 q 746 353 746 463 q 703 161 746 243 q 583 35 661 79 q 404 -10 506 -10 m 403 101 q 551 165 500 101 q 603 353 603 229 q 551 539 603 474 q 404 604 499 604 q 256 539 308 604 q 203 353 203 474 q 255 165 203 229 q 403 101 307 101 m 357 790 l 496 1075 l 647 1075 l 450 790 l 357 790 z "},"ŏ":{"ha":807,"x_min":61,"x_max":746,"o":"m 404 -10 q 224 35 301 -10 q 103 161 146 79 q 61 353 61 243 q 103 545 61 463 q 224 672 146 628 q 404 717 301 717 q 583 672 506 717 q 703 545 661 628 q 746 353 746 463 q 703 161 746 243 q 583 35 661 79 q 404 -10 506 -10 m 403 101 q 551 165 500 101 q 603 353 603 229 q 551 539 603 474 q 404 604 499 604 q 256 539 308 604 q 203 353 203 474 q 255 165 203 229 q 403 101 307 101 m 404 829 q 258 875 322 829 q 164 1014 193 921 l 243 1047 q 314 955 274 983 q 404 926 354 926 q 493 955 453 926 q 564 1047 533 983 l 643 1014 q 551 875 615 921 q 404 829 486 829 z "},"ô":{"ha":807,"x_min":61,"x_max":746,"o":"m 404 -10 q 224 35 301 -10 q 103 161 146 79 q 61 353 61 243 q 103 545 61 463 q 224 672 146 628 q 404 717 301 717 q 583 672 506 717 q 703 545 661 628 q 746 353 746 463 q 703 161 746 243 q 583 35 661 79 q 404 -10 506 -10 m 403 101 q 551 165 500 101 q 603 353 603 229 q 551 539 603 474 q 404 604 499 604 q 256 539 308 604 q 203 353 203 474 q 255 165 203 229 q 403 101 307 101 m 188 790 l 357 1075 l 450 1075 l 619 790 l 499 790 l 404 979 l 308 790 l 188 790 z "},"ố":{"ha":807,"x_min":61,"x_max":781,"o":"m 404 -10 q 224 35 301 -10 q 103 161 146 79 q 61 353 61 243 q 103 545 61 463 q 224 672 146 628 q 404 717 301 717 q 583 672 506 717 q 703 545 661 628 q 746 353 746 463 q 703 161 746 243 q 583 35 661 79 q 404 -10 506 -10 m 403 101 q 551 165 500 101 q 603 353 603 229 q 551 539 603 474 q 404 604 499 604 q 256 539 308 604 q 203 353 203 474 q 255 165 203 229 q 403 101 307 101 m 525 936 l 646 1135 l 781 1135 l 604 936 l 525 936 m 188 790 l 360 993 l 447 993 l 619 790 l 503 790 l 404 918 l 304 790 l 188 790 z "},"ộ":{"ha":807,"x_min":61,"x_max":746,"o":"m 404 -10 q 224 35 301 -10 q 103 161 146 79 q 61 353 61 243 q 103 545 61 463 q 224 672 146 628 q 404 717 301 717 q 583 672 506 717 q 703 545 661 628 q 746 353 746 463 q 703 161 746 243 q 583 35 661 79 q 404 -10 506 -10 m 403 101 q 551 165 500 101 q 603 353 603 229 q 551 539 603 474 q 404 604 499 604 q 256 539 308 604 q 203 353 203 474 q 255 165 203 229 q 403 101 307 101 m 478 -121 l 478 -262 l 329 -262 l 329 -121 l 478 -121 m 188 790 l 357 1075 l 450 1075 l 619 790 l 499 790 l 404 979 l 308 790 l 188 790 z "},"ồ":{"ha":807,"x_min":61,"x_max":746,"o":"m 404 -10 q 224 35 301 -10 q 103 161 146 79 q 61 353 61 243 q 103 545 61 463 q 224 672 146 628 q 404 717 301 717 q 583 672 506 717 q 703 545 661 628 q 746 353 746 463 q 703 161 746 243 q 583 35 661 79 q 404 -10 506 -10 m 403 101 q 551 165 500 101 q 603 353 603 229 q 551 539 603 474 q 404 604 499 604 q 256 539 308 604 q 203 353 203 474 q 255 165 203 229 q 403 101 307 101 m 425 1135 l 558 1135 l 664 936 l 586 936 l 425 1135 m 188 790 l 360 993 l 447 993 l 619 790 l 503 790 l 404 918 l 304 790 l 188 790 z "},"ổ":{"ha":807,"x_min":61,"x_max":746,"o":"m 404 -10 q 224 35 301 -10 q 103 161 146 79 q 61 353 61 243 q 103 545 61 463 q 224 672 146 628 q 404 717 301 717 q 583 672 506 717 q 703 545 661 628 q 746 353 746 463 q 703 161 746 243 q 583 35 661 79 q 404 -10 506 -10 m 403 101 q 551 165 500 101 q 603 353 603 229 q 551 539 603 474 q 404 604 499 604 q 256 539 308 604 q 203 353 203 474 q 255 165 203 229 q 403 101 307 101 m 608 936 l 524 936 l 524 961 q 540 999 524 986 q 586 1024 557 1011 q 610 1035 601 1031 q 618 1047 618 1040 q 604 1065 618 1058 q 564 1072 590 1072 q 481 1054 526 1072 l 458 1118 q 578 1142 517 1142 q 681 1117 643 1142 q 719 1054 719 1093 q 703 1015 719 1028 q 656 989 686 1001 q 620 971 632 979 q 608 949 608 963 l 608 936 m 188 790 l 360 993 l 447 993 l 619 790 l 503 790 l 404 918 l 304 790 l 188 790 z "},"ỗ":{"ha":807,"x_min":61,"x_max":746,"o":"m 404 -10 q 224 35 301 -10 q 103 161 146 79 q 61 353 61 243 q 103 545 61 463 q 224 672 146 628 q 404 717 301 717 q 583 672 506 717 q 703 545 661 628 q 746 353 746 463 q 703 161 746 243 q 583 35 661 79 q 404 -10 506 -10 m 403 101 q 551 165 500 101 q 603 353 603 229 q 551 539 603 474 q 404 604 499 604 q 256 539 308 604 q 203 353 203 474 q 255 165 203 229 q 403 101 307 101 m 172 1015 q 210 1116 172 1076 q 306 1156 247 1156 q 360 1147 333 1156 q 421 1124 386 1139 q 463 1107 442 1114 q 500 1100 485 1100 q 546 1116 529 1100 q 564 1156 563 1132 l 635 1156 q 597 1055 635 1094 q 501 1015 560 1015 q 447 1024 474 1015 q 386 1047 421 1032 q 307 1072 333 1072 q 261 1056 278 1072 q 243 1015 244 1039 l 172 1015 m 188 790 l 360 993 l 447 993 l 619 790 l 503 790 l 404 918 l 304 790 l 188 790 z "},"ȍ":{"ha":807,"x_min":61,"x_max":746,"o":"m 404 -10 q 224 35 301 -10 q 103 161 146 79 q 61 353 61 243 q 103 545 61 463 q 224 672 146 628 q 404 717 301 717 q 583 672 506 717 q 703 545 661 628 q 746 353 746 463 q 703 161 746 243 q 583 35 661 79 q 404 -10 506 -10 m 403 101 q 551 165 500 101 q 603 353 603 229 q 551 539 603 474 q 404 604 499 604 q 256 539 308 604 q 203 353 203 474 q 255 165 203 229 q 403 101 307 101 m 172 1075 l 290 1075 l 349 790 l 282 790 l 172 1075 m 349 1075 l 465 1075 l 525 790 l 458 790 l 349 1075 z "},"ö":{"ha":807,"x_min":61,"x_max":746,"o":"m 404 -10 q 224 35 301 -10 q 103 161 146 79 q 61 353 61 243 q 103 545 61 463 q 224 672 146 628 q 404 717 301 717 q 583 672 506 717 q 703 545 661 628 q 746 353 746 463 q 703 161 746 243 q 583 35 661 79 q 404 -10 506 -10 m 403 101 q 551 165 500 101 q 603 353 603 229 q 551 539 603 474 q 404 604 499 604 q 256 539 308 604 q 203 353 203 474 q 255 165 203 229 q 403 101 307 101 m 351 1001 l 351 863 l 207 863 l 207 1001 l 351 1001 m 600 1001 l 600 863 l 456 863 l 456 1001 l 600 1001 z "},"ȫ":{"ha":807,"x_min":61,"x_max":746,"o":"m 404 -10 q 224 35 301 -10 q 103 161 146 79 q 61 353 61 243 q 103 545 61 463 q 224 672 146 628 q 404 717 301 717 q 583 672 506 717 q 703 545 661 628 q 746 353 746 463 q 703 161 746 243 q 583 35 661 79 q 404 -10 506 -10 m 403 101 q 551 165 500 101 q 603 353 603 229 q 551 539 603 474 q 404 604 499 604 q 256 539 308 604 q 203 353 203 474 q 255 165 203 229 q 403 101 307 101 m 351 1001 l 351 863 l 207 863 l 207 1001 l 351 1001 m 600 1001 l 600 863 l 456 863 l 456 1001 l 600 1001 m 190 1250 l 617 1250 l 617 1151 l 190 1151 l 190 1250 z "},"ȱ":{"ha":807,"x_min":61,"x_max":746,"o":"m 404 -10 q 224 35 301 -10 q 103 161 146 79 q 61 353 61 243 q 103 545 61 463 q 224 672 146 628 q 404 717 301 717 q 583 672 506 717 q 703 545 661 628 q 746 353 746 463 q 703 161 746 243 q 583 35 661 79 q 404 -10 506 -10 m 403 101 q 551 165 500 101 q 603 353 603 229 q 551 539 603 474 q 404 604 499 604 q 256 539 308 604 q 203 353 203 474 q 255 165 203 229 q 403 101 307 101 m 485 1006 l 485 858 l 322 858 l 322 1006 l 485 1006 m 190 1250 l 617 1250 l 617 1151 l 190 1151 l 190 1250 z "},"ọ":{"ha":807,"x_min":61,"x_max":746,"o":"m 404 -10 q 224 35 301 -10 q 103 161 146 79 q 61 353 61 243 q 103 545 61 463 q 224 672 146 628 q 404 717 301 717 q 583 672 506 717 q 703 545 661 628 q 746 353 746 463 q 703 161 746 243 q 583 35 661 79 q 404 -10 506 -10 m 403 101 q 551 165 500 101 q 603 353 603 229 q 551 539 603 474 q 404 604 499 604 q 256 539 308 604 q 203 353 203 474 q 255 165 203 229 q 403 101 307 101 m 478 -121 l 478 -262 l 329 -262 l 329 -121 l 478 -121 z "},"ò":{"ha":807,"x_min":61,"x_max":746,"o":"m 404 -10 q 224 35 301 -10 q 103 161 146 79 q 61 353 61 243 q 103 545 61 463 q 224 672 146 628 q 404 717 301 717 q 583 672 506 717 q 703 545 661 628 q 746 353 746 463 q 703 161 746 243 q 583 35 661 79 q 404 -10 506 -10 m 403 101 q 551 165 500 101 q 603 353 603 229 q 551 539 603 474 q 404 604 499 604 q 256 539 308 604 q 203 353 203 474 q 255 165 203 229 q 403 101 307 101 m 160 1075 l 311 1075 l 450 790 l 357 790 l 160 1075 z "},"ỏ":{"ha":807,"x_min":61,"x_max":746,"o":"m 404 -10 q 224 35 301 -10 q 103 161 146 79 q 61 353 61 243 q 103 545 61 463 q 224 672 146 628 q 404 717 301 717 q 583 672 506 717 q 703 545 661 628 q 746 353 746 463 q 703 161 746 243 q 583 35 661 79 q 404 -10 506 -10 m 403 101 q 551 165 500 101 q 603 353 603 229 q 551 539 603 474 q 404 604 499 604 q 256 539 308 604 q 203 353 203 474 q 255 165 203 229 q 403 101 307 101 m 447 790 l 364 790 l 364 828 q 377 874 364 856 q 418 919 390 893 q 444 947 436 936 q 453 969 453 957 q 438 994 453 985 q 397 1003 424 1003 q 319 988 361 1003 l 296 1054 q 411 1079 350 1079 q 517 1051 479 1079 q 556 981 556 1022 q 540 928 556 949 q 496 885 525 908 q 459 851 471 865 q 447 815 447 836 l 447 790 z "},"ơ":{"ha":807,"x_min":61,"x_max":757,"o":"m 757 842 q 723 715 757 767 q 625 640 689 663 q 715 520 685 593 q 746 353 746 447 q 703 161 746 243 q 583 35 661 79 q 404 -10 506 -10 q 224 35 301 -10 q 103 161 146 79 q 61 353 61 243 q 103 545 61 463 q 224 672 146 628 q 403 717 301 717 q 474 711 429 717 q 508 707 494 707 q 603 742 572 707 q 635 861 635 776 l 635 883 l 757 883 l 757 842 m 403 101 q 551 165 500 101 q 603 353 603 229 q 551 539 603 474 q 404 604 499 604 q 256 539 308 604 q 203 353 203 474 q 255 165 203 229 q 403 101 307 101 z "},"ớ":{"ha":807,"x_min":61,"x_max":757,"o":"m 757 842 q 723 715 757 767 q 625 640 689 663 q 715 520 685 593 q 746 353 746 447 q 703 161 746 243 q 583 35 661 79 q 404 -10 506 -10 q 224 35 301 -10 q 103 161 146 79 q 61 353 61 243 q 103 545 61 463 q 224 672 146 628 q 403 717 301 717 q 474 711 429 717 q 508 707 494 707 q 603 742 572 707 q 635 861 635 776 l 635 883 l 757 883 l 757 842 m 403 101 q 551 165 500 101 q 603 353 603 229 q 551 539 603 474 q 404 604 499 604 q 256 539 308 604 q 203 353 203 474 q 255 165 203 229 q 403 101 307 101 m 357 790 l 496 1075 l 647 1075 l 450 790 l 357 790 z "},"ợ":{"ha":807,"x_min":61,"x_max":757,"o":"m 757 842 q 723 715 757 767 q 625 640 689 663 q 715 520 685 593 q 746 353 746 447 q 703 161 746 243 q 583 35 661 79 q 404 -10 506 -10 q 224 35 301 -10 q 103 161 146 79 q 61 353 61 243 q 103 545 61 463 q 224 672 146 628 q 403 717 301 717 q 474 711 429 717 q 508 707 494 707 q 603 742 572 707 q 635 861 635 776 l 635 883 l 757 883 l 757 842 m 403 101 q 551 165 500 101 q 603 353 603 229 q 551 539 603 474 q 404 604 499 604 q 256 539 308 604 q 203 353 203 474 q 255 165 203 229 q 403 101 307 101 m 478 -121 l 478 -262 l 329 -262 l 329 -121 l 478 -121 z "},"ờ":{"ha":807,"x_min":61,"x_max":757,"o":"m 757 842 q 723 715 757 767 q 625 640 689 663 q 715 520 685 593 q 746 353 746 447 q 703 161 746 243 q 583 35 661 79 q 404 -10 506 -10 q 224 35 301 -10 q 103 161 146 79 q 61 353 61 243 q 103 545 61 463 q 224 672 146 628 q 403 717 301 717 q 474 711 429 717 q 508 707 494 707 q 603 742 572 707 q 635 861 635 776 l 635 883 l 757 883 l 757 842 m 403 101 q 551 165 500 101 q 603 353 603 229 q 551 539 603 474 q 404 604 499 604 q 256 539 308 604 q 203 353 203 474 q 255 165 203 229 q 403 101 307 101 m 160 1075 l 311 1075 l 450 790 l 357 790 l 160 1075 z "},"ở":{"ha":807,"x_min":61,"x_max":757,"o":"m 757 842 q 723 715 757 767 q 625 640 689 663 q 715 520 685 593 q 746 353 746 447 q 703 161 746 243 q 583 35 661 79 q 404 -10 506 -10 q 224 35 301 -10 q 103 161 146 79 q 61 353 61 243 q 103 545 61 463 q 224 672 146 628 q 403 717 301 717 q 474 711 429 717 q 508 707 494 707 q 603 742 572 707 q 635 861 635 776 l 635 883 l 757 883 l 757 842 m 403 101 q 551 165 500 101 q 603 353 603 229 q 551 539 603 474 q 404 604 499 604 q 256 539 308 604 q 203 353 203 474 q 255 165 203 229 q 403 101 307 101 m 447 790 l 364 790 l 364 828 q 377 874 364 856 q 418 919 390 893 q 444 947 436 936 q 453 969 453 957 q 438 994 453 985 q 397 1003 424 1003 q 319 988 361 1003 l 296 1054 q 411 1079 350 1079 q 517 1051 479 1079 q 556 981 556 1022 q 540 928 556 949 q 496 885 525 908 q 459 851 471 865 q 447 815 447 836 l 447 790 z "},"ỡ":{"ha":807,"x_min":61,"x_max":757,"o":"m 757 842 q 723 715 757 767 q 625 640 689 663 q 715 520 685 593 q 746 353 746 447 q 703 161 746 243 q 583 35 661 79 q 404 -10 506 -10 q 224 35 301 -10 q 103 161 146 79 q 61 353 61 243 q 103 545 61 463 q 224 672 146 628 q 403 717 301 717 q 474 711 429 717 q 508 707 494 707 q 603 742 572 707 q 635 861 635 776 l 635 883 l 757 883 l 757 842 m 403 101 q 551 165 500 101 q 603 353 603 229 q 551 539 603 474 q 404 604 499 604 q 256 539 308 604 q 203 353 203 474 q 255 165 203 229 q 403 101 307 101 m 172 850 q 209 977 172 932 q 306 1022 246 1022 q 359 1011 333 1022 q 421 978 385 1000 q 467 951 450 960 q 500 943 485 943 q 546 964 529 943 q 564 1018 563 985 l 635 1018 q 598 890 635 935 q 501 846 561 846 q 448 857 474 846 q 386 890 422 868 q 338 916 354 908 q 307 924 322 924 q 261 903 278 924 q 243 850 244 882 l 172 850 z "},"ő":{"ha":807,"x_min":61,"x_max":746,"o":"m 404 -10 q 224 35 301 -10 q 103 161 146 79 q 61 353 61 243 q 103 545 61 463 q 224 672 146 628 q 404 717 301 717 q 583 672 506 717 q 703 545 661 628 q 746 353 746 463 q 703 161 746 243 q 583 35 661 79 q 404 -10 506 -10 m 403 101 q 551 165 500 101 q 603 353 603 229 q 551 539 603 474 q 404 604 499 604 q 256 539 308 604 q 203 353 203 474 q 255 165 203 229 q 403 101 307 101 m 282 790 l 342 1075 l 458 1075 l 349 790 l 282 790 m 458 790 l 517 1075 l 635 1075 l 525 790 l 458 790 z "},"ȏ":{"ha":807,"x_min":61,"x_max":746,"o":"m 404 -10 q 224 35 301 -10 q 103 161 146 79 q 61 353 61 243 q 103 545 61 463 q 224 672 146 628 q 404 717 301 717 q 583 672 506 717 q 703 545 661 628 q 746 353 746 463 q 703 161 746 243 q 583 35 661 79 q 404 -10 506 -10 m 403 101 q 551 165 500 101 q 603 353 603 229 q 551 539 603 474 q 404 604 499 604 q 256 539 308 604 q 203 353 203 474 q 255 165 203 229 q 403 101 307 101 m 404 1043 q 549 997 485 1043 q 643 860 614 951 l 564 826 q 493 919 533 890 q 404 947 453 947 q 314 919 354 947 q 243 826 274 890 l 164 858 q 257 997 192 951 q 404 1043 322 1043 z "},"ō":{"ha":807,"x_min":61,"x_max":746,"o":"m 404 -10 q 224 35 301 -10 q 103 161 146 79 q 61 353 61 243 q 103 545 61 463 q 224 672 146 628 q 404 717 301 717 q 583 672 506 717 q 703 545 661 628 q 746 353 746 463 q 703 161 746 243 q 583 35 661 79 q 404 -10 506 -10 m 403 101 q 551 165 500 101 q 603 353 603 229 q 551 539 603 474 q 404 604 499 604 q 256 539 308 604 q 203 353 203 474 q 255 165 203 229 q 403 101 307 101 m 190 981 l 617 981 l 617 882 l 190 882 l 190 981 z "},"ṓ":{"ha":807,"x_min":61,"x_max":746,"o":"m 404 -10 q 224 35 301 -10 q 103 161 146 79 q 61 353 61 243 q 103 545 61 463 q 224 672 146 628 q 404 717 301 717 q 583 672 506 717 q 703 545 661 628 q 746 353 746 463 q 703 161 746 243 q 583 35 661 79 q 404 -10 506 -10 m 403 101 q 551 165 500 101 q 603 353 603 229 q 551 539 603 474 q 404 604 499 604 q 256 539 308 604 q 203 353 203 474 q 255 165 203 229 q 403 101 307 101 m 190 981 l 617 981 l 617 882 l 190 882 l 190 981 m 357 1060 l 496 1344 l 647 1344 l 450 1060 l 357 1060 z "},"ṑ":{"ha":807,"x_min":61,"x_max":746,"o":"m 404 -10 q 224 35 301 -10 q 103 161 146 79 q 61 353 61 243 q 103 545 61 463 q 224 672 146 628 q 404 717 301 717 q 583 672 506 717 q 703 545 661 628 q 746 353 746 463 q 703 161 746 243 q 583 35 661 79 q 404 -10 506 -10 m 403 101 q 551 165 500 101 q 603 353 603 229 q 551 539 603 474 q 404 604 499 604 q 256 539 308 604 q 203 353 203 474 q 255 165 203 229 q 403 101 307 101 m 190 981 l 617 981 l 617 882 l 190 882 l 190 981 m 160 1344 l 311 1344 l 450 1060 l 357 1060 l 160 1344 z "},"ǫ":{"ha":807,"x_min":61,"x_max":746,"o":"m 529 10 q 443 -35 469 -8 q 417 -107 417 -62 q 441 -170 417 -147 q 508 -193 465 -193 q 590 -171 547 -193 l 614 -247 q 486 -278 557 -278 q 363 -235 410 -278 q 315 -126 315 -193 q 365 -8 315 -53 q 143 101 225 4 q 61 353 61 199 q 103 545 61 463 q 224 672 146 628 q 404 717 301 717 q 583 672 506 717 q 703 545 661 628 q 746 353 746 463 q 688 133 746 224 q 529 10 631 42 m 403 101 q 551 165 500 101 q 603 353 603 229 q 551 539 603 474 q 404 604 499 604 q 256 539 308 604 q 203 353 203 474 q 255 165 203 229 q 403 101 307 101 z "},"ø":{"ha":807,"x_min":61,"x_max":746,"o":"m 625 644 q 715 522 683 596 q 746 353 746 447 q 703 161 746 243 q 583 35 661 79 q 404 -10 506 -10 q 260 17 328 -10 l 208 -71 l 132 -26 l 183 63 q 93 184 125 110 q 61 353 61 258 q 103 545 61 463 q 224 672 146 628 q 404 717 301 717 q 549 689 482 717 l 599 776 l 676 733 l 625 644 m 201 353 q 247 172 201 235 l 490 589 q 404 606 453 606 q 254 540 307 606 q 201 353 201 475 m 403 101 q 553 165 501 101 q 606 353 606 229 q 560 532 606 467 l 318 117 q 403 101 356 101 z "},"ǿ":{"ha":807,"x_min":61,"x_max":746,"o":"m 625 644 q 715 522 683 596 q 746 353 746 447 q 703 161 746 243 q 583 35 661 79 q 404 -10 506 -10 q 260 17 328 -10 l 208 -71 l 132 -26 l 183 63 q 93 184 125 110 q 61 353 61 258 q 103 545 61 463 q 224 672 146 628 q 404 717 301 717 q 549 689 482 717 l 599 776 l 676 733 l 625 644 m 201 353 q 247 172 201 235 l 490 589 q 404 606 453 606 q 254 540 307 606 q 201 353 201 475 m 403 101 q 553 165 501 101 q 606 353 606 229 q 560 532 606 467 l 318 117 q 403 101 356 101 m 357 790 l 496 1075 l 647 1075 l 450 790 l 357 790 z "},"õ":{"ha":807,"x_min":61,"x_max":746,"o":"m 404 -10 q 224 35 301 -10 q 103 161 146 79 q 61 353 61 243 q 103 545 61 463 q 224 672 146 628 q 404 717 301 717 q 583 672 506 717 q 703 545 661 628 q 746 353 746 463 q 703 161 746 243 q 583 35 661 79 q 404 -10 506 -10 m 403 101 q 551 165 500 101 q 603 353 603 229 q 551 539 603 474 q 404 604 499 604 q 256 539 308 604 q 203 353 203 474 q 255 165 203 229 q 403 101 307 101 m 172 850 q 209 977 172 932 q 306 1022 246 1022 q 359 1011 333 1022 q 421 978 385 1000 q 467 951 450 960 q 500 943 485 943 q 546 964 529 943 q 564 1018 563 985 l 635 1018 q 598 890 635 935 q 501 846 561 846 q 448 857 474 846 q 386 890 422 868 q 338 916 354 908 q 307 924 322 924 q 261 903 278 924 q 243 850 244 882 l 172 850 z "},"ṍ":{"ha":807,"x_min":61,"x_max":746,"o":"m 404 -10 q 224 35 301 -10 q 103 161 146 79 q 61 353 61 243 q 103 545 61 463 q 224 672 146 628 q 404 717 301 717 q 583 672 506 717 q 703 545 661 628 q 746 353 746 463 q 703 161 746 243 q 583 35 661 79 q 404 -10 506 -10 m 403 101 q 551 165 500 101 q 603 353 603 229 q 551 539 603 474 q 404 604 499 604 q 256 539 308 604 q 203 353 203 474 q 255 165 203 229 q 403 101 307 101 m 172 850 q 209 977 172 932 q 306 1022 246 1022 q 359 1011 333 1022 q 421 978 385 1000 q 467 951 450 960 q 500 943 485 943 q 546 964 529 943 q 564 1018 563 985 l 635 1018 q 598 890 635 935 q 501 846 561 846 q 448 857 474 846 q 386 890 422 868 q 338 916 354 908 q 307 924 322 924 q 261 903 278 924 q 243 850 244 882 l 172 850 m 357 1060 l 496 1344 l 647 1344 l 450 1060 l 357 1060 z "},"ṏ":{"ha":807,"x_min":61,"x_max":746,"o":"m 404 -10 q 224 35 301 -10 q 103 161 146 79 q 61 353 61 243 q 103 545 61 463 q 224 672 146 628 q 404 717 301 717 q 583 672 506 717 q 703 545 661 628 q 746 353 746 463 q 703 161 746 243 q 583 35 661 79 q 404 -10 506 -10 m 403 101 q 551 165 500 101 q 603 353 603 229 q 551 539 603 474 q 404 604 499 604 q 256 539 308 604 q 203 353 203 474 q 255 165 203 229 q 403 101 307 101 m 172 850 q 209 977 172 932 q 306 1022 246 1022 q 359 1011 333 1022 q 421 978 385 1000 q 467 951 450 960 q 500 943 485 943 q 546 964 529 943 q 564 1018 563 985 l 635 1018 q 598 890 635 935 q 501 846 561 846 q 448 857 474 846 q 386 890 422 868 q 338 916 354 908 q 307 924 322 924 q 261 903 278 924 q 243 850 244 882 l 172 850 m 351 1271 l 351 1132 l 207 1132 l 207 1271 l 351 1271 m 600 1271 l 600 1132 l 456 1132 l 456 1271 l 600 1271 z "},"ȭ":{"ha":807,"x_min":61,"x_max":746,"o":"m 404 -10 q 224 35 301 -10 q 103 161 146 79 q 61 353 61 243 q 103 545 61 463 q 224 672 146 628 q 404 717 301 717 q 583 672 506 717 q 703 545 661 628 q 746 353 746 463 q 703 161 746 243 q 583 35 661 79 q 404 -10 506 -10 m 403 101 q 551 165 500 101 q 603 353 603 229 q 551 539 603 474 q 404 604 499 604 q 256 539 308 604 q 203 353 203 474 q 255 165 203 229 q 403 101 307 101 m 172 850 q 209 977 172 932 q 306 1022 246 1022 q 359 1011 333 1022 q 421 978 385 1000 q 467 951 450 960 q 500 943 485 943 q 546 964 529 943 q 564 1018 563 985 l 635 1018 q 598 890 635 935 q 501 846 561 846 q 448 857 474 846 q 386 890 422 868 q 338 916 354 908 q 307 924 322 924 q 261 903 278 924 q 243 850 244 882 l 172 850 m 190 1250 l 617 1250 l 617 1151 l 190 1151 l 190 1250 z "},"œ":{"ha":1294,"x_min":61,"x_max":1236,"o":"m 1236 326 l 744 326 q 960 101 758 101 q 1181 181 1081 101 l 1225 81 q 1106 15 1178 39 q 960 -10 1033 -10 q 788 29 861 -10 q 675 142 715 68 q 563 30 633 69 q 401 -10 493 -10 q 223 35 300 -10 q 103 161 146 79 q 61 353 61 243 q 103 545 61 463 q 223 672 146 628 q 401 717 300 717 q 563 678 493 717 q 674 567 633 639 q 784 677 714 638 q 943 717 854 717 q 1157 624 1078 717 q 1236 371 1236 531 l 1236 326 m 940 613 q 806 559 857 613 q 746 408 756 506 l 1114 408 q 1066 560 1111 507 q 940 613 1021 613 m 401 101 q 549 165 497 101 q 601 353 601 229 q 549 539 601 474 q 403 604 497 604 q 255 539 307 604 q 203 353 203 474 q 254 165 203 229 q 401 101 306 101 z "},"p":{"ha":846,"x_min":92,"x_max":785,"o":"m 474 717 q 635 671 564 717 q 745 542 706 625 q 785 350 785 458 q 746 160 785 242 q 636 35 707 79 q 474 -10 565 -10 q 333 24 393 -10 q 242 122 272 58 l 242 -300 l 103 -300 l 103 503 q 92 700 103 613 l 222 700 l 236 571 q 326 678 264 640 q 474 717 389 717 m 442 101 q 589 167 536 101 q 642 350 642 232 q 589 537 642 469 q 442 604 536 604 q 293 539 344 604 q 242 353 242 474 q 294 167 242 232 q 442 101 346 101 z "},"þ":{"ha":846,"x_min":103,"x_max":785,"o":"m 474 717 q 635 672 564 717 q 745 544 706 626 q 785 350 785 461 q 745 158 785 240 q 635 33 706 76 q 474 -10 564 -10 q 333 24 393 -10 q 242 122 272 58 l 242 -300 l 103 -300 l 103 1022 l 242 1022 l 242 585 q 333 682 272 647 q 474 717 393 717 m 442 101 q 590 167 538 101 q 642 350 642 232 q 589 536 642 468 q 442 604 536 604 q 293 539 344 604 q 242 353 242 474 q 294 167 242 232 q 442 101 346 101 z "},"q":{"ha":846,"x_min":61,"x_max":754,"o":"m 754 700 q 743 503 743 613 l 743 -300 l 603 -300 l 603 117 q 511 23 571 56 q 372 -10 451 -10 q 209 35 279 -10 q 100 160 139 79 q 61 350 61 242 q 101 542 61 458 q 211 671 140 625 q 372 717 282 717 q 518 679 456 717 q 610 574 581 642 l 624 700 l 754 700 m 406 101 q 552 167 500 101 q 604 353 604 233 q 552 539 604 474 q 404 604 500 604 q 256 537 310 604 q 203 350 203 469 q 256 167 203 232 q 406 101 310 101 z "},"r":{"ha":522,"x_min":92,"x_max":518,"o":"m 451 717 q 518 707 483 717 l 515 579 q 433 593 478 593 q 290 535 338 593 q 242 390 242 478 l 242 0 l 103 0 l 103 503 q 92 700 103 613 l 222 700 l 235 574 q 321 680 263 643 q 451 717 379 717 z "},"ŕ":{"ha":522,"x_min":92,"x_max":557,"o":"m 451 717 q 518 707 483 717 l 515 579 q 433 593 478 593 q 290 535 338 593 q 242 390 242 478 l 242 0 l 103 0 l 103 503 q 92 700 103 613 l 222 700 l 235 574 q 321 680 263 643 q 451 717 379 717 m 267 790 l 406 1075 l 557 1075 l 360 790 l 267 790 z "},"ř":{"ha":522,"x_min":92,"x_max":529,"o":"m 451 717 q 518 707 483 717 l 515 579 q 433 593 478 593 q 290 535 338 593 q 242 390 242 478 l 242 0 l 103 0 l 103 503 q 92 700 103 613 l 222 700 l 235 574 q 321 680 263 643 q 451 717 379 717 m 529 1075 l 360 790 l 267 790 l 97 1075 l 218 1075 l 314 883 l 408 1075 l 529 1075 z "},"ŗ":{"ha":522,"x_min":92,"x_max":518,"o":"m 451 717 q 518 707 483 717 l 515 579 q 433 593 478 593 q 290 535 338 593 q 242 390 242 478 l 242 0 l 103 0 l 103 503 q 92 700 103 613 l 222 700 l 235 574 q 321 680 263 643 q 451 717 379 717 m 250 -99 l 250 -182 q 233 -285 250 -240 q 175 -369 217 -331 l 117 -328 q 153 -278 142 -301 q 167 -226 164 -254 l 93 -226 l 93 -99 l 250 -99 z "},"ȑ":{"ha":522,"x_min":82,"x_max":518,"o":"m 451 717 q 518 707 483 717 l 515 579 q 433 593 478 593 q 290 535 338 593 q 242 390 242 478 l 242 0 l 103 0 l 103 503 q 92 700 103 613 l 222 700 l 235 574 q 321 680 263 643 q 451 717 379 717 m 82 1075 l 200 1075 l 258 790 l 192 790 l 82 1075 m 258 1075 l 375 1075 l 435 790 l 368 790 l 258 1075 z "},"ṛ":{"ha":522,"x_min":92,"x_max":518,"o":"m 451 717 q 518 707 483 717 l 515 579 q 433 593 478 593 q 290 535 338 593 q 242 390 242 478 l 242 0 l 103 0 l 103 503 q 92 700 103 613 l 222 700 l 235 574 q 321 680 263 643 q 451 717 379 717 m 246 -121 l 246 -262 l 97 -262 l 97 -121 l 246 -121 z "},"ȓ":{"ha":522,"x_min":74,"x_max":553,"o":"m 451 717 q 518 707 483 717 l 515 579 q 433 593 478 593 q 290 535 338 593 q 242 390 242 478 l 242 0 l 103 0 l 103 503 q 92 700 103 613 l 222 700 l 235 574 q 321 680 263 643 q 451 717 379 717 m 314 1043 q 459 997 394 1043 q 553 860 524 951 l 474 826 q 403 919 443 890 q 314 947 363 947 q 224 919 264 947 q 153 826 183 890 l 74 858 q 167 997 101 951 q 314 1043 232 1043 z "},"ṟ":{"ha":522,"x_min":-42,"x_max":518,"o":"m 451 717 q 518 707 483 717 l 515 579 q 433 593 478 593 q 290 535 338 593 q 242 390 242 478 l 242 0 l 103 0 l 103 503 q 92 700 103 613 l 222 700 l 235 574 q 321 680 263 643 q 451 717 379 717 m -42 -144 l 385 -144 l 385 -239 l -42 -239 l -42 -144 z "},"s":{"ha":692,"x_min":58,"x_max":629,"o":"m 347 -10 q 58 79 164 -10 l 100 181 q 351 97 210 97 q 461 122 424 97 q 499 190 499 146 q 473 249 499 228 q 386 286 447 271 l 269 314 q 130 383 178 333 q 82 506 82 432 q 158 658 82 600 q 358 717 233 717 q 501 693 433 717 q 615 626 568 669 l 572 528 q 358 608 471 608 q 253 583 290 608 q 215 511 215 557 q 239 453 215 475 q 314 418 263 431 l 433 389 q 581 319 533 367 q 629 194 629 271 q 553 45 629 100 q 347 -10 478 -10 z "},"ś":{"ha":692,"x_min":58,"x_max":629,"o":"m 347 -10 q 58 79 164 -10 l 100 181 q 351 97 210 97 q 461 122 424 97 q 499 190 499 146 q 473 249 499 228 q 386 286 447 271 l 269 314 q 130 383 178 333 q 82 506 82 432 q 158 658 82 600 q 358 717 233 717 q 501 693 433 717 q 615 626 568 669 l 572 528 q 358 608 471 608 q 253 583 290 608 q 215 511 215 557 q 239 453 215 475 q 314 418 263 431 l 433 389 q 581 319 533 367 q 629 194 629 271 q 553 45 629 100 q 347 -10 478 -10 m 311 790 l 450 1075 l 601 1075 l 404 790 l 311 790 z "},"ṥ":{"ha":692,"x_min":58,"x_max":629,"o":"m 347 -10 q 58 79 164 -10 l 100 181 q 351 97 210 97 q 461 122 424 97 q 499 190 499 146 q 473 249 499 228 q 386 286 447 271 l 269 314 q 130 383 178 333 q 82 506 82 432 q 158 658 82 600 q 358 717 233 717 q 501 693 433 717 q 615 626 568 669 l 572 528 q 358 608 471 608 q 253 583 290 608 q 215 511 215 557 q 239 453 215 475 q 314 418 263 431 l 433 389 q 581 319 533 367 q 629 194 629 271 q 553 45 629 100 q 347 -10 478 -10 m 321 783 l 460 1068 l 611 1068 l 414 783 l 321 783 m 296 1061 l 296 914 l 133 914 l 133 1061 l 296 1061 z "},"š":{"ha":692,"x_min":58,"x_max":629,"o":"m 347 -10 q 58 79 164 -10 l 100 181 q 351 97 210 97 q 461 122 424 97 q 499 190 499 146 q 473 249 499 228 q 386 286 447 271 l 269 314 q 130 383 178 333 q 82 506 82 432 q 158 658 82 600 q 358 717 233 717 q 501 693 433 717 q 615 626 568 669 l 572 528 q 358 608 471 608 q 253 583 290 608 q 215 511 215 557 q 239 453 215 475 q 314 418 263 431 l 433 389 q 581 319 533 367 q 629 194 629 271 q 553 45 629 100 q 347 -10 478 -10 m 574 1075 l 404 790 l 311 790 l 142 1075 l 263 1075 l 358 883 l 453 1075 l 574 1075 z "},"ṧ":{"ha":692,"x_min":58,"x_max":629,"o":"m 347 -10 q 58 79 164 -10 l 100 181 q 351 97 210 97 q 461 122 424 97 q 499 190 499 146 q 473 249 499 228 q 386 286 447 271 l 269 314 q 130 383 178 333 q 82 506 82 432 q 158 658 82 600 q 358 717 233 717 q 501 693 433 717 q 615 626 568 669 l 572 528 q 358 608 471 608 q 253 583 290 608 q 215 511 215 557 q 239 453 215 475 q 314 418 263 431 l 433 389 q 581 319 533 367 q 629 194 629 271 q 553 45 629 100 q 347 -10 478 -10 m 574 1075 l 404 790 l 311 790 l 142 1075 l 263 1075 l 358 883 l 453 1075 l 574 1075 m 439 1275 l 439 1128 l 276 1128 l 276 1275 l 439 1275 z "},"ş":{"ha":692,"x_min":58,"x_max":629,"o":"m 629 194 q 561 51 629 106 q 375 -10 493 -4 l 368 -60 q 397 -57 378 -57 q 476 -82 444 -57 q 507 -154 507 -107 q 462 -239 507 -206 q 338 -272 417 -272 q 272 -265 307 -272 q 211 -246 238 -258 l 229 -179 q 336 -199 281 -199 q 390 -187 371 -199 q 410 -154 410 -176 q 361 -119 410 -119 q 301 -131 335 -119 l 275 -107 l 286 -7 q 58 79 146 6 l 100 181 q 351 97 210 97 q 461 122 424 97 q 499 190 499 146 q 473 249 499 228 q 386 286 447 271 l 269 314 q 130 383 178 333 q 82 506 82 432 q 158 658 82 600 q 358 717 233 717 q 501 693 433 717 q 615 626 568 669 l 572 528 q 358 608 471 608 q 253 583 290 608 q 215 511 215 557 q 239 453 215 475 q 314 418 263 431 l 433 389 q 581 319 533 367 q 629 194 629 271 z "},"ŝ":{"ha":692,"x_min":58,"x_max":629,"o":"m 347 -10 q 58 79 164 -10 l 100 181 q 351 97 210 97 q 461 122 424 97 q 499 190 499 146 q 473 249 499 228 q 386 286 447 271 l 269 314 q 130 383 178 333 q 82 506 82 432 q 158 658 82 600 q 358 717 233 717 q 501 693 433 717 q 615 626 568 669 l 572 528 q 358 608 471 608 q 253 583 290 608 q 215 511 215 557 q 239 453 215 475 q 314 418 263 431 l 433 389 q 581 319 533 367 q 629 194 629 271 q 553 45 629 100 q 347 -10 478 -10 m 142 790 l 311 1075 l 404 1075 l 574 790 l 453 790 l 358 979 l 263 790 l 142 790 z "},"ș":{"ha":692,"x_min":58,"x_max":629,"o":"m 347 -10 q 58 79 164 -10 l 100 181 q 351 97 210 97 q 461 122 424 97 q 499 190 499 146 q 473 249 499 228 q 386 286 447 271 l 269 314 q 130 383 178 333 q 82 506 82 432 q 158 658 82 600 q 358 717 233 717 q 501 693 433 717 q 615 626 568 669 l 572 528 q 358 608 471 608 q 253 583 290 608 q 215 511 215 557 q 239 453 215 475 q 314 418 263 431 l 433 389 q 581 319 533 367 q 629 194 629 271 q 553 45 629 100 q 347 -10 478 -10 m 422 -99 l 422 -182 q 406 -285 422 -240 q 347 -369 389 -331 l 289 -328 q 325 -278 314 -301 q 339 -226 336 -254 l 265 -226 l 265 -99 l 422 -99 z "},"ṡ":{"ha":692,"x_min":58,"x_max":629,"o":"m 347 -10 q 58 79 164 -10 l 100 181 q 351 97 210 97 q 461 122 424 97 q 499 190 499 146 q 473 249 499 228 q 386 286 447 271 l 269 314 q 130 383 178 333 q 82 506 82 432 q 158 658 82 600 q 358 717 233 717 q 501 693 433 717 q 615 626 568 669 l 572 528 q 358 608 471 608 q 253 583 290 608 q 215 511 215 557 q 239 453 215 475 q 314 418 263 431 l 433 389 q 581 319 533 367 q 629 194 629 271 q 553 45 629 100 q 347 -10 478 -10 m 439 1006 l 439 858 l 276 858 l 276 1006 l 439 1006 z "},"ṣ":{"ha":692,"x_min":58,"x_max":629,"o":"m 347 -10 q 58 79 164 -10 l 100 181 q 351 97 210 97 q 461 122 424 97 q 499 190 499 146 q 473 249 499 228 q 386 286 447 271 l 269 314 q 130 383 178 333 q 82 506 82 432 q 158 658 82 600 q 358 717 233 717 q 501 693 433 717 q 615 626 568 669 l 572 528 q 358 608 471 608 q 253 583 290 608 q 215 511 215 557 q 239 453 215 475 q 314 418 263 431 l 433 389 q 581 319 533 367 q 629 194 629 271 q 553 45 629 100 q 347 -10 478 -10 m 418 -121 l 418 -262 l 269 -262 l 269 -121 l 418 -121 z "},"ṩ":{"ha":692,"x_min":58,"x_max":629,"o":"m 347 -10 q 58 79 164 -10 l 100 181 q 351 97 210 97 q 461 122 424 97 q 499 190 499 146 q 473 249 499 228 q 386 286 447 271 l 269 314 q 130 383 178 333 q 82 506 82 432 q 158 658 82 600 q 358 717 233 717 q 501 693 433 717 q 615 626 568 669 l 572 528 q 358 608 471 608 q 253 583 290 608 q 215 511 215 557 q 239 453 215 475 q 314 418 263 431 l 433 389 q 581 319 533 367 q 629 194 629 271 q 553 45 629 100 q 347 -10 478 -10 m 418 -121 l 418 -262 l 269 -262 l 269 -121 l 418 -121 m 439 1006 l 439 858 l 276 858 l 276 1006 l 439 1006 z "},"ß":{"ha":906,"x_min":103,"x_max":865,"o":"m 533 518 q 785 402 706 476 q 865 219 865 328 q 792 52 865 114 q 593 -10 718 -10 q 444 13 513 -10 q 326 79 375 36 l 371 183 q 590 100 476 100 q 697 133 660 100 q 733 225 733 165 q 656 351 733 297 q 393 454 579 406 l 393 560 q 562 658 514 604 q 610 789 610 713 q 570 889 610 854 q 454 924 531 924 q 297 865 351 924 q 242 690 242 807 l 242 0 l 103 0 l 103 674 q 194 939 103 847 q 454 1031 285 1031 q 666 967 589 1031 q 743 792 743 904 q 696 635 743 703 q 533 518 649 568 z "},"t":{"ha":504,"x_min":8,"x_max":478,"o":"m 285 592 l 285 240 q 316 138 285 168 q 403 108 347 108 q 476 119 439 108 l 476 6 q 372 -10 431 -10 q 204 51 264 -10 q 144 229 144 113 l 144 592 l 8 592 l 8 700 l 144 700 l 144 875 l 285 924 l 285 700 l 478 700 l 478 592 l 285 592 z "},"ŧ":{"ha":518,"x_min":15,"x_max":486,"o":"m 292 592 l 292 453 l 457 453 l 457 350 l 292 350 l 292 240 q 323 138 292 168 q 410 108 354 108 q 483 119 446 108 l 483 6 q 379 -10 438 -10 q 211 51 271 -10 q 151 229 151 113 l 151 350 l 44 350 l 44 453 l 151 453 l 151 592 l 15 592 l 15 700 l 151 700 l 151 875 l 292 924 l 292 700 l 486 700 l 486 592 l 292 592 z "},"ť":{"ha":504,"x_min":8,"x_max":478,"o":"m 428 750 l 351 750 l 351 992 l 468 992 l 428 750 m 285 592 l 285 240 q 316 138 285 168 q 403 108 347 108 q 476 119 439 108 l 476 6 q 372 -10 431 -10 q 204 51 264 -10 q 144 229 144 113 l 144 592 l 8 592 l 8 700 l 144 700 l 144 875 l 285 924 l 285 700 l 478 700 l 478 592 l 285 592 z "},"ţ":{"ha":504,"x_min":8,"x_max":485,"o":"m 375 -57 q 453 -82 422 -57 q 485 -154 485 -107 q 440 -239 485 -206 q 315 -272 394 -272 q 250 -265 285 -272 q 189 -246 215 -258 l 207 -179 q 314 -199 258 -199 q 368 -187 349 -199 q 388 -154 388 -176 q 339 -119 388 -119 q 279 -131 313 -119 l 253 -107 l 267 10 q 176 90 208 33 q 144 229 144 146 l 144 592 l 8 592 l 8 700 l 144 700 l 144 875 l 285 924 l 285 700 l 478 700 l 478 592 l 285 592 l 285 240 q 316 138 285 168 q 403 108 347 108 q 476 119 439 108 l 476 6 q 372 -10 431 -10 l 353 -10 l 346 -60 q 375 -57 356 -57 z "},"ț":{"ha":504,"x_min":8,"x_max":478,"o":"m 285 592 l 285 240 q 316 138 285 168 q 403 108 347 108 q 476 119 439 108 l 476 6 q 372 -10 431 -10 q 204 51 264 -10 q 144 229 144 113 l 144 592 l 8 592 l 8 700 l 144 700 l 144 875 l 285 924 l 285 700 l 478 700 l 478 592 l 285 592 m 400 -99 l 400 -182 q 383 -285 400 -240 q 325 -369 367 -331 l 267 -328 q 303 -278 292 -301 q 317 -226 314 -254 l 243 -226 l 243 -99 l 400 -99 z "},"ẗ":{"ha":504,"x_min":8,"x_max":478,"o":"m 285 592 l 285 240 q 316 138 285 168 q 403 108 347 108 q 476 119 439 108 l 476 6 q 372 -10 431 -10 q 204 51 264 -10 q 144 229 144 113 l 144 592 l 8 592 l 8 700 l 144 700 l 144 875 l 285 924 l 285 700 l 478 700 l 478 592 l 285 592 m 163 1172 l 163 1035 l 18 1035 l 18 1172 l 163 1172 m 411 1172 l 411 1035 l 267 1035 l 267 1172 l 411 1172 z "},"ṭ":{"ha":504,"x_min":8,"x_max":478,"o":"m 285 592 l 285 240 q 316 138 285 168 q 403 108 347 108 q 476 119 439 108 l 476 6 q 372 -10 431 -10 q 204 51 264 -10 q 144 229 144 113 l 144 592 l 8 592 l 8 700 l 144 700 l 144 875 l 285 924 l 285 700 l 478 700 l 478 592 l 285 592 m 396 -121 l 396 -262 l 247 -262 l 247 -121 l 396 -121 z "},"ṯ":{"ha":504,"x_min":8,"x_max":535,"o":"m 285 592 l 285 240 q 316 138 285 168 q 403 108 347 108 q 476 119 439 108 l 476 6 q 372 -10 431 -10 q 204 51 264 -10 q 144 229 144 113 l 144 592 l 8 592 l 8 700 l 144 700 l 144 875 l 285 924 l 285 700 l 478 700 l 478 592 l 285 592 m 108 -144 l 535 -144 l 535 -239 l 108 -239 l 108 -144 z "},"u":{"ha":814,"x_min":99,"x_max":711,"o":"m 711 700 l 711 0 l 575 0 l 575 117 q 483 23 542 56 q 351 -10 425 -10 q 99 271 99 -10 l 99 700 l 238 700 l 238 272 q 273 145 238 186 q 381 104 308 104 q 519 160 467 104 q 571 307 571 215 l 571 700 l 711 700 z "},"ú":{"ha":814,"x_min":99,"x_max":711,"o":"m 711 700 l 711 0 l 575 0 l 575 117 q 483 23 542 56 q 351 -10 425 -10 q 99 271 99 -10 l 99 700 l 238 700 l 238 272 q 273 145 238 186 q 381 104 308 104 q 519 160 467 104 q 571 307 571 215 l 571 700 l 711 700 m 360 790 l 499 1075 l 650 1075 l 453 790 l 360 790 z "},"ŭ":{"ha":814,"x_min":99,"x_max":711,"o":"m 711 700 l 711 0 l 575 0 l 575 117 q 483 23 542 56 q 351 -10 425 -10 q 99 271 99 -10 l 99 700 l 238 700 l 238 272 q 273 145 238 186 q 381 104 308 104 q 519 160 467 104 q 571 307 571 215 l 571 700 l 711 700 m 407 829 q 260 875 325 829 q 167 1014 196 921 l 246 1047 q 317 955 276 983 q 407 926 357 926 q 496 955 456 926 q 567 1047 536 983 l 646 1014 q 553 875 618 921 q 407 829 489 829 z "},"û":{"ha":814,"x_min":99,"x_max":711,"o":"m 711 700 l 711 0 l 575 0 l 575 117 q 483 23 542 56 q 351 -10 425 -10 q 99 271 99 -10 l 99 700 l 238 700 l 238 272 q 273 145 238 186 q 381 104 308 104 q 519 160 467 104 q 571 307 571 215 l 571 700 l 711 700 m 190 790 l 360 1075 l 453 1075 l 622 790 l 501 790 l 407 979 l 311 790 l 190 790 z "},"ȕ":{"ha":814,"x_min":99,"x_max":711,"o":"m 711 700 l 711 0 l 575 0 l 575 117 q 483 23 542 56 q 351 -10 425 -10 q 99 271 99 -10 l 99 700 l 238 700 l 238 272 q 273 145 238 186 q 381 104 308 104 q 519 160 467 104 q 571 307 571 215 l 571 700 l 711 700 m 175 1075 l 293 1075 l 351 790 l 285 790 l 175 1075 m 351 1075 l 468 1075 l 528 790 l 461 790 l 351 1075 z "},"ü":{"ha":814,"x_min":99,"x_max":711,"o":"m 711 700 l 711 0 l 575 0 l 575 117 q 483 23 542 56 q 351 -10 425 -10 q 99 271 99 -10 l 99 700 l 238 700 l 238 272 q 273 145 238 186 q 381 104 308 104 q 519 160 467 104 q 571 307 571 215 l 571 700 l 711 700 m 354 1001 l 354 863 l 210 863 l 210 1001 l 354 1001 m 603 1001 l 603 863 l 458 863 l 458 1001 l 603 1001 z "},"ụ":{"ha":814,"x_min":99,"x_max":711,"o":"m 711 700 l 711 0 l 575 0 l 575 117 q 483 23 542 56 q 351 -10 425 -10 q 99 271 99 -10 l 99 700 l 238 700 l 238 272 q 273 145 238 186 q 381 104 308 104 q 519 160 467 104 q 571 307 571 215 l 571 700 l 711 700 m 481 -121 l 481 -262 l 332 -262 l 332 -121 l 481 -121 z "},"ù":{"ha":814,"x_min":99,"x_max":711,"o":"m 711 700 l 711 0 l 575 0 l 575 117 q 483 23 542 56 q 351 -10 425 -10 q 99 271 99 -10 l 99 700 l 238 700 l 238 272 q 273 145 238 186 q 381 104 308 104 q 519 160 467 104 q 571 307 571 215 l 571 700 l 711 700 m 163 1075 l 314 1075 l 453 790 l 360 790 l 163 1075 z "},"ủ":{"ha":814,"x_min":99,"x_max":711,"o":"m 711 700 l 711 0 l 575 0 l 575 117 q 483 23 542 56 q 351 -10 425 -10 q 99 271 99 -10 l 99 700 l 238 700 l 238 272 q 273 145 238 186 q 381 104 308 104 q 519 160 467 104 q 571 307 571 215 l 571 700 l 711 700 m 450 790 l 367 790 l 367 828 q 380 874 367 856 q 421 919 393 893 q 447 947 439 936 q 456 969 456 957 q 441 994 456 985 q 400 1003 426 1003 q 322 988 364 1003 l 299 1054 q 414 1079 353 1079 q 520 1051 482 1079 q 558 981 558 1022 q 543 928 558 949 q 499 885 528 908 q 462 851 474 865 q 450 815 450 836 l 450 790 z "},"ư":{"ha":836,"x_min":99,"x_max":878,"o":"m 878 883 l 878 842 q 834 699 878 756 q 711 631 790 643 l 711 0 l 575 0 l 575 117 q 483 23 542 56 q 351 -10 425 -10 q 99 271 99 -10 l 99 700 l 238 700 l 238 272 q 273 145 238 186 q 381 104 308 104 q 519 160 467 104 q 571 307 571 215 l 571 700 l 611 700 q 721 738 688 700 q 754 861 754 775 l 754 883 l 878 883 z "},"ứ":{"ha":836,"x_min":99,"x_max":878,"o":"m 878 883 l 878 842 q 834 699 878 756 q 711 631 790 643 l 711 0 l 575 0 l 575 117 q 483 23 542 56 q 351 -10 425 -10 q 99 271 99 -10 l 99 700 l 238 700 l 238 272 q 273 145 238 186 q 381 104 308 104 q 519 160 467 104 q 571 307 571 215 l 571 700 l 611 700 q 721 738 688 700 q 754 861 754 775 l 754 883 l 878 883 m 360 790 l 499 1075 l 650 1075 l 453 790 l 360 790 z "},"ự":{"ha":836,"x_min":99,"x_max":878,"o":"m 878 883 l 878 842 q 834 699 878 756 q 711 631 790 643 l 711 0 l 575 0 l 575 117 q 483 23 542 56 q 351 -10 425 -10 q 99 271 99 -10 l 99 700 l 238 700 l 238 272 q 273 145 238 186 q 381 104 308 104 q 519 160 467 104 q 571 307 571 215 l 571 700 l 611 700 q 721 738 688 700 q 754 861 754 775 l 754 883 l 878 883 m 481 -121 l 481 -262 l 332 -262 l 332 -121 l 481 -121 z "},"ừ":{"ha":836,"x_min":99,"x_max":878,"o":"m 878 883 l 878 842 q 834 699 878 756 q 711 631 790 643 l 711 0 l 575 0 l 575 117 q 483 23 542 56 q 351 -10 425 -10 q 99 271 99 -10 l 99 700 l 238 700 l 238 272 q 273 145 238 186 q 381 104 308 104 q 519 160 467 104 q 571 307 571 215 l 571 700 l 611 700 q 721 738 688 700 q 754 861 754 775 l 754 883 l 878 883 m 163 1075 l 314 1075 l 453 790 l 360 790 l 163 1075 z "},"ử":{"ha":836,"x_min":99,"x_max":878,"o":"m 878 883 l 878 842 q 834 699 878 756 q 711 631 790 643 l 711 0 l 575 0 l 575 117 q 483 23 542 56 q 351 -10 425 -10 q 99 271 99 -10 l 99 700 l 238 700 l 238 272 q 273 145 238 186 q 381 104 308 104 q 519 160 467 104 q 571 307 571 215 l 571 700 l 611 700 q 721 738 688 700 q 754 861 754 775 l 754 883 l 878 883 m 450 790 l 367 790 l 367 828 q 380 874 367 856 q 421 919 393 893 q 447 947 439 936 q 456 969 456 957 q 441 994 456 985 q 400 1003 426 1003 q 322 988 364 1003 l 299 1054 q 414 1079 353 1079 q 520 1051 482 1079 q 558 981 558 1022 q 543 928 558 949 q 499 885 528 908 q 462 851 474 865 q 450 815 450 836 l 450 790 z "},"ữ":{"ha":836,"x_min":99,"x_max":878,"o":"m 878 883 l 878 842 q 834 699 878 756 q 711 631 790 643 l 711 0 l 575 0 l 575 117 q 483 23 542 56 q 351 -10 425 -10 q 99 271 99 -10 l 99 700 l 238 700 l 238 272 q 273 145 238 186 q 381 104 308 104 q 519 160 467 104 q 571 307 571 215 l 571 700 l 611 700 q 721 738 688 700 q 754 861 754 775 l 754 883 l 878 883 m 175 850 q 212 977 175 932 q 308 1022 249 1022 q 362 1011 336 1022 q 424 978 388 1000 q 470 951 453 960 q 503 943 488 943 q 549 964 532 943 q 567 1018 565 985 l 638 1018 q 601 890 638 935 q 504 846 564 846 q 451 857 476 846 q 389 890 425 868 q 341 916 357 908 q 310 924 325 924 q 264 903 281 924 q 246 850 247 882 l 175 850 z "},"ű":{"ha":814,"x_min":99,"x_max":711,"o":"m 711 700 l 711 0 l 575 0 l 575 117 q 483 23 542 56 q 351 -10 425 -10 q 99 271 99 -10 l 99 700 l 238 700 l 238 272 q 273 145 238 186 q 381 104 308 104 q 519 160 467 104 q 571 307 571 215 l 571 700 l 711 700 m 285 790 l 344 1075 l 461 1075 l 351 790 l 285 790 m 461 790 l 519 1075 l 638 1075 l 528 790 l 461 790 z "},"ȗ":{"ha":814,"x_min":99,"x_max":711,"o":"m 711 700 l 711 0 l 575 0 l 575 117 q 483 23 542 56 q 351 -10 425 -10 q 99 271 99 -10 l 99 700 l 238 700 l 238 272 q 273 145 238 186 q 381 104 308 104 q 519 160 467 104 q 571 307 571 215 l 571 700 l 711 700 m 407 1043 q 552 997 488 1043 q 646 860 617 951 l 567 826 q 496 919 536 890 q 407 947 456 947 q 317 919 357 947 q 246 826 276 890 l 167 858 q 260 997 194 951 q 407 1043 325 1043 z "},"ū":{"ha":814,"x_min":99,"x_max":711,"o":"m 711 700 l 711 0 l 575 0 l 575 117 q 483 23 542 56 q 351 -10 425 -10 q 99 271 99 -10 l 99 700 l 238 700 l 238 272 q 273 145 238 186 q 381 104 308 104 q 519 160 467 104 q 571 307 571 215 l 571 700 l 711 700 m 193 981 l 619 981 l 619 882 l 193 882 l 193 981 z "},"ṻ":{"ha":814,"x_min":99,"x_max":711,"o":"m 711 700 l 711 0 l 575 0 l 575 117 q 483 23 542 56 q 351 -10 425 -10 q 99 271 99 -10 l 99 700 l 238 700 l 238 272 q 273 145 238 186 q 381 104 308 104 q 519 160 467 104 q 571 307 571 215 l 571 700 l 711 700 m 193 981 l 619 981 l 619 882 l 193 882 l 193 981 m 354 1271 l 354 1132 l 210 1132 l 210 1271 l 354 1271 m 603 1271 l 603 1132 l 458 1132 l 458 1271 l 603 1271 z "},"ų":{"ha":814,"x_min":99,"x_max":772,"o":"m 772 -247 q 644 -278 715 -278 q 521 -235 568 -278 q 474 -125 474 -193 q 500 -35 474 -75 q 575 31 526 6 l 575 117 q 483 23 542 56 q 351 -10 425 -10 q 99 271 99 -10 l 99 700 l 238 700 l 238 272 q 273 145 238 186 q 381 104 308 104 q 519 160 467 104 q 571 307 571 215 l 571 700 l 711 700 l 711 0 l 701 0 q 610 -30 646 0 q 575 -107 575 -60 q 599 -170 575 -147 q 668 -193 624 -193 q 749 -171 708 -193 l 772 -247 z "},"ů":{"ha":814,"x_min":99,"x_max":711,"o":"m 711 700 l 711 0 l 575 0 l 575 117 q 483 23 542 56 q 351 -10 425 -10 q 99 271 99 -10 l 99 700 l 238 700 l 238 272 q 273 145 238 186 q 381 104 308 104 q 519 160 467 104 q 571 307 571 215 l 571 700 l 711 700 m 407 790 q 303 831 346 790 q 261 933 261 872 q 303 1034 261 993 q 407 1075 346 1075 q 509 1034 467 1075 q 551 933 551 993 q 509 831 551 872 q 407 790 467 790 m 407 864 q 453 883 435 864 q 472 933 472 903 q 453 981 472 961 q 407 1000 435 1000 q 359 981 378 1000 q 340 933 340 961 q 359 883 340 903 q 407 864 378 864 z "},"ũ":{"ha":814,"x_min":99,"x_max":711,"o":"m 711 700 l 711 0 l 575 0 l 575 117 q 483 23 542 56 q 351 -10 425 -10 q 99 271 99 -10 l 99 700 l 238 700 l 238 272 q 273 145 238 186 q 381 104 308 104 q 519 160 467 104 q 571 307 571 215 l 571 700 l 711 700 m 175 850 q 212 977 175 932 q 308 1022 249 1022 q 362 1011 336 1022 q 424 978 388 1000 q 470 951 453 960 q 503 943 488 943 q 549 964 532 943 q 567 1018 565 985 l 638 1018 q 601 890 638 935 q 504 846 564 846 q 451 857 476 846 q 389 890 425 868 q 341 916 357 908 q 310 924 325 924 q 264 903 281 924 q 246 850 247 882 l 175 850 z "},"ṹ":{"ha":814,"x_min":99,"x_max":711,"o":"m 711 700 l 711 0 l 575 0 l 575 117 q 483 23 542 56 q 351 -10 425 -10 q 99 271 99 -10 l 99 700 l 238 700 l 238 272 q 273 145 238 186 q 381 104 308 104 q 519 160 467 104 q 571 307 571 215 l 571 700 l 711 700 m 175 850 q 212 977 175 932 q 308 1022 249 1022 q 362 1011 336 1022 q 424 978 388 1000 q 470 951 453 960 q 503 943 488 943 q 549 964 532 943 q 567 1018 565 985 l 638 1018 q 601 890 638 935 q 504 846 564 846 q 451 857 476 846 q 389 890 425 868 q 341 916 357 908 q 310 924 325 924 q 264 903 281 924 q 246 850 247 882 l 175 850 m 360 1060 l 499 1344 l 650 1344 l 453 1060 l 360 1060 z "},"v":{"ha":744,"x_min":7,"x_max":739,"o":"m 739 699 l 435 0 l 308 0 l 7 699 l 156 699 l 375 158 l 599 699 l 739 699 z "},"w":{"ha":1217,"x_min":26,"x_max":1189,"o":"m 1189 700 l 922 0 l 794 0 l 607 507 l 421 0 l 293 0 l 26 700 l 172 700 l 363 165 l 556 700 l 667 700 l 860 165 l 1051 700 l 1189 700 z "},"ẃ":{"ha":1217,"x_min":26,"x_max":1189,"o":"m 1189 700 l 922 0 l 794 0 l 607 507 l 421 0 l 293 0 l 26 700 l 172 700 l 363 165 l 556 700 l 667 700 l 860 165 l 1051 700 l 1189 700 m 561 790 l 700 1075 l 851 1075 l 654 790 l 561 790 z "},"ŵ":{"ha":1217,"x_min":26,"x_max":1189,"o":"m 1189 700 l 922 0 l 794 0 l 607 507 l 421 0 l 293 0 l 26 700 l 172 700 l 363 165 l 556 700 l 667 700 l 860 165 l 1051 700 l 1189 700 m 392 790 l 561 1075 l 654 1075 l 824 790 l 703 790 l 608 979 l 513 790 l 392 790 z "},"ẅ":{"ha":1217,"x_min":26,"x_max":1189,"o":"m 1189 700 l 922 0 l 794 0 l 607 507 l 421 0 l 293 0 l 26 700 l 172 700 l 363 165 l 556 700 l 667 700 l 860 165 l 1051 700 l 1189 700 m 556 1001 l 556 863 l 411 863 l 411 1001 l 556 1001 m 804 1001 l 804 863 l 660 863 l 660 1001 l 804 1001 z "},"ẁ":{"ha":1217,"x_min":26,"x_max":1189,"o":"m 1189 700 l 922 0 l 794 0 l 607 507 l 421 0 l 293 0 l 26 700 l 172 700 l 363 165 l 556 700 l 667 700 l 860 165 l 1051 700 l 1189 700 m 364 1075 l 515 1075 l 654 790 l 561 790 l 364 1075 z "},"x":{"ha":751,"x_min":3,"x_max":749,"o":"m 749 0 l 582 0 l 375 258 l 171 0 l 3 0 l 294 360 l 19 700 l 188 700 l 375 461 l 564 700 l 733 700 l 458 360 l 749 0 z "},"y":{"ha":744,"x_min":7,"x_max":739,"o":"m 739 700 l 413 -57 q 277 -238 358 -181 q 76 -315 196 -296 l 46 -207 q 195 -149 144 -185 q 276 -43 246 -114 l 301 15 l 7 700 l 156 700 l 375 158 l 599 700 l 739 700 z "},"ý":{"ha":744,"x_min":7,"x_max":739,"o":"m 739 700 l 413 -57 q 277 -238 358 -181 q 76 -315 196 -296 l 46 -207 q 195 -149 144 -185 q 276 -43 246 -114 l 301 15 l 7 700 l 156 700 l 375 158 l 599 700 l 739 700 m 325 790 l 464 1075 l 615 1075 l 418 790 l 325 790 z "},"ŷ":{"ha":744,"x_min":7,"x_max":739,"o":"m 739 700 l 413 -57 q 277 -238 358 -181 q 76 -315 196 -296 l 46 -207 q 195 -149 144 -185 q 276 -43 246 -114 l 301 15 l 7 700 l 156 700 l 375 158 l 599 700 l 739 700 m 156 790 l 325 1075 l 418 1075 l 588 790 l 467 790 l 372 979 l 276 790 l 156 790 z "}}}
